<svg xmlns="http://www.w3.org/2000/svg" xmlns:xlink="http://www.w3.org/1999/xlink" width="500" zoomAndPan="magnify" viewBox="0 0 375 374.999991" height="500" preserveAspectRatio="xMidYMid meet" version="1.0"><defs><g/></defs><g fill="#00c4cc" fill-opacity="1"><g transform="translate(85.246934, 201.404788)"><g><path d="M 18.1875 -2.316406 C 21.949219 -2.710938 25.1875 -3.886719 27.90625 -5.84375 C 30.558594 -7.792969 32.871094 -10.195312 34.765625 -13.109375 C 36.664062 -16.023438 38.167969 -19.242188 39.425781 -22.78125 C 40.679688 -26.320312 41.710938 -29.972656 42.660156 -33.6875 C 43.550781 -37.320312 44.375 -40.949219 45.140625 -44.429688 C 45.910156 -47.910156 46.714844 -51.109375 47.640625 -53.90625 C 48.5625 -56.699219 49.625 -58.945312 50.808594 -60.78125 C 52 -62.550781 53.496094 -63.582031 55.371094 -63.816406 C 56.410156 -63.941406 57.226562 -63.621094 57.808594 -62.917969 C 58.328125 -62.136719 58.648438 -61.257812 58.714844 -60.136719 C 58.714844 -59.007812 58.496094 -57.925781 57.9375 -56.726562 C 57.378906 -55.53125 56.589844 -54.515625 55.5625 -53.683594 C 56.976562 -53.648438 58.289062 -53.878906 59.488281 -54.449219 C 60.6875 -55.023438 61.800781 -55.722656 62.667969 -56.675781 C 63.546875 -57.5625 64.269531 -58.566406 64.824219 -59.765625 C 65.3125 -60.953125 65.59375 -62.117188 65.585938 -63.3125 C 65.578125 -64.511719 65.226562 -65.667969 64.652344 -66.863281 C 64.023438 -67.984375 63.050781 -68.996094 61.671875 -69.882812 C 60.386719 -70.570312 58.9375 -70.882812 57.324219 -70.824219 C 55.710938 -70.765625 54.078125 -70.285156 52.410156 -69.511719 C 50.679688 -68.664062 49.066406 -67.476562 47.484375 -66.011719 C 45.832031 -64.539062 44.429688 -62.746094 43.273438 -60.699219 C 41.882812 -58.269531 40.59375 -55.574219 39.554688 -52.554688 C 38.519531 -49.535156 37.488281 -46.445312 36.46875 -43.289062 C 35.449219 -40.128906 34.417969 -37.039062 33.375 -34.089844 C 32.328125 -31.140625 31.039062 -28.441406 29.558594 -26.144531 C 28.082031 -23.847656 26.34375 -21.941406 24.394531 -20.570312 C 22.378906 -19.195312 19.992188 -18.546875 17.230469 -18.628906 C 15.460938 -18.691406 14.125 -19.230469 13.15625 -20.242188 C 12.183594 -21.25 11.457031 -22.570312 11.121094 -24.148438 C 10.722656 -25.652344 10.585938 -27.328125 10.710938 -29.175781 C 10.773438 -30.945312 11.0625 -32.605469 11.5 -34.210938 C 11.945312 -35.746094 12.554688 -37.089844 13.265625 -38.164062 C 13.980469 -39.242188 14.746094 -39.898438 15.570312 -40.070312 C 13.558594 -40.953125 11.675781 -41.351562 9.929688 -41.207031 C 8.117188 -41.054688 6.492188 -40.5 5.050781 -39.617188 C 3.539062 -38.726562 2.207031 -37.503906 1.128906 -35.960938 C -0.0195312 -34.410156 -0.933594 -32.675781 -1.542969 -30.765625 C -2.222656 -28.847656 -2.675781 -26.816406 -2.835938 -24.683594 C -3.066406 -22.539062 -2.949219 -20.4375 -2.550781 -18.371094 C -2.035156 -15.332031 -1.082031 -12.769531 0.234375 -10.675781 C 1.488281 -8.503906 3.117188 -6.730469 4.972656 -5.410156 C 6.828125 -4.085938 8.851562 -3.136719 11.097656 -2.640625 C 13.351562 -2.074219 15.6875 -2.007812 18.1875 -2.316406 Z M 18.1875 -2.316406 "/></g></g></g><g fill="#00c4cc" fill-opacity="1"><g transform="translate(133.305575, 195.469139)"><g><path d="M -7.542969 1.144531 L 2.664062 -0.117188 C 3.179688 -1.097656 3.691406 -2.078125 4.265625 -3.136719 C 4.773438 -4.1875 5.285156 -5.164062 5.859375 -6.222656 C 6.375 -7.203125 6.886719 -8.183594 7.402344 -9.164062 C 7.921875 -10.074219 8.4375 -11.054688 9.019531 -12.042969 C 10.054688 -13.933594 11.230469 -15.84375 12.402344 -17.75 C 13.585938 -19.589844 14.832031 -21.503906 16.285156 -23.449219 C 17.136719 -24.539062 17.980469 -25.703125 18.894531 -26.871094 C 19.746094 -27.964844 20.667969 -29.066406 21.535156 -30.019531 C 22.414062 -30.902344 23.242188 -31.640625 24.015625 -32.230469 C 24.789062 -32.820312 25.457031 -33.113281 26.011719 -33.179688 C 26.367188 -33.15625 26.679688 -32.910156 27.015625 -32.460938 C 27.226562 -31.921875 27.050781 -31.054688 26.570312 -29.796875 C 25.976562 -28.3125 25.386719 -26.828125 24.847656 -25.492188 C 24.234375 -24.148438 23.625 -22.804688 23.007812 -21.527344 C 22.328125 -20.175781 21.710938 -18.898438 21.09375 -17.625 C 20.484375 -16.28125 19.867188 -15.003906 19.316406 -13.738281 C 18.871094 -12.765625 18.453125 -11.585938 18.054688 -10.269531 C 17.652344 -8.949219 17.527344 -7.664062 17.597656 -6.546875 C 17.601562 -5.347656 18 -4.410156 18.730469 -3.652344 C 19.386719 -2.886719 20.609375 -2.6875 22.417969 -2.910156 C 23.945312 -3.097656 25.480469 -3.78125 27.011719 -5.097656 C 28.542969 -6.417969 29.90625 -7.925781 31.246094 -9.640625 C 32.515625 -11.347656 33.570312 -13.101562 34.40625 -14.898438 C 35.242188 -16.691406 35.761719 -18.167969 35.894531 -19.382812 C 35.660156 -19 35.488281 -18.699219 35.3125 -18.394531 C 35.070312 -18.082031 34.902344 -17.707031 34.730469 -17.40625 C 34.25 -16.710938 33.695312 -16.078125 33.199219 -15.523438 C 32.703125 -14.96875 32.121094 -14.542969 31.53125 -14.1875 C 30.878906 -13.757812 30.269531 -13.539062 29.707031 -13.542969 C 29.082031 -13.464844 28.699219 -13.699219 28.5 -14.167969 C 28.3125 -14.566406 28.242188 -15.125 28.363281 -15.84375 C 28.417969 -16.554688 28.671875 -17.363281 29.046875 -18.324219 C 29.359375 -19.210938 29.742188 -20.101562 30.132812 -20.925781 C 30.457031 -21.742188 30.96875 -22.722656 31.667969 -23.9375 C 31.953125 -24.464844 32.230469 -25.066406 32.582031 -25.671875 C 32.929688 -26.277344 33.207031 -26.878906 33.539062 -27.625 C 34.15625 -28.898438 34.765625 -30.242188 35.289062 -31.71875 C 35.820312 -33.125 36.144531 -34.503906 36.335938 -35.796875 C 36.46875 -37.011719 36.269531 -38.042969 35.871094 -38.984375 C 35.472656 -39.921875 34.625 -40.519531 33.445312 -40.9375 C 32.28125 -41.21875 31.101562 -41.074219 29.78125 -40.347656 C 28.460938 -39.617188 27.105469 -38.605469 25.707031 -37.375 C 24.316406 -36.074219 22.878906 -34.558594 21.523438 -32.980469 C 20.097656 -31.394531 18.8125 -29.824219 17.644531 -28.410156 L 22.386719 -36.824219 C 23.136719 -37.621094 24.273438 -38.679688 25.683594 -39.839844 C 26.394531 -40.351562 27.097656 -40.929688 27.863281 -41.589844 C 28.636719 -42.179688 29.402344 -42.835938 30.226562 -43.574219 C 31.828125 -44.898438 33.480469 -46.375 35.113281 -47.984375 C 36.746094 -49.597656 38.304688 -51.269531 39.710938 -52.996094 C 40.867188 -54.476562 41.886719 -55.945312 42.828125 -57.46875 C 43.695312 -58.988281 44.296875 -60.402344 44.691406 -61.789062 C 45.023438 -63.101562 45.074219 -64.375 44.871094 -65.480469 C 44.59375 -66.574219 43.976562 -67.554688 42.886719 -68.40625 C 42.121094 -68.878906 41.230469 -69.261719 40.222656 -69.417969 C 39.214844 -69.574219 38.097656 -69.507812 36.933594 -69.222656 C 35.707031 -68.859375 34.578125 -68.296875 33.414062 -67.449219 C 32.25 -66.601562 31.257812 -65.492188 30.371094 -64.113281 C 27.492188 -59.453125 24.4375 -54.492188 21.269531 -49.308594 C 18.109375 -44.050781 14.839844 -38.570312 11.585938 -32.949219 C 8.269531 -27.253906 5.023438 -21.5625 1.785156 -15.804688 C -1.453125 -10.046875 -4.566406 -4.441406 -7.542969 1.144531 Z M 24.730469 -42.402344 L 38.3125 -63.753906 C 38.730469 -64.367188 39.242188 -64.785156 39.78125 -64.992188 C 40.328125 -65.128906 40.753906 -65.113281 41.207031 -64.886719 C 41.515625 -64.640625 41.847656 -64.261719 42.054688 -63.722656 C 42.261719 -63.183594 42.277344 -62.480469 42.171875 -61.621094 C 41.996094 -60.753906 41.5625 -59.710938 40.996094 -58.585938 C 40.4375 -57.386719 39.542969 -56.078125 38.378906 -54.664062 C 37.402344 -53.414062 36.214844 -52.210938 34.960938 -50.929688 C 33.640625 -49.636719 32.378906 -48.421875 31.109375 -47.28125 C 29.773438 -46.128906 28.5625 -45.0625 27.398438 -44.210938 C 26.234375 -43.363281 25.390625 -42.765625 24.730469 -42.402344 Z M 24.730469 -42.402344 "/></g></g></g><g fill="#00c4cc" fill-opacity="1"><g transform="translate(165.112948, 191.540659)"><g><path d="M 4.75 -0.9375 C 6.46875 -0.726562 8.136719 -0.933594 9.820312 -1.566406 C 11.503906 -2.195312 13.164062 -3.035156 14.78125 -4.222656 C 16.335938 -5.332031 17.796875 -6.640625 19.238281 -8.085938 C 20.683594 -9.535156 22.039062 -11.113281 23.238281 -12.8125 C 24.378906 -14.433594 25.441406 -16.117188 26.433594 -17.789062 C 27.355469 -19.457031 28.15625 -20.964844 28.816406 -22.457031 C 26.050781 -18.589844 23.433594 -15.796875 21.105469 -14.101562 C 18.777344 -12.402344 16.761719 -11.589844 15.128906 -11.671875 C 13.4375 -11.671875 12.34375 -12.523438 11.703125 -14.28125 C 11.074219 -15.964844 11.128906 -18.367188 11.878906 -21.421875 C 12.070312 -22.152344 12.265625 -22.878906 12.457031 -23.609375 C 12.65625 -24.269531 12.925781 -24.9375 13.195312 -25.605469 C 13.089844 -24.179688 13.417969 -23.234375 14.113281 -22.757812 C 14.738281 -22.269531 15.613281 -22.023438 16.65625 -22.152344 L 16.472656 -21.917969 C 18.433594 -22.019531 20.3125 -22.816406 21.972656 -24.21875 C 23.640625 -25.554688 24.917969 -27.195312 25.953125 -29.085938 C 26.355469 -29.839844 26.71875 -30.871094 27.121094 -32.191406 C 27.523438 -33.507812 27.722656 -34.734375 27.707031 -36 C 27.703125 -37.199219 27.363281 -38.214844 26.835938 -39.066406 C 26.246094 -39.839844 25.214844 -40.203125 23.808594 -40.171875 C 21.4375 -39.949219 19.136719 -39.171875 17.035156 -37.925781 C 14.933594 -36.679688 12.933594 -35.164062 11.175781 -33.394531 C 9.359375 -31.546875 7.769531 -29.589844 6.332031 -27.507812 C 4.90625 -25.355469 3.808594 -23.386719 2.90625 -21.582031 C 1.597656 -19.023438 0.570312 -16.5 -0.109375 -14.019531 C -0.859375 -11.527344 -1.078125 -9.316406 -0.769531 -7.378906 C -0.496094 -5.15625 0.195312 -3.550781 1.167969 -2.542969 C 2.136719 -1.535156 3.324219 -1.046875 4.75 -0.9375 Z M 15.808594 -25.574219 C 14.90625 -25.464844 14.359375 -25.890625 14.1875 -26.714844 C 13.945312 -27.53125 14.375 -28.640625 15.382812 -30.175781 C 16.730469 -32.386719 18.15625 -33.972656 19.660156 -34.933594 C 21.101562 -35.820312 22.371094 -36.398438 23.394531 -36.667969 L 23.464844 -36.675781 C 24.992188 -36.863281 25.625 -36.308594 25.371094 -34.9375 C 25.179688 -34.207031 24.847656 -33.460938 24.386719 -32.628906 C 23.925781 -31.796875 23.324219 -30.945312 22.71875 -30.164062 C 21.5 -28.605469 20.230469 -27.460938 18.980469 -26.742188 C 17.667969 -25.945312 16.660156 -25.539062 15.808594 -25.574219 Z M 15.808594 -25.574219 "/></g></g></g><g fill="#5ce1e6" fill-opacity="1"><g transform="translate(86.803166, 200.27242)"><g><path d="M 18.1875 -2.316406 C 21.949219 -2.710938 25.1875 -3.886719 27.90625 -5.84375 C 30.558594 -7.792969 32.871094 -10.195312 34.765625 -13.109375 C 36.664062 -16.023438 38.167969 -19.242188 39.425781 -22.78125 C 40.679688 -26.320312 41.710938 -29.972656 42.660156 -33.6875 C 43.550781 -37.320312 44.375 -40.949219 45.140625 -44.429688 C 45.910156 -47.910156 46.714844 -51.109375 47.640625 -53.90625 C 48.5625 -56.699219 49.625 -58.945312 50.808594 -60.78125 C 52 -62.550781 53.496094 -63.582031 55.371094 -63.816406 C 56.410156 -63.941406 57.226562 -63.621094 57.808594 -62.917969 C 58.328125 -62.136719 58.648438 -61.257812 58.714844 -60.136719 C 58.714844 -59.007812 58.496094 -57.925781 57.9375 -56.726562 C 57.378906 -55.53125 56.589844 -54.515625 55.5625 -53.683594 C 56.976562 -53.648438 58.289062 -53.878906 59.488281 -54.449219 C 60.6875 -55.023438 61.800781 -55.722656 62.667969 -56.675781 C 63.546875 -57.5625 64.269531 -58.566406 64.824219 -59.765625 C 65.3125 -60.953125 65.59375 -62.117188 65.585938 -63.3125 C 65.578125 -64.511719 65.226562 -65.667969 64.652344 -66.863281 C 64.023438 -67.984375 63.050781 -68.996094 61.671875 -69.882812 C 60.386719 -70.570312 58.9375 -70.882812 57.324219 -70.824219 C 55.710938 -70.765625 54.078125 -70.285156 52.410156 -69.511719 C 50.679688 -68.664062 49.066406 -67.476562 47.484375 -66.011719 C 45.832031 -64.539062 44.429688 -62.746094 43.273438 -60.699219 C 41.882812 -58.269531 40.59375 -55.574219 39.554688 -52.554688 C 38.519531 -49.535156 37.488281 -46.445312 36.46875 -43.289062 C 35.449219 -40.128906 34.417969 -37.039062 33.375 -34.089844 C 32.328125 -31.140625 31.039062 -28.441406 29.558594 -26.144531 C 28.082031 -23.847656 26.34375 -21.941406 24.394531 -20.570312 C 22.378906 -19.195312 19.992188 -18.546875 17.230469 -18.628906 C 15.460938 -18.691406 14.125 -19.230469 13.15625 -20.242188 C 12.183594 -21.25 11.457031 -22.570312 11.121094 -24.148438 C 10.722656 -25.652344 10.585938 -27.328125 10.710938 -29.175781 C 10.773438 -30.945312 11.0625 -32.605469 11.5 -34.210938 C 11.945312 -35.746094 12.554688 -37.089844 13.265625 -38.164062 C 13.980469 -39.242188 14.746094 -39.898438 15.570312 -40.070312 C 13.558594 -40.953125 11.675781 -41.351562 9.929688 -41.207031 C 8.117188 -41.054688 6.492188 -40.5 5.050781 -39.617188 C 3.539062 -38.726562 2.207031 -37.503906 1.128906 -35.960938 C -0.0195312 -34.410156 -0.933594 -32.675781 -1.542969 -30.765625 C -2.222656 -28.847656 -2.675781 -26.816406 -2.835938 -24.683594 C -3.066406 -22.539062 -2.949219 -20.4375 -2.550781 -18.371094 C -2.035156 -15.332031 -1.082031 -12.769531 0.234375 -10.675781 C 1.488281 -8.503906 3.117188 -6.730469 4.972656 -5.410156 C 6.828125 -4.085938 8.851562 -3.136719 11.097656 -2.640625 C 13.351562 -2.074219 15.6875 -2.007812 18.1875 -2.316406 Z M 18.1875 -2.316406 "/></g></g></g><g fill="#5ce1e6" fill-opacity="1"><g transform="translate(134.861807, 194.336771)"><g><path d="M -7.542969 1.144531 L 2.664062 -0.117188 C 3.179688 -1.097656 3.691406 -2.078125 4.265625 -3.136719 C 4.773438 -4.1875 5.285156 -5.164062 5.859375 -6.222656 C 6.375 -7.203125 6.886719 -8.183594 7.402344 -9.164062 C 7.921875 -10.074219 8.4375 -11.054688 9.019531 -12.042969 C 10.054688 -13.933594 11.230469 -15.84375 12.402344 -17.75 C 13.585938 -19.589844 14.832031 -21.503906 16.285156 -23.449219 C 17.136719 -24.539062 17.980469 -25.703125 18.894531 -26.871094 C 19.746094 -27.964844 20.667969 -29.066406 21.535156 -30.019531 C 22.414062 -30.902344 23.242188 -31.640625 24.015625 -32.230469 C 24.789062 -32.820312 25.457031 -33.113281 26.011719 -33.179688 C 26.367188 -33.15625 26.679688 -32.910156 27.015625 -32.460938 C 27.226562 -31.921875 27.050781 -31.054688 26.570312 -29.796875 C 25.976562 -28.3125 25.386719 -26.828125 24.847656 -25.492188 C 24.234375 -24.148438 23.625 -22.804688 23.007812 -21.527344 C 22.328125 -20.175781 21.710938 -18.898438 21.09375 -17.625 C 20.484375 -16.28125 19.867188 -15.003906 19.316406 -13.738281 C 18.871094 -12.765625 18.453125 -11.585938 18.054688 -10.269531 C 17.652344 -8.949219 17.527344 -7.664062 17.597656 -6.546875 C 17.601562 -5.347656 18 -4.410156 18.730469 -3.652344 C 19.386719 -2.886719 20.609375 -2.6875 22.417969 -2.910156 C 23.945312 -3.097656 25.480469 -3.78125 27.011719 -5.097656 C 28.542969 -6.417969 29.90625 -7.925781 31.246094 -9.640625 C 32.515625 -11.347656 33.570312 -13.101562 34.40625 -14.898438 C 35.242188 -16.691406 35.761719 -18.167969 35.894531 -19.382812 C 35.660156 -19 35.488281 -18.699219 35.3125 -18.394531 C 35.070312 -18.082031 34.902344 -17.707031 34.730469 -17.40625 C 34.25 -16.710938 33.695312 -16.078125 33.199219 -15.523438 C 32.703125 -14.96875 32.121094 -14.542969 31.53125 -14.1875 C 30.878906 -13.757812 30.269531 -13.539062 29.707031 -13.542969 C 29.082031 -13.464844 28.699219 -13.699219 28.5 -14.167969 C 28.3125 -14.566406 28.242188 -15.125 28.363281 -15.84375 C 28.417969 -16.554688 28.671875 -17.363281 29.046875 -18.324219 C 29.359375 -19.210938 29.742188 -20.101562 30.132812 -20.925781 C 30.457031 -21.742188 30.96875 -22.722656 31.667969 -23.9375 C 31.953125 -24.464844 32.230469 -25.066406 32.582031 -25.671875 C 32.929688 -26.277344 33.207031 -26.878906 33.539062 -27.625 C 34.15625 -28.898438 34.765625 -30.242188 35.289062 -31.71875 C 35.820312 -33.125 36.144531 -34.503906 36.335938 -35.796875 C 36.46875 -37.011719 36.269531 -38.042969 35.871094 -38.984375 C 35.472656 -39.921875 34.625 -40.519531 33.445312 -40.9375 C 32.28125 -41.21875 31.101562 -41.074219 29.78125 -40.347656 C 28.460938 -39.617188 27.105469 -38.605469 25.707031 -37.375 C 24.316406 -36.074219 22.878906 -34.558594 21.523438 -32.980469 C 20.097656 -31.394531 18.8125 -29.824219 17.644531 -28.410156 L 22.386719 -36.824219 C 23.136719 -37.621094 24.273438 -38.679688 25.683594 -39.839844 C 26.394531 -40.351562 27.097656 -40.929688 27.863281 -41.589844 C 28.636719 -42.179688 29.402344 -42.835938 30.226562 -43.574219 C 31.828125 -44.898438 33.480469 -46.375 35.113281 -47.984375 C 36.746094 -49.597656 38.304688 -51.269531 39.710938 -52.996094 C 40.867188 -54.476562 41.886719 -55.945312 42.828125 -57.46875 C 43.695312 -58.988281 44.296875 -60.402344 44.691406 -61.789062 C 45.023438 -63.101562 45.074219 -64.375 44.871094 -65.480469 C 44.59375 -66.574219 43.976562 -67.554688 42.886719 -68.40625 C 42.121094 -68.878906 41.230469 -69.261719 40.222656 -69.417969 C 39.214844 -69.574219 38.097656 -69.507812 36.933594 -69.222656 C 35.707031 -68.859375 34.578125 -68.296875 33.414062 -67.449219 C 32.25 -66.601562 31.257812 -65.492188 30.371094 -64.113281 C 27.492188 -59.453125 24.4375 -54.492188 21.269531 -49.308594 C 18.109375 -44.050781 14.839844 -38.570312 11.585938 -32.949219 C 8.269531 -27.253906 5.023438 -21.5625 1.785156 -15.804688 C -1.453125 -10.046875 -4.566406 -4.441406 -7.542969 1.144531 Z M 24.730469 -42.402344 L 38.3125 -63.753906 C 38.730469 -64.367188 39.242188 -64.785156 39.78125 -64.992188 C 40.328125 -65.128906 40.753906 -65.113281 41.207031 -64.886719 C 41.515625 -64.640625 41.847656 -64.261719 42.054688 -63.722656 C 42.261719 -63.183594 42.277344 -62.480469 42.171875 -61.621094 C 41.996094 -60.753906 41.5625 -59.710938 40.996094 -58.585938 C 40.4375 -57.386719 39.542969 -56.078125 38.378906 -54.664062 C 37.402344 -53.414062 36.214844 -52.210938 34.960938 -50.929688 C 33.640625 -49.636719 32.378906 -48.421875 31.109375 -47.28125 C 29.773438 -46.128906 28.5625 -45.0625 27.398438 -44.210938 C 26.234375 -43.363281 25.390625 -42.765625 24.730469 -42.402344 Z M 24.730469 -42.402344 "/></g></g></g><g fill="#5ce1e6" fill-opacity="1"><g transform="translate(166.66918, 190.408292)"><g><path d="M 4.75 -0.9375 C 6.46875 -0.726562 8.136719 -0.933594 9.820312 -1.566406 C 11.503906 -2.195312 13.164062 -3.035156 14.78125 -4.222656 C 16.335938 -5.332031 17.796875 -6.640625 19.238281 -8.085938 C 20.683594 -9.535156 22.039062 -11.113281 23.238281 -12.8125 C 24.378906 -14.433594 25.441406 -16.117188 26.433594 -17.789062 C 27.355469 -19.457031 28.15625 -20.964844 28.816406 -22.457031 C 26.050781 -18.589844 23.433594 -15.796875 21.105469 -14.101562 C 18.777344 -12.402344 16.761719 -11.589844 15.128906 -11.671875 C 13.4375 -11.671875 12.34375 -12.523438 11.703125 -14.28125 C 11.074219 -15.964844 11.128906 -18.367188 11.878906 -21.421875 C 12.070312 -22.152344 12.265625 -22.878906 12.457031 -23.609375 C 12.65625 -24.269531 12.925781 -24.9375 13.195312 -25.605469 C 13.089844 -24.179688 13.417969 -23.234375 14.113281 -22.757812 C 14.738281 -22.269531 15.613281 -22.023438 16.65625 -22.152344 L 16.472656 -21.917969 C 18.433594 -22.019531 20.3125 -22.816406 21.972656 -24.21875 C 23.640625 -25.554688 24.917969 -27.195312 25.953125 -29.085938 C 26.355469 -29.839844 26.71875 -30.871094 27.121094 -32.191406 C 27.523438 -33.507812 27.722656 -34.734375 27.707031 -36 C 27.703125 -37.199219 27.363281 -38.214844 26.835938 -39.066406 C 26.246094 -39.839844 25.214844 -40.203125 23.808594 -40.171875 C 21.4375 -39.949219 19.136719 -39.171875 17.035156 -37.925781 C 14.933594 -36.679688 12.933594 -35.164062 11.175781 -33.394531 C 9.359375 -31.546875 7.769531 -29.589844 6.332031 -27.507812 C 4.90625 -25.355469 3.808594 -23.386719 2.90625 -21.582031 C 1.597656 -19.023438 0.570312 -16.5 -0.109375 -14.019531 C -0.859375 -11.527344 -1.078125 -9.316406 -0.769531 -7.378906 C -0.496094 -5.15625 0.195312 -3.550781 1.167969 -2.542969 C 2.136719 -1.535156 3.324219 -1.046875 4.75 -0.9375 Z M 15.808594 -25.574219 C 14.90625 -25.464844 14.359375 -25.890625 14.1875 -26.714844 C 13.945312 -27.53125 14.375 -28.640625 15.382812 -30.175781 C 16.730469 -32.386719 18.15625 -33.972656 19.660156 -34.933594 C 21.101562 -35.820312 22.371094 -36.398438 23.394531 -36.667969 L 23.464844 -36.675781 C 24.992188 -36.863281 25.625 -36.308594 25.371094 -34.9375 C 25.179688 -34.207031 24.847656 -33.460938 24.386719 -32.628906 C 23.925781 -31.796875 23.324219 -30.945312 22.71875 -30.164062 C 21.5 -28.605469 20.230469 -27.460938 18.980469 -26.742188 C 17.667969 -25.945312 16.660156 -25.539062 15.808594 -25.574219 Z M 15.808594 -25.574219 "/></g></g></g><g fill="#00c4cc" fill-opacity="1"><g transform="translate(190.322088, 188.427117)"><g/></g></g><g fill="#00c4cc" fill-opacity="1"><g transform="translate(198.308151, 187.440771)"><g/></g></g><g fill="#00c4cc" fill-opacity="1"><g transform="translate(206.294214, 186.454425)"><g/></g></g><g fill="#00c4cc" fill-opacity="1"><g transform="translate(214.280276, 185.468078)"><g/></g></g><g fill="#00c4cc" fill-opacity="1"><g transform="translate(222.26634, 184.481732)"><g/></g></g><g fill="#00c4cc" fill-opacity="1"><g transform="translate(230.252404, 183.495386)"><g/></g></g><g fill="#00c4cc" fill-opacity="1"><g transform="translate(238.238465, 182.509039)"><g/></g></g><g fill="#00c4cc" fill-opacity="1"><g transform="translate(246.224529, 181.522693)"><g/></g></g><g fill="#00c4cc" fill-opacity="1"><g transform="translate(254.210592, 180.536347)"><g/></g></g><g fill="#00c4cc" fill-opacity="1"><g transform="translate(262.196656, 179.55)"><g/></g></g><g fill="#00c4cc" fill-opacity="1"><g transform="translate(270.18272, 178.563654)"><g/></g></g><g fill="#00c4cc" fill-opacity="1"><g transform="translate(278.168784, 177.577307)"><g/></g></g><g fill="#00c4cc" fill-opacity="1"><g transform="translate(286.154842, 176.590961)"><g/></g></g><g fill="#00c4cc" fill-opacity="1"><g transform="translate(294.140906, 175.604615)"><g/></g></g><g fill="#00c4cc" fill-opacity="1"><g transform="translate(302.12697, 174.618269)"><g/></g></g><g fill="#5ce1e6" fill-opacity="1"><g transform="translate(191.87832, 187.294749)"><g/></g></g><g fill="#5ce1e6" fill-opacity="1"><g transform="translate(199.864383, 186.308403)"><g/></g></g><g fill="#5ce1e6" fill-opacity="1"><g transform="translate(207.850446, 185.322057)"><g/></g></g><g fill="#5ce1e6" fill-opacity="1"><g transform="translate(215.836508, 184.33571)"><g/></g></g><g fill="#5ce1e6" fill-opacity="1"><g transform="translate(223.822572, 183.349364)"><g/></g></g><g fill="#5ce1e6" fill-opacity="1"><g transform="translate(231.808636, 182.363018)"><g/></g></g><g fill="#5ce1e6" fill-opacity="1"><g transform="translate(239.794697, 181.376671)"><g/></g></g><g fill="#5ce1e6" fill-opacity="1"><g transform="translate(247.780761, 180.390325)"><g/></g></g><g fill="#5ce1e6" fill-opacity="1"><g transform="translate(255.766824, 179.403979)"><g/></g></g><g fill="#5ce1e6" fill-opacity="1"><g transform="translate(263.752888, 178.417632)"><g/></g></g><g fill="#5ce1e6" fill-opacity="1"><g transform="translate(271.738952, 177.431286)"><g/></g></g><g fill="#5ce1e6" fill-opacity="1"><g transform="translate(279.725016, 176.444939)"><g/></g></g><g fill="#5ce1e6" fill-opacity="1"><g transform="translate(287.711074, 175.458593)"><g/></g></g><g fill="#5ce1e6" fill-opacity="1"><g transform="translate(295.697138, 174.472247)"><g/></g></g><g fill="#5ce1e6" fill-opacity="1"><g transform="translate(303.683202, 173.485901)"><g/></g></g><g fill="#ff914d" fill-opacity="1"><g transform="translate(154.656758, 243.698506)"><g><path d="M 18.1875 -2.316406 C 21.949219 -2.710938 25.1875 -3.886719 27.90625 -5.84375 C 30.558594 -7.792969 32.871094 -10.195312 34.765625 -13.109375 C 36.664062 -16.023438 38.167969 -19.242188 39.425781 -22.78125 C 40.679688 -26.320312 41.710938 -29.972656 42.660156 -33.6875 C 43.550781 -37.320312 44.375 -40.949219 45.140625 -44.429688 C 45.910156 -47.910156 46.714844 -51.109375 47.640625 -53.90625 C 48.5625 -56.699219 49.625 -58.945312 50.808594 -60.78125 C 52 -62.550781 53.496094 -63.582031 55.371094 -63.816406 C 56.410156 -63.941406 57.226562 -63.621094 57.808594 -62.917969 C 58.328125 -62.136719 58.648438 -61.257812 58.714844 -60.136719 C 58.714844 -59.007812 58.496094 -57.925781 57.9375 -56.726562 C 57.378906 -55.53125 56.589844 -54.515625 55.5625 -53.683594 C 56.976562 -53.648438 58.289062 -53.878906 59.488281 -54.449219 C 60.6875 -55.023438 61.800781 -55.722656 62.667969 -56.675781 C 63.546875 -57.5625 64.269531 -58.566406 64.824219 -59.765625 C 65.3125 -60.953125 65.59375 -62.117188 65.585938 -63.3125 C 65.578125 -64.511719 65.226562 -65.667969 64.652344 -66.863281 C 64.023438 -67.984375 63.050781 -68.996094 61.671875 -69.882812 C 60.386719 -70.570312 58.9375 -70.882812 57.324219 -70.824219 C 55.710938 -70.765625 54.078125 -70.285156 52.410156 -69.511719 C 50.679688 -68.664062 49.066406 -67.476562 47.484375 -66.011719 C 45.832031 -64.539062 44.429688 -62.746094 43.273438 -60.699219 C 41.882812 -58.269531 40.59375 -55.574219 39.554688 -52.554688 C 38.519531 -49.535156 37.488281 -46.445312 36.46875 -43.289062 C 35.449219 -40.128906 34.417969 -37.039062 33.375 -34.089844 C 32.328125 -31.140625 31.039062 -28.441406 29.558594 -26.144531 C 28.082031 -23.847656 26.34375 -21.941406 24.394531 -20.570312 C 22.378906 -19.195312 19.992188 -18.546875 17.230469 -18.628906 C 15.460938 -18.691406 14.125 -19.230469 13.15625 -20.242188 C 12.183594 -21.25 11.457031 -22.570312 11.121094 -24.148438 C 10.722656 -25.652344 10.585938 -27.328125 10.710938 -29.175781 C 10.773438 -30.945312 11.0625 -32.605469 11.5 -34.210938 C 11.945312 -35.746094 12.554688 -37.089844 13.265625 -38.164062 C 13.980469 -39.242188 14.746094 -39.898438 15.570312 -40.070312 C 13.558594 -40.953125 11.675781 -41.351562 9.929688 -41.207031 C 8.117188 -41.054688 6.492188 -40.5 5.050781 -39.617188 C 3.539062 -38.726562 2.207031 -37.503906 1.128906 -35.960938 C -0.0195312 -34.410156 -0.933594 -32.675781 -1.542969 -30.765625 C -2.222656 -28.847656 -2.675781 -26.816406 -2.835938 -24.683594 C -3.066406 -22.539062 -2.949219 -20.4375 -2.550781 -18.371094 C -2.035156 -15.332031 -1.082031 -12.769531 0.234375 -10.675781 C 1.488281 -8.503906 3.117188 -6.730469 4.972656 -5.410156 C 6.828125 -4.085938 8.851562 -3.136719 11.097656 -2.640625 C 13.351562 -2.074219 15.6875 -2.007812 18.1875 -2.316406 Z M 18.1875 -2.316406 "/></g></g></g><g fill="#ff914d" fill-opacity="1"><g transform="translate(202.715399, 237.762857)"><g><path d="M 14.40625 -2.695312 C 14.714844 -2.453125 15.308594 -2.242188 16.019531 -2.191406 C 16.730469 -2.136719 17.503906 -2.160156 18.328125 -2.335938 C 19.160156 -2.4375 20.046875 -2.6875 20.925781 -3.007812 C 21.800781 -3.328125 22.589844 -3.777344 23.375 -4.296875 C 24.800781 -5.320312 26.058594 -6.53125 27.148438 -8.007812 C 28.242188 -9.410156 29.171875 -11.007812 30.019531 -12.734375 C 30.410156 -13.558594 30.800781 -14.382812 31.195312 -15.207031 C 31.59375 -15.960938 31.984375 -16.785156 32.445312 -17.617188 C 32.082031 -17.148438 31.585938 -16.59375 30.953125 -16.023438 C 30.316406 -15.449219 29.675781 -14.949219 29.023438 -14.515625 C 28.308594 -14.003906 27.65625 -13.570312 26.988281 -13.277344 C 26.328125 -12.914062 25.710938 -12.765625 25.277344 -12.851562 C 24.851562 -12.871094 24.679688 -13.132812 24.75 -13.703125 C 24.761719 -14.199219 25.074219 -15.085938 25.761719 -16.367188 L 39.191406 -41.789062 L 29.398438 -40.582031 L 19.6875 -22.738281 C 19.285156 -21.984375 18.9375 -21.378906 18.648438 -20.847656 C 18.371094 -20.25 18.144531 -19.800781 17.917969 -19.347656 C 17.632812 -18.820312 17.40625 -18.367188 17.171875 -17.988281 C 16.945312 -17.535156 16.640625 -17.144531 16.40625 -16.761719 C 15.804688 -15.914062 15.195312 -15.132812 14.4375 -14.40625 C 13.691406 -13.609375 12.664062 -12.777344 11.441406 -11.847656 C 10.015625 -10.828125 9 -10.488281 8.382812 -10.90625 C 7.707031 -11.246094 7.707031 -12.375 8.335938 -14.144531 C 8.746094 -15.394531 9.410156 -16.886719 10.320312 -18.621094 C 11.167969 -20.347656 12.011719 -22.074219 12.925781 -23.808594 C 13.777344 -25.464844 14.5 -27.035156 15.164062 -28.527344 C 15.824219 -30.019531 16.183594 -31.121094 16.21875 -31.972656 C 16.253906 -33.386719 16.046875 -34.488281 15.652344 -35.425781 C 15.253906 -36.367188 14.671875 -37.070312 13.976562 -37.546875 C 13.136719 -38.078125 12.191406 -38.3125 11.203125 -38.332031 C 10.210938 -38.351562 9.1875 -38.085938 8.179688 -37.679688 C 8.734375 -37.183594 9.140625 -36.738281 9.332031 -36.339844 C 9.53125 -35.871094 9.523438 -35.375 9.441406 -34.871094 C 9.304688 -34.289062 9.035156 -33.621094 8.695312 -32.945312 C 8.292969 -32.191406 7.824219 -31.429688 7.371094 -30.527344 L 7.386719 -30.386719 L -2.855469 -12.832031 C -3.21875 -12.367188 -3.5 -11.765625 -3.835938 -11.089844 C -4.175781 -10.414062 -4.507812 -9.667969 -4.769531 -8.929688 C -5.425781 -6.804688 -5.425781 -5.113281 -4.847656 -3.84375 C -4.257812 -2.507812 -3.304688 -1.636719 -2.039062 -1.089844 C -0.839844 -0.53125 0.519531 -0.347656 2.050781 -0.535156 C 3.578125 -0.722656 4.914062 -1.3125 6.0625 -2.300781 C 7.148438 -3.210938 8.402344 -4.492188 9.878906 -6.226562 C 11.367188 -7.890625 12.703125 -9.609375 14.027344 -11.464844 C 13.539062 -10.273438 13.191406 -9.105469 13.039062 -8.027344 C 12.769531 -6.796875 12.761719 -5.734375 12.941406 -4.84375 C 13.128906 -3.878906 13.640625 -3.164062 14.40625 -2.695312 Z M 14.40625 -2.695312 "/></g></g></g><g fill="#ff914d" fill-opacity="1"><g transform="translate(232.300375, 234.108863)"><g><path d="M 7.851562 -26.636719 L -5.929688 0.519531 L 3.65625 -0.664062 L 14.863281 -24.683594 C 15.644531 -26.332031 16.785156 -27.953125 18.203125 -29.609375 C 18.578125 -30.007812 19.070312 -30.5625 19.757812 -31.28125 C 20.453125 -31.929688 21.210938 -32.660156 22.113281 -33.335938 C 22.949219 -34 23.800781 -34.53125 24.652344 -35.058594 C 25.503906 -35.585938 26.3125 -35.898438 27.144531 -36 C 27.917969 -36.027344 28.585938 -35.753906 29.070312 -35.25 C 29.5625 -34.679688 29.890625 -33.730469 30.0625 -32.34375 C 30.148438 -31.648438 29.941406 -31.058594 29.523438 -30.441406 C 29.105469 -29.828125 28.59375 -29.410156 27.933594 -29.046875 C 27.273438 -28.683594 26.535156 -28.378906 25.699219 -28.277344 C 24.867188 -28.175781 24.078125 -28.289062 23.332031 -28.621094 C 23.050781 -27.457031 22.953125 -26.527344 23.039062 -25.832031 C 23.125 -25.140625 23.414062 -24.539062 23.8125 -24.164062 C 24.148438 -23.714844 24.609375 -23.417969 25.121094 -23.269531 C 25.632812 -23.121094 26.136719 -23.042969 26.691406 -23.109375 C 27.957031 -23.125 29.042969 -23.472656 30.070312 -24.304688 C 31.027344 -25.128906 31.816406 -26.140625 32.503906 -27.425781 C 33.132812 -28.632812 33.601562 -29.957031 33.847656 -31.398438 C 34.09375 -32.839844 34.136719 -34.183594 33.976562 -35.503906 C 33.75 -36.746094 33.328125 -37.894531 32.710938 -38.875 C 32.027344 -39.847656 31.101562 -40.507812 29.9375 -40.789062 C 28.785156 -41 27.535156 -40.84375 26.324219 -40.34375 C 25.128906 -39.769531 23.9375 -39.128906 22.84375 -38.289062 C 21.6875 -37.371094 20.609375 -36.390625 19.601562 -35.421875 C 18.601562 -34.382812 17.792969 -33.507812 17.105469 -32.785156 C 17.253906 -34.425781 17.082031 -35.816406 16.660156 -36.960938 C 16.246094 -38.039062 15.457031 -38.71875 14.371094 -38.9375 C 13.511719 -39.042969 12.480469 -38.84375 11.269531 -38.34375 C 10.0625 -37.839844 8.621094 -36.957031 7.015625 -35.699219 C 7.679688 -34.867188 8.121094 -34.144531 8.488281 -33.484375 C 8.851562 -32.824219 9.003906 -32.140625 9.089844 -31.445312 C 9.109375 -30.742188 8.992188 -29.953125 8.800781 -29.222656 C 8.546875 -28.414062 8.234375 -27.53125 7.851562 -26.636719 Z M 6.9375 -35.761719 L 6.824219 -35.535156 L 7.015625 -35.699219 Z M 6.9375 -35.761719 "/></g></g></g><g fill="#ff914d" fill-opacity="1"><g transform="translate(262.649301, 230.360513)"><g><path d="M -10.285156 33.777344 C -8.964844 33.613281 -7.566406 32.949219 -6.15625 31.785156 C -4.75 30.625 -3.394531 29.046875 -2.011719 27.113281 C -0.6875 25.257812 0.539062 23.203125 1.792969 20.792969 C 2.984375 18.457031 4.089844 15.996094 5.117188 13.472656 C 6.078125 10.953125 6.964844 8.449219 7.714844 5.957031 C 8.398438 3.476562 8.949219 1.082031 9.246094 -1.070312 L 9.105469 -1.054688 C 9.511719 -4.066406 9.507812 -6.957031 9.15625 -9.804688 C 8.8125 -12.582031 7.859375 -15.144531 6.386719 -17.359375 L 6.953125 -18.488281 C 9.453125 -17.667969 11.527344 -17.429688 13.316406 -17.792969 C 15.113281 -18.085938 16.582031 -18.761719 17.859375 -19.835938 C 19.074219 -20.832031 20.039062 -22.148438 20.683594 -23.78125 C 21.332031 -25.410156 21.75 -27.15625 22.003906 -29.089844 C 20.707031 -27.589844 19.515625 -26.386719 18.421875 -25.546875 C 17.257812 -24.695312 16.207031 -24.074219 15.269531 -23.675781 C 14.261719 -23.269531 13.296875 -23.078125 12.445312 -23.113281 C 11.527344 -23.140625 10.660156 -23.316406 9.765625 -23.699219 L 21.882812 -47.199219 C 21.03125 -47.234375 20.417969 -47.652344 20.054688 -48.3125 C 19.691406 -48.972656 19.316406 -49.703125 19.066406 -50.585938 C 18.753906 -51.394531 18.445312 -52.203125 18.0625 -53 C 17.683594 -53.800781 17.1875 -54.375 16.441406 -54.707031 C 15.808594 -53.570312 15.234375 -52.511719 14.710938 -51.601562 C 14.195312 -50.621094 13.746094 -49.71875 13.34375 -48.964844 C 12.421875 -47.296875 11.683594 -45.867188 11.003906 -44.515625 C 10.324219 -43.160156 9.695312 -41.957031 9.132812 -40.828125 C 8.78125 -40.21875 8.511719 -39.550781 8.164062 -38.945312 C 7.816406 -38.339844 7.546875 -37.671875 7.199219 -37.0625 C 6.867188 -36.316406 6.457031 -35.632812 6.128906 -34.886719 C 5.726562 -34.132812 5.328125 -33.375 4.925781 -32.621094 C 4.472656 -31.71875 4.019531 -30.816406 3.566406 -29.914062 C 3.054688 -28.9375 2.480469 -27.878906 1.90625 -26.820312 C 1.089844 -27.707031 0.355469 -27.96875 -0.394531 -27.734375 C -1.199219 -27.421875 -1.765625 -26.859375 -2.167969 -26.105469 C -2.628906 -25.273438 -2.734375 -24.414062 -2.621094 -23.511719 C -2.5 -22.539062 -1.929688 -21.902344 -0.886719 -21.46875 C -2.613281 -18.292969 -4.363281 -14.761719 -6 -10.894531 C -7.636719 -7.023438 -9.195312 -3.09375 -10.679688 0.894531 C -12.152344 4.957031 -13.425781 8.921875 -14.367188 12.703125 C -15.300781 16.558594 -15.863281 20.011719 -15.980469 23.058594 C -16.15625 26.183594 -15.78125 28.675781 -14.90625 30.609375 C -14.03125 32.546875 -12.488281 33.625 -10.285156 33.777344 Z M -4.554688 21.363281 C -4.96875 21.414062 -5.238281 20.957031 -5.429688 19.992188 C -5.550781 19.582031 -5.609375 19.097656 -5.609375 18.53125 C -5.609375 17.96875 -5.605469 17.40625 -5.554688 16.691406 C -5.507812 15.347656 -5.339844 13.847656 -5.050781 12.1875 C -4.761719 10.53125 -4.414062 8.796875 -3.925781 7.042969 C -3.507812 5.296875 -3.007812 3.617188 -2.503906 2 C -1.996094 0.386719 -1.464844 -1.019531 -0.90625 -2.214844 L 5.03125 -14.652344 C 5.6875 -13.890625 6.164062 -12.890625 6.511719 -11.804688 C 6.847656 -10.789062 7.078125 -9.476562 7.269531 -7.949219 C 7.386719 -6.414062 7.339844 -4.503906 7.042969 -2.351562 C 6.921875 -1.628906 6.695312 -0.613281 6.371094 0.765625 C 5.976562 2.152344 5.53125 3.6875 4.964844 5.378906 C 4.347656 7.21875 3.660156 9.066406 2.910156 10.992188 C 2.160156 12.917969 1.394531 14.707031 0.59375 16.214844 C -0.269531 17.804688 -1.164062 19.113281 -2.035156 20.066406 C -2.902344 21.019531 -3.765625 21.476562 -4.554688 21.363281 Z M -4.554688 21.363281 "/></g></g></g><g fill="#ffde59" fill-opacity="1"><g transform="translate(156.212985, 242.566138)"><g><path d="M 18.1875 -2.316406 C 21.949219 -2.710938 25.1875 -3.886719 27.90625 -5.84375 C 30.558594 -7.792969 32.871094 -10.195312 34.765625 -13.109375 C 36.664062 -16.023438 38.167969 -19.242188 39.425781 -22.78125 C 40.679688 -26.320312 41.710938 -29.972656 42.660156 -33.6875 C 43.550781 -37.320312 44.375 -40.949219 45.140625 -44.429688 C 45.910156 -47.910156 46.714844 -51.109375 47.640625 -53.90625 C 48.5625 -56.699219 49.625 -58.945312 50.808594 -60.78125 C 52 -62.550781 53.496094 -63.582031 55.371094 -63.816406 C 56.410156 -63.941406 57.226562 -63.621094 57.808594 -62.917969 C 58.328125 -62.136719 58.648438 -61.257812 58.714844 -60.136719 C 58.714844 -59.007812 58.496094 -57.925781 57.9375 -56.726562 C 57.378906 -55.53125 56.589844 -54.515625 55.5625 -53.683594 C 56.976562 -53.648438 58.289062 -53.878906 59.488281 -54.449219 C 60.6875 -55.023438 61.800781 -55.722656 62.667969 -56.675781 C 63.546875 -57.5625 64.269531 -58.566406 64.824219 -59.765625 C 65.3125 -60.953125 65.59375 -62.117188 65.585938 -63.3125 C 65.578125 -64.511719 65.226562 -65.667969 64.652344 -66.863281 C 64.023438 -67.984375 63.050781 -68.996094 61.671875 -69.882812 C 60.386719 -70.570312 58.9375 -70.882812 57.324219 -70.824219 C 55.710938 -70.765625 54.078125 -70.285156 52.410156 -69.511719 C 50.679688 -68.664062 49.066406 -67.476562 47.484375 -66.011719 C 45.832031 -64.539062 44.429688 -62.746094 43.273438 -60.699219 C 41.882812 -58.269531 40.59375 -55.574219 39.554688 -52.554688 C 38.519531 -49.535156 37.488281 -46.445312 36.46875 -43.289062 C 35.449219 -40.128906 34.417969 -37.039062 33.375 -34.089844 C 32.328125 -31.140625 31.039062 -28.441406 29.558594 -26.144531 C 28.082031 -23.847656 26.34375 -21.941406 24.394531 -20.570312 C 22.378906 -19.195312 19.992188 -18.546875 17.230469 -18.628906 C 15.460938 -18.691406 14.125 -19.230469 13.15625 -20.242188 C 12.183594 -21.25 11.457031 -22.570312 11.121094 -24.148438 C 10.722656 -25.652344 10.585938 -27.328125 10.710938 -29.175781 C 10.773438 -30.945312 11.0625 -32.605469 11.5 -34.210938 C 11.945312 -35.746094 12.554688 -37.089844 13.265625 -38.164062 C 13.980469 -39.242188 14.746094 -39.898438 15.570312 -40.070312 C 13.558594 -40.953125 11.675781 -41.351562 9.929688 -41.207031 C 8.117188 -41.054688 6.492188 -40.5 5.050781 -39.617188 C 3.539062 -38.726562 2.207031 -37.503906 1.128906 -35.960938 C -0.0195312 -34.410156 -0.933594 -32.675781 -1.542969 -30.765625 C -2.222656 -28.847656 -2.675781 -26.816406 -2.835938 -24.683594 C -3.066406 -22.539062 -2.949219 -20.4375 -2.550781 -18.371094 C -2.035156 -15.332031 -1.082031 -12.769531 0.234375 -10.675781 C 1.488281 -8.503906 3.117188 -6.730469 4.972656 -5.410156 C 6.828125 -4.085938 8.851562 -3.136719 11.097656 -2.640625 C 13.351562 -2.074219 15.6875 -2.007812 18.1875 -2.316406 Z M 18.1875 -2.316406 "/></g></g></g><g fill="#ffde59" fill-opacity="1"><g transform="translate(204.271626, 236.630489)"><g><path d="M 14.40625 -2.695312 C 14.714844 -2.453125 15.308594 -2.242188 16.019531 -2.191406 C 16.730469 -2.136719 17.503906 -2.160156 18.328125 -2.335938 C 19.160156 -2.4375 20.046875 -2.6875 20.925781 -3.007812 C 21.800781 -3.328125 22.589844 -3.777344 23.375 -4.296875 C 24.800781 -5.320312 26.058594 -6.53125 27.148438 -8.007812 C 28.242188 -9.410156 29.171875 -11.007812 30.019531 -12.734375 C 30.410156 -13.558594 30.800781 -14.382812 31.195312 -15.207031 C 31.59375 -15.960938 31.984375 -16.785156 32.445312 -17.617188 C 32.082031 -17.148438 31.585938 -16.59375 30.953125 -16.023438 C 30.316406 -15.449219 29.675781 -14.949219 29.023438 -14.515625 C 28.308594 -14.003906 27.65625 -13.570312 26.988281 -13.277344 C 26.328125 -12.914062 25.710938 -12.765625 25.277344 -12.851562 C 24.851562 -12.871094 24.679688 -13.132812 24.75 -13.703125 C 24.761719 -14.199219 25.074219 -15.085938 25.761719 -16.367188 L 39.191406 -41.789062 L 29.398438 -40.582031 L 19.6875 -22.738281 C 19.285156 -21.984375 18.9375 -21.378906 18.648438 -20.847656 C 18.371094 -20.25 18.144531 -19.800781 17.917969 -19.347656 C 17.632812 -18.820312 17.40625 -18.367188 17.171875 -17.988281 C 16.945312 -17.535156 16.640625 -17.144531 16.40625 -16.761719 C 15.804688 -15.914062 15.195312 -15.132812 14.4375 -14.40625 C 13.691406 -13.609375 12.664062 -12.777344 11.441406 -11.847656 C 10.015625 -10.828125 9 -10.488281 8.382812 -10.90625 C 7.707031 -11.246094 7.707031 -12.375 8.335938 -14.144531 C 8.746094 -15.394531 9.410156 -16.886719 10.320312 -18.621094 C 11.167969 -20.347656 12.011719 -22.074219 12.925781 -23.808594 C 13.777344 -25.464844 14.5 -27.035156 15.164062 -28.527344 C 15.824219 -30.019531 16.183594 -31.121094 16.21875 -31.972656 C 16.253906 -33.386719 16.046875 -34.488281 15.652344 -35.425781 C 15.253906 -36.367188 14.671875 -37.070312 13.976562 -37.546875 C 13.136719 -38.078125 12.191406 -38.3125 11.203125 -38.332031 C 10.210938 -38.351562 9.1875 -38.085938 8.179688 -37.679688 C 8.734375 -37.183594 9.140625 -36.738281 9.332031 -36.339844 C 9.53125 -35.871094 9.523438 -35.375 9.441406 -34.871094 C 9.304688 -34.289062 9.035156 -33.621094 8.695312 -32.945312 C 8.292969 -32.191406 7.824219 -31.429688 7.371094 -30.527344 L 7.386719 -30.386719 L -2.855469 -12.832031 C -3.21875 -12.367188 -3.5 -11.765625 -3.835938 -11.089844 C -4.175781 -10.414062 -4.507812 -9.667969 -4.769531 -8.929688 C -5.425781 -6.804688 -5.425781 -5.113281 -4.847656 -3.84375 C -4.257812 -2.507812 -3.304688 -1.636719 -2.039062 -1.089844 C -0.839844 -0.53125 0.519531 -0.347656 2.050781 -0.535156 C 3.578125 -0.722656 4.914062 -1.3125 6.0625 -2.300781 C 7.148438 -3.210938 8.402344 -4.492188 9.878906 -6.226562 C 11.367188 -7.890625 12.703125 -9.609375 14.027344 -11.464844 C 13.539062 -10.273438 13.191406 -9.105469 13.039062 -8.027344 C 12.769531 -6.796875 12.761719 -5.734375 12.941406 -4.84375 C 13.128906 -3.878906 13.640625 -3.164062 14.40625 -2.695312 Z M 14.40625 -2.695312 "/></g></g></g><g fill="#ffde59" fill-opacity="1"><g transform="translate(233.856602, 232.976495)"><g><path d="M 7.851562 -26.636719 L -5.929688 0.519531 L 3.65625 -0.664062 L 14.863281 -24.683594 C 15.644531 -26.332031 16.785156 -27.953125 18.203125 -29.609375 C 18.578125 -30.007812 19.070312 -30.5625 19.757812 -31.28125 C 20.453125 -31.929688 21.210938 -32.660156 22.113281 -33.335938 C 22.949219 -34 23.800781 -34.53125 24.652344 -35.058594 C 25.503906 -35.585938 26.3125 -35.898438 27.144531 -36 C 27.917969 -36.027344 28.585938 -35.753906 29.070312 -35.25 C 29.5625 -34.679688 29.890625 -33.730469 30.0625 -32.34375 C 30.148438 -31.648438 29.941406 -31.058594 29.523438 -30.441406 C 29.105469 -29.828125 28.59375 -29.410156 27.933594 -29.046875 C 27.273438 -28.683594 26.535156 -28.378906 25.699219 -28.277344 C 24.867188 -28.175781 24.078125 -28.289062 23.332031 -28.621094 C 23.050781 -27.457031 22.953125 -26.527344 23.039062 -25.832031 C 23.125 -25.140625 23.414062 -24.539062 23.8125 -24.164062 C 24.148438 -23.714844 24.609375 -23.417969 25.121094 -23.269531 C 25.632812 -23.121094 26.136719 -23.042969 26.691406 -23.109375 C 27.957031 -23.125 29.042969 -23.472656 30.070312 -24.304688 C 31.027344 -25.128906 31.816406 -26.140625 32.503906 -27.425781 C 33.132812 -28.632812 33.601562 -29.957031 33.847656 -31.398438 C 34.09375 -32.839844 34.136719 -34.183594 33.976562 -35.503906 C 33.75 -36.746094 33.328125 -37.894531 32.710938 -38.875 C 32.027344 -39.847656 31.101562 -40.507812 29.9375 -40.789062 C 28.785156 -41 27.535156 -40.84375 26.324219 -40.34375 C 25.128906 -39.769531 23.9375 -39.128906 22.84375 -38.289062 C 21.6875 -37.371094 20.609375 -36.390625 19.601562 -35.421875 C 18.601562 -34.382812 17.792969 -33.507812 17.105469 -32.785156 C 17.253906 -34.425781 17.082031 -35.816406 16.660156 -36.960938 C 16.246094 -38.039062 15.457031 -38.71875 14.371094 -38.9375 C 13.511719 -39.042969 12.480469 -38.84375 11.269531 -38.34375 C 10.0625 -37.839844 8.621094 -36.957031 7.015625 -35.699219 C 7.679688 -34.867188 8.121094 -34.144531 8.488281 -33.484375 C 8.851562 -32.824219 9.003906 -32.140625 9.089844 -31.445312 C 9.109375 -30.742188 8.992188 -29.953125 8.800781 -29.222656 C 8.546875 -28.414062 8.234375 -27.53125 7.851562 -26.636719 Z M 6.9375 -35.761719 L 6.824219 -35.535156 L 7.015625 -35.699219 Z M 6.9375 -35.761719 "/></g></g></g><g fill="#ffde59" fill-opacity="1"><g transform="translate(264.205528, 229.228145)"><g><path d="M -10.285156 33.777344 C -8.964844 33.613281 -7.566406 32.949219 -6.15625 31.785156 C -4.75 30.625 -3.394531 29.046875 -2.011719 27.113281 C -0.6875 25.257812 0.539062 23.203125 1.792969 20.792969 C 2.984375 18.457031 4.089844 15.996094 5.117188 13.472656 C 6.078125 10.953125 6.964844 8.449219 7.714844 5.957031 C 8.398438 3.476562 8.949219 1.082031 9.246094 -1.070312 L 9.105469 -1.054688 C 9.511719 -4.066406 9.507812 -6.957031 9.15625 -9.804688 C 8.8125 -12.582031 7.859375 -15.144531 6.386719 -17.359375 L 6.953125 -18.488281 C 9.453125 -17.667969 11.527344 -17.429688 13.316406 -17.792969 C 15.113281 -18.085938 16.582031 -18.761719 17.859375 -19.835938 C 19.074219 -20.832031 20.039062 -22.148438 20.683594 -23.78125 C 21.332031 -25.410156 21.75 -27.15625 22.003906 -29.089844 C 20.707031 -27.589844 19.515625 -26.386719 18.421875 -25.546875 C 17.257812 -24.695312 16.207031 -24.074219 15.269531 -23.675781 C 14.261719 -23.269531 13.296875 -23.078125 12.445312 -23.113281 C 11.527344 -23.140625 10.660156 -23.316406 9.765625 -23.699219 L 21.882812 -47.199219 C 21.03125 -47.234375 20.417969 -47.652344 20.054688 -48.3125 C 19.691406 -48.972656 19.316406 -49.703125 19.066406 -50.585938 C 18.753906 -51.394531 18.445312 -52.203125 18.0625 -53 C 17.683594 -53.800781 17.1875 -54.375 16.441406 -54.707031 C 15.808594 -53.570312 15.234375 -52.511719 14.710938 -51.601562 C 14.195312 -50.621094 13.746094 -49.71875 13.34375 -48.964844 C 12.421875 -47.296875 11.683594 -45.867188 11.003906 -44.515625 C 10.324219 -43.160156 9.695312 -41.957031 9.132812 -40.828125 C 8.78125 -40.21875 8.511719 -39.550781 8.164062 -38.945312 C 7.816406 -38.339844 7.546875 -37.671875 7.199219 -37.0625 C 6.867188 -36.316406 6.457031 -35.632812 6.128906 -34.886719 C 5.726562 -34.132812 5.328125 -33.375 4.925781 -32.621094 C 4.472656 -31.71875 4.019531 -30.816406 3.566406 -29.914062 C 3.054688 -28.9375 2.480469 -27.878906 1.90625 -26.820312 C 1.089844 -27.707031 0.355469 -27.96875 -0.394531 -27.734375 C -1.199219 -27.421875 -1.765625 -26.859375 -2.167969 -26.105469 C -2.628906 -25.273438 -2.734375 -24.414062 -2.621094 -23.511719 C -2.5 -22.539062 -1.929688 -21.902344 -0.886719 -21.46875 C -2.613281 -18.292969 -4.363281 -14.761719 -6 -10.894531 C -7.636719 -7.023438 -9.195312 -3.09375 -10.679688 0.894531 C -12.152344 4.957031 -13.425781 8.921875 -14.367188 12.703125 C -15.300781 16.558594 -15.863281 20.011719 -15.980469 23.058594 C -16.15625 26.183594 -15.78125 28.675781 -14.90625 30.609375 C -14.03125 32.546875 -12.488281 33.625 -10.285156 33.777344 Z M -4.554688 21.363281 C -4.96875 21.414062 -5.238281 20.957031 -5.429688 19.992188 C -5.550781 19.582031 -5.609375 19.097656 -5.609375 18.53125 C -5.609375 17.96875 -5.605469 17.40625 -5.554688 16.691406 C -5.507812 15.347656 -5.339844 13.847656 -5.050781 12.1875 C -4.761719 10.53125 -4.414062 8.796875 -3.925781 7.042969 C -3.507812 5.296875 -3.007812 3.617188 -2.503906 2 C -1.996094 0.386719 -1.464844 -1.019531 -0.90625 -2.214844 L 5.03125 -14.652344 C 5.6875 -13.890625 6.164062 -12.890625 6.511719 -11.804688 C 6.847656 -10.789062 7.078125 -9.476562 7.269531 -7.949219 C 7.386719 -6.414062 7.339844 -4.503906 7.042969 -2.351562 C 6.921875 -1.628906 6.695312 -0.613281 6.371094 0.765625 C 5.976562 2.152344 5.53125 3.6875 4.964844 5.378906 C 4.347656 7.21875 3.660156 9.066406 2.910156 10.992188 C 2.160156 12.917969 1.394531 14.707031 0.59375 16.214844 C -0.269531 17.804688 -1.164062 19.113281 -2.035156 20.066406 C -2.902344 21.019531 -3.765625 21.476562 -4.554688 21.363281 Z M -4.554688 21.363281 "/></g></g></g></svg>