<svg xmlns="http://www.w3.org/2000/svg" xmlns:xlink="http://www.w3.org/1999/xlink" width="500" zoomAndPan="magnify" viewBox="0 0 375 374.999991" height="500" preserveAspectRatio="xMidYMid meet" version="1.0"><defs><clipPath id="id1"><path d="M 12 93 L 368.960938 93 L 368.960938 315.140625 L 12 315.140625 Z M 12 93 " clip-rule="nonzero"/></clipPath></defs><path fill="#ffffff" d="M 192.660156 128.679688 C 192.652344 128.714844 192.644531 128.75 192.636719 128.785156 C 192.636719 128.769531 192.644531 128.765625 192.644531 128.75 C 192.652344 128.730469 192.652344 128.707031 192.660156 128.679688 Z M 13.894531 287.765625 C 14.179688 288.394531 14.515625 289.058594 14.941406 289.792969 C 15.140625 290.140625 15.355469 290.484375 15.578125 290.824219 C 15.839844 291.222656 16.0625 291.546875 16.289062 291.867188 L 16.367188 291.972656 C 16.625 292.320312 16.851562 292.613281 17.085938 292.914062 L 17.230469 293.085938 C 28.515625 306.785156 58.011719 314.03125 102.515625 314.03125 C 132.835938 314.03125 169.3125 310.714844 210.941406 304.175781 C 305.878906 289.269531 354.394531 263.378906 367 255.800781 C 367.234375 255.660156 367.25 255.445312 367.230469 255.324219 C 367.214844 255.222656 367.15625 254.996094 366.871094 254.917969 L 333.953125 245.777344 C 333.5 245.648438 333.027344 245.585938 332.558594 245.585938 C 326.535156 245.664062 294.890625 246.121094 255.605469 247.644531 C 255.484375 247.273438 255.371094 246.910156 255.261719 246.535156 C 255.128906 246.042969 255.007812 245.542969 254.898438 245.027344 C 254.878906 244.945312 254.863281 244.859375 254.84375 244.78125 C 254.734375 244.289062 254.636719 243.789062 254.542969 243.28125 C 254.101562 240.894531 254.179688 233.582031 254.265625 225.117188 C 254.402344 212.15625 254.566406 196.03125 252.925781 189.644531 C 252.882812 189.472656 252.8125 189.273438 252.71875 189.039062 C 252.664062 188.894531 252.578125 188.726562 252.5 188.5625 C 252.449219 188.460938 252.414062 188.375 252.363281 188.261719 C 252.277344 188.089844 252.171875 187.882812 252.066406 187.691406 C 252 187.5625 251.945312 187.457031 251.871094 187.320312 C 251.773438 187.144531 251.660156 186.949219 251.550781 186.757812 C 251.453125 186.578125 251.359375 186.414062 251.253906 186.230469 C 251.183594 186.117188 251.101562 185.980469 251.03125 185.859375 C 250.859375 185.582031 250.699219 185.304688 250.511719 184.996094 C 250.503906 184.984375 250.496094 184.96875 250.484375 184.953125 C 250.226562 184.535156 249.949219 184.097656 249.65625 183.640625 C 249.59375 183.542969 249.523438 183.4375 249.457031 183.335938 C 248.910156 182.480469 248.320312 181.574219 247.671875 180.613281 C 247.554688 180.449219 247.4375 180.269531 247.320312 180.097656 C 247.066406 179.722656 246.816406 179.34375 246.546875 178.953125 C 246.507812 178.894531 246.46875 178.835938 246.429688 178.78125 C 246.082031 178.265625 245.726562 177.746094 245.355469 177.210938 C 245.269531 177.082031 245.179688 176.957031 245.09375 176.828125 C 244.765625 176.355469 244.445312 175.886719 244.109375 175.410156 C 243.980469 175.230469 243.851562 175.046875 243.726562 174.867188 C 243.417969 174.433594 243.113281 173.996094 242.804688 173.554688 C 242.671875 173.363281 242.527344 173.164062 242.394531 172.96875 C 242.078125 172.527344 241.773438 172.09375 241.460938 171.652344 C 241.347656 171.488281 241.226562 171.316406 241.105469 171.152344 C 240.761719 170.675781 240.421875 170.199219 240.078125 169.710938 C 240 169.605469 239.921875 169.5 239.84375 169.390625 C 239.457031 168.851562 239.066406 168.308594 238.675781 167.765625 C 238.53125 167.574219 238.398438 167.382812 238.253906 167.1875 C 237.921875 166.726562 237.59375 166.269531 237.257812 165.804688 C 237.121094 165.621094 236.988281 165.433594 236.851562 165.25 C 236.515625 164.785156 236.175781 164.316406 235.839844 163.851562 C 235.542969 163.445312 235.25 163.039062 234.949219 162.632812 C 234.78125 162.398438 234.609375 162.164062 234.4375 161.929688 C 234.167969 161.558594 233.898438 161.195312 233.625 160.824219 C 233.425781 160.550781 233.21875 160.273438 233.019531 160.003906 C 232.8125 159.726562 232.613281 159.453125 232.414062 159.183594 C 232.160156 158.832031 231.902344 158.484375 231.644531 158.136719 C 231.46875 157.898438 231.296875 157.664062 231.125 157.4375 C 230.847656 157.058594 230.5625 156.675781 230.292969 156.308594 C 230.085938 156.03125 229.894531 155.769531 229.6875 155.496094 C 229.460938 155.191406 229.230469 154.882812 229.011719 154.585938 C 228.734375 154.214844 228.46875 153.859375 228.207031 153.5 C 228.054688 153.300781 227.898438 153.09375 227.757812 152.894531 C 227.464844 152.503906 227.1875 152.132812 226.910156 151.761719 C 226.804688 151.613281 226.683594 151.460938 226.574219 151.320312 C 226.226562 150.847656 225.882812 150.394531 225.550781 149.953125 C 225.519531 149.914062 225.492188 149.871094 225.464844 149.832031 C 225.179688 149.453125 224.910156 149.097656 224.644531 148.738281 C 224.574219 148.640625 224.496094 148.539062 224.425781 148.441406 C 224.210938 148.15625 224.019531 147.898438 223.820312 147.628906 C 223.703125 147.476562 223.582031 147.320312 223.476562 147.179688 C 222.886719 146.402344 222.367188 145.703125 221.917969 145.117188 C 221.910156 145.109375 221.910156 145.105469 221.902344 145.105469 C 221.769531 144.925781 221.652344 144.777344 221.539062 144.617188 C 221.453125 144.503906 221.355469 144.375 221.277344 144.269531 C 221.226562 144.207031 221.191406 144.15625 221.140625 144.089844 C 221.019531 143.925781 220.890625 143.761719 220.792969 143.628906 C 220.65625 143.449219 220.542969 143.300781 220.457031 143.1875 C 220.40625 143.300781 220.335938 143.398438 220.285156 143.515625 C 220.277344 143.527344 220.128906 143.792969 219.851562 144.25 C 219.753906 144.121094 219.652344 143.992188 219.558594 143.863281 L 219.148438 143.320312 L 219.429688 142.707031 C 220.628906 140.136719 222.394531 137.890625 223.820312 136.078125 C 225.191406 134.324219 226.617188 132.519531 227.679688 130.503906 C 227.871094 130.148438 228.085938 129.742188 228.476562 129.464844 C 228.804688 129.234375 229.160156 129.15625 229.472656 129.085938 C 232.050781 128.507812 234.378906 127.003906 236.03125 124.859375 C 236.589844 124.136719 237.394531 122.847656 238 121.398438 L 238.667969 119.789062 L 239.859375 121.066406 C 240.191406 121.429688 240.554688 121.804688 240.949219 122.148438 C 242.8125 123.761719 245.347656 124.679688 247.898438 124.679688 C 249.03125 124.679688 250.136719 124.5 251.175781 124.152344 C 251.851562 123.921875 252.527344 123.617188 253.183594 123.316406 C 253.816406 123.03125 254.523438 122.703125 255.242188 122.460938 C 257.429688 121.707031 259.648438 121.605469 261.992188 121.5 C 263.304688 121.441406 264.648438 121.378906 265.929688 121.195312 C 269.265625 120.703125 272.832031 118.769531 273.28125 115.570312 C 273.4375 114.433594 273.195312 113.289062 272.933594 112.070312 C 272.660156 110.792969 272.378906 109.480469 272.570312 108.140625 C 272.777344 106.6875 273.503906 105.429688 274.199219 104.226562 C 274.542969 103.636719 274.898438 103.027344 275.167969 102.414062 C 276.042969 100.484375 276.230469 98.222656 275.695312 96.050781 L 275.675781 95.957031 C 275.695312 95.949219 275.71875 95.949219 275.738281 95.941406 C 276.074219 95.886719 276.421875 95.835938 276.785156 95.777344 C 277.292969 95.699219 277.816406 95.621094 278.367188 95.542969 C 278.410156 95.535156 278.445312 95.53125 278.488281 95.523438 C 279.070312 95.4375 279.683594 95.351562 280.324219 95.265625 C 280.917969 95.1875 281.507812 95.09375 282.105469 95 C 282.304688 94.972656 282.496094 94.9375 282.695312 94.902344 C 283.097656 94.839844 283.5 94.765625 283.902344 94.695312 C 284.128906 94.652344 284.363281 94.609375 284.589844 94.566406 C 284.953125 94.496094 285.324219 94.429688 285.6875 94.359375 C 285.929688 94.308594 286.171875 94.261719 286.40625 94.210938 C 286.761719 94.140625 287.113281 94.066406 287.460938 93.988281 C 287.695312 93.941406 287.925781 93.890625 288.160156 93.832031 C 288.507812 93.753906 288.859375 93.675781 289.199219 93.597656 C 289.425781 93.546875 289.65625 93.492188 289.875 93.441406 C 290.210938 93.363281 290.546875 93.285156 290.871094 93.199219 C 291.09375 93.140625 291.316406 93.089844 291.527344 93.035156 C 291.855469 92.957031 292.175781 92.871094 292.496094 92.792969 C 292.695312 92.742188 292.894531 92.691406 293.09375 92.636719 C 293.414062 92.550781 293.730469 92.472656 294.042969 92.386719 C 294.21875 92.335938 294.398438 92.292969 294.570312 92.242188 C 294.882812 92.15625 295.1875 92.070312 295.488281 91.992188 C 295.636719 91.949219 295.792969 91.90625 295.9375 91.871094 C 296.234375 91.785156 296.515625 91.707031 296.792969 91.628906 C 296.925781 91.59375 297.0625 91.550781 297.191406 91.515625 C 297.46875 91.4375 297.722656 91.359375 297.972656 91.289062 C 298.082031 91.257812 298.195312 91.222656 298.292969 91.195312 C 298.550781 91.117188 298.785156 91.046875 299.011719 90.980469 C 299.085938 90.960938 299.171875 90.929688 299.242188 90.910156 C 299.492188 90.839844 299.703125 90.765625 299.902344 90.703125 C 299.9375 90.695312 299.980469 90.683594 300.019531 90.667969 C 300.238281 90.597656 300.429688 90.539062 300.59375 90.488281 C 300.722656 90.445312 300.824219 90.417969 300.902344 90.390625 C 300.945312 90.375 300.964844 90.367188 300.980469 90.367188 C 300.980469 90.367188 300.988281 90.367188 300.988281 90.367188 C 301.066406 90.398438 301.15625 90.433594 301.269531 90.46875 C 301.398438 90.511719 301.554688 90.5625 301.726562 90.617188 C 301.769531 90.632812 301.820312 90.644531 301.863281 90.652344 C 302.011719 90.695312 302.183594 90.746094 302.359375 90.796875 C 302.433594 90.816406 302.511719 90.832031 302.582031 90.851562 C 302.753906 90.894531 302.9375 90.945312 303.136719 90.996094 C 303.230469 91.015625 303.328125 91.039062 303.429688 91.058594 C 303.628906 91.101562 303.84375 91.152344 304.0625 91.195312 C 304.171875 91.214844 304.285156 91.238281 304.398438 91.257812 C 304.632812 91.300781 304.882812 91.34375 305.136719 91.386719 C 305.253906 91.410156 305.367188 91.421875 305.480469 91.445312 C 305.859375 91.5 306.25 91.550781 306.664062 91.59375 C 306.910156 91.621094 307.148438 91.628906 307.367188 91.628906 C 308.777344 91.628906 309.617188 91.132812 310.308594 90.722656 C 311.140625 90.234375 311.742188 89.875 313.214844 90.304688 C 314.140625 90.574219 314.867188 90.816406 315.464844 91.007812 C 317.046875 91.53125 317.835938 91.792969 318.804688 91.417969 C 319.441406 91.171875 319.824219 90.632812 319.808594 90.019531 C 319.796875 89.339844 319.28125 88.03125 315.957031 86.867188 C 312.632812 85.707031 312.054688 84.898438 311.960938 84.738281 C 311.988281 84.730469 312.046875 84.695312 312.160156 84.652344 C 313.355469 84.195312 316.40625 83.160156 318.734375 83.53125 C 320.601562 83.824219 323.335938 83.125 323.753906 81.921875 C 323.820312 81.726562 323.976562 81.066406 323.128906 80.585938 C 321.5625 79.6875 312.375 79.453125 310.550781 79.410156 C 310.488281 79.410156 310.410156 79.417969 310.34375 79.445312 L 299.726562 83.367188 C 299.476562 83.375 298.722656 83.390625 297.632812 83.410156 C 297.589844 83.410156 297.554688 83.410156 297.519531 83.410156 C 297.011719 83.425781 296.441406 83.433594 295.816406 83.445312 C 295.765625 83.445312 295.714844 83.445312 295.671875 83.445312 C 294.855469 83.46875 293.957031 83.488281 293.007812 83.511719 C 292.929688 83.511719 292.847656 83.515625 292.765625 83.515625 C 292.605469 83.523438 292.441406 83.523438 292.269531 83.53125 C 292.191406 83.53125 292.113281 83.539062 292.035156 83.539062 C 291.839844 83.546875 291.648438 83.554688 291.457031 83.554688 C 291.394531 83.554688 291.328125 83.558594 291.265625 83.558594 C 291.09375 83.566406 290.914062 83.566406 290.746094 83.574219 C 290.617188 83.582031 290.496094 83.582031 290.367188 83.589844 C 290.230469 83.597656 290.105469 83.597656 289.96875 83.601562 C 289.832031 83.609375 289.699219 83.609375 289.5625 83.617188 C 289.433594 83.625 289.3125 83.625 289.183594 83.632812 C 289.058594 83.636719 288.929688 83.636719 288.800781 83.644531 C 288.652344 83.652344 288.5 83.652344 288.351562 83.660156 C 288.246094 83.667969 288.132812 83.667969 288.023438 83.675781 C 287.859375 83.679688 287.691406 83.6875 287.527344 83.6875 C 287.441406 83.6875 287.355469 83.695312 287.269531 83.695312 C 287.097656 83.703125 286.921875 83.710938 286.75 83.71875 C 286.648438 83.722656 286.542969 83.722656 286.441406 83.730469 C 286.300781 83.738281 286.164062 83.738281 286.023438 83.746094 C 285.902344 83.753906 285.78125 83.753906 285.652344 83.757812 C 285.511719 83.765625 285.375 83.773438 285.230469 83.773438 C 285.125 83.78125 285.019531 83.78125 284.917969 83.789062 C 284.753906 83.796875 284.585938 83.800781 284.421875 83.808594 C 284.34375 83.808594 284.265625 83.816406 284.183594 83.816406 C 284.035156 83.824219 283.894531 83.832031 283.742188 83.839844 C 283.644531 83.84375 283.539062 83.84375 283.4375 83.851562 C 283.316406 83.859375 283.195312 83.867188 283.074219 83.867188 C 282.96875 83.875 282.855469 83.875 282.746094 83.882812 C 282.613281 83.886719 282.484375 83.894531 282.355469 83.902344 C 282.269531 83.910156 282.183594 83.910156 282.097656 83.917969 C 281.957031 83.921875 281.820312 83.929688 281.6875 83.9375 C 281.613281 83.945312 281.535156 83.945312 281.464844 83.953125 C 281.300781 83.960938 281.144531 83.972656 280.988281 83.980469 C 280.953125 83.980469 280.910156 83.988281 280.875 83.988281 C 280.679688 84.003906 280.496094 84.007812 280.316406 84.023438 C 279.855469 84.058594 279.371094 84.109375 278.871094 84.171875 C 278.746094 84.1875 278.617188 84.207031 278.488281 84.222656 C 278.039062 84.289062 277.574219 84.359375 277.113281 84.4375 C 277.0625 84.445312 277.019531 84.453125 276.972656 84.457031 C 276.457031 84.550781 275.9375 84.652344 275.425781 84.765625 C 275.28125 84.792969 275.148438 84.820312 275.011719 84.859375 C 274.5625 84.957031 274.121094 85.058594 273.679688 85.164062 C 273.601562 85.183594 273.53125 85.199219 273.453125 85.222656 C 272.941406 85.34375 272.433594 85.476562 271.941406 85.605469 C 271.828125 85.632812 271.714844 85.671875 271.601562 85.699219 C 271.171875 85.8125 270.746094 85.925781 270.347656 86.039062 C 270.28125 86.054688 270.21875 86.078125 270.160156 86.089844 C 269.683594 86.226562 269.234375 86.363281 268.808594 86.484375 C 268.757812 86.496094 268.714844 86.511719 268.671875 86.527344 C 268.253906 86.652344 267.863281 86.773438 267.503906 86.882812 C 266.765625 87.117188 266.179688 87.308594 265.796875 87.429688 C 265.761719 87.445312 265.730469 87.453125 265.695312 87.464844 C 264.335938 87.046875 262.984375 86.710938 261.78125 86.433594 C 258.183594 85.585938 257.390625 83.980469 257.363281 82.78125 C 257.34375 81.984375 257.683594 81.277344 257.992188 80.660156 C 258.140625 80.351562 258.296875 80.03125 258.394531 79.726562 C 259.023438 77.785156 257.570312 75.625 255.8125 74.65625 C 254.007812 73.664062 251.824219 73.472656 249.714844 73.289062 L 249.28125 73.25 C 246.660156 73.015625 243.640625 72.644531 240.988281 71.234375 C 239.289062 70.328125 237.914062 69.101562 236.453125 67.804688 C 235.421875 66.886719 234.351562 65.9375 233.207031 65.175781 C 230.433594 63.328125 226.625 62.265625 222.75 62.265625 C 220.171875 62.265625 217.707031 62.738281 215.613281 63.621094 C 215.058594 63.855469 214.496094 64.191406 213.933594 64.613281 L 213.546875 64.902344 L 213.070312 64.824219 C 212.558594 64.738281 212.054688 64.683594 211.5625 64.660156 C 211.40625 64.652344 211.253906 64.652344 211.097656 64.652344 C 208.726562 64.652344 206.570312 65.46875 205.179688 66.894531 C 203.378906 68.746094 202.859375 71.492188 202.351562 74.144531 C 202.195312 74.992188 202.03125 75.824219 201.839844 76.628906 C 201.71875 77.117188 201.589844 77.601562 201.457031 78.09375 C 201.027344 79.644531 200.601562 81.1875 200.695312 82.699219 C 200.777344 84.167969 201.378906 85.65625 201.898438 86.976562 C 202.417969 88.285156 203.03125 89.789062 203.757812 91.28125 C 203.769531 91.367188 203.777344 91.457031 203.796875 91.542969 C 203.957031 92.320312 204.175781 93.078125 204.46875 93.820312 C 204.519531 93.8125 204.566406 93.832031 204.589844 93.882812 C 204.851562 94.472656 205.222656 95 205.621094 95.5 L 205.09375 95.570312 C 204.894531 95.230469 204.730469 94.875 204.589844 94.503906 C 204.484375 94.515625 204.375 94.53125 204.269531 94.546875 C 203.847656 94.601562 203.429688 94.652344 203.023438 94.710938 C 202.980469 94.714844 202.945312 94.714844 202.902344 94.722656 C 202.546875 94.773438 202.1875 94.816406 201.839844 94.867188 C 201.742188 94.878906 201.640625 94.894531 201.539062 94.910156 C 201.242188 94.953125 200.949219 94.988281 200.65625 95.03125 C 200.566406 95.042969 200.480469 95.050781 200.394531 95.066406 C 200.101562 95.109375 199.816406 95.144531 199.53125 95.179688 C 199.425781 95.195312 199.320312 95.207031 199.21875 95.222656 C 198.96875 95.257812 198.71875 95.292969 198.476562 95.324219 C 198.351562 95.34375 198.214844 95.359375 198.085938 95.378906 C 197.867188 95.410156 197.652344 95.445312 197.4375 95.472656 C 197.308594 95.492188 197.183594 95.507812 197.054688 95.53125 C 196.839844 95.558594 196.632812 95.585938 196.425781 95.621094 C 196.3125 95.636719 196.191406 95.65625 196.078125 95.671875 C 195.878906 95.699219 195.679688 95.730469 195.488281 95.757812 C 195.367188 95.777344 195.246094 95.792969 195.125 95.816406 C 194.953125 95.84375 194.78125 95.863281 194.617188 95.894531 C 194.496094 95.914062 194.375 95.929688 194.253906 95.949219 C 194.089844 95.980469 193.925781 96 193.769531 96.027344 C 193.65625 96.042969 193.542969 96.0625 193.4375 96.078125 C 193.28125 96.101562 193.136719 96.128906 192.988281 96.148438 C 192.886719 96.164062 192.78125 96.183594 192.679688 96.199219 C 192.539062 96.222656 192.402344 96.25 192.269531 96.269531 C 192.167969 96.285156 192.070312 96.304688 191.976562 96.320312 C 191.847656 96.34375 191.734375 96.363281 191.613281 96.386719 C 191.519531 96.398438 191.425781 96.421875 191.34375 96.433594 C 191.226562 96.457031 191.128906 96.476562 191.023438 96.5 C 190.945312 96.511719 190.859375 96.527344 190.78125 96.550781 C 190.671875 96.570312 190.574219 96.589844 190.464844 96.613281 C 190.402344 96.628906 190.339844 96.640625 190.28125 96.648438 C 190.125 96.683594 189.980469 96.710938 189.855469 96.75 C 183.992188 98.152344 181.621094 99.378906 179.539062 100.46875 C 178.65625 100.925781 177.832031 101.359375 176.785156 101.796875 C 175.617188 102.28125 173.601562 102.984375 171.050781 103.878906 C 165.867188 105.695312 158.039062 108.445312 150.632812 111.691406 C 150.296875 111.832031 149.957031 111.988281 149.613281 112.152344 C 149.507812 112.203125 149.394531 112.261719 149.285156 112.3125 C 149.042969 112.425781 148.800781 112.539062 148.554688 112.667969 C 148.417969 112.730469 148.273438 112.804688 148.140625 112.875 C 147.910156 112.988281 147.683594 113.101562 147.457031 113.222656 C 147.304688 113.300781 147.15625 113.378906 147.015625 113.457031 C 146.785156 113.578125 146.558594 113.699219 146.324219 113.820312 C 146.175781 113.902344 146.023438 113.984375 145.875 114.066406 C 145.640625 114.191406 145.410156 114.3125 145.175781 114.449219 C 145.019531 114.535156 144.863281 114.628906 144.699219 114.714844 C 144.464844 114.839844 144.230469 114.976562 143.996094 115.113281 C 143.839844 115.207031 143.675781 115.296875 143.515625 115.390625 C 143.28125 115.527344 143.046875 115.660156 142.8125 115.804688 C 142.648438 115.898438 142.484375 115.996094 142.320312 116.097656 C 142.078125 116.238281 141.84375 116.382812 141.601562 116.523438 C 141.445312 116.617188 141.289062 116.714844 141.132812 116.808594 C 140.882812 116.957031 140.632812 117.117188 140.375 117.265625 C 140.226562 117.359375 140.078125 117.449219 139.929688 117.542969 C 139.671875 117.699219 139.414062 117.855469 139.160156 118.019531 C 139.015625 118.113281 138.867188 118.199219 138.722656 118.292969 C 138.460938 118.457031 138.191406 118.628906 137.925781 118.789062 C 137.792969 118.875 137.65625 118.960938 137.519531 119.046875 C 137.25 119.21875 136.972656 119.398438 136.703125 119.566406 C 136.574219 119.644531 136.445312 119.730469 136.324219 119.808594 C 136.046875 119.988281 135.769531 120.167969 135.492188 120.351562 C 135.371094 120.429688 135.25 120.507812 135.136719 120.585938 C 134.855469 120.773438 134.578125 120.949219 134.300781 121.136719 C 134.1875 121.207031 134.082031 121.285156 133.96875 121.355469 C 133.675781 121.550781 133.382812 121.742188 133.089844 121.933594 C 133.003906 121.992188 132.914062 122.050781 132.828125 122.113281 C 132.519531 122.320312 132.222656 122.519531 131.914062 122.71875 C 131.84375 122.769531 131.773438 122.820312 131.703125 122.863281 C 131.382812 123.082031 131.0625 123.296875 130.746094 123.511719 C 130.703125 123.539062 130.65625 123.566406 130.613281 123.601562 C 130.285156 123.832031 129.957031 124.050781 129.636719 124.273438 C 129.609375 124.292969 129.574219 124.316406 129.542969 124.335938 C 129.214844 124.558594 128.902344 124.777344 128.589844 125 C 128.5625 125.023438 128.539062 125.035156 128.511719 125.058594 C 125.820312 126.925781 123.605469 128.515625 122.273438 129.476562 C 122.222656 129.511719 122.171875 129.546875 122.128906 129.585938 C 122.03125 129.664062 121.921875 129.734375 121.832031 129.796875 C 121.78125 129.832031 121.730469 129.871094 121.679688 129.90625 C 121.601562 129.960938 121.523438 130.019531 121.460938 130.070312 C 121.390625 130.117188 121.324219 130.167969 121.269531 130.210938 C 121.253906 130.226562 121.238281 130.234375 121.226562 130.246094 C 121.152344 130.296875 121.097656 130.339844 121.046875 130.375 C 121.039062 130.375 121.039062 130.382812 121.03125 130.382812 L 110.59375 131.09375 L 93.691406 126.773438 C 93.484375 126.71875 93.265625 126.789062 93.128906 126.953125 C 92.988281 127.117188 92.957031 127.339844 93.035156 127.539062 C 93.222656 127.988281 93.449219 128.394531 93.707031 128.777344 C 93.71875 128.800781 93.734375 128.820312 93.75 128.84375 C 94.011719 129.226562 94.296875 129.585938 94.609375 129.910156 C 94.625 129.871094 94.652344 129.832031 94.695312 129.804688 C 95.03125 129.597656 95.34375 129.761719 95.691406 129.863281 C 95.835938 129.898438 95.976562 129.941406 96.121094 129.976562 L 96.769531 130.597656 L 96.390625 130.761719 C 96.097656 130.683594 95.800781 130.597656 95.507812 130.519531 C 95.238281 130.441406 94.953125 130.410156 94.761719 130.234375 C 94.679688 130.269531 94.597656 130.296875 94.53125 130.359375 C 94.398438 130.519531 94.359375 130.738281 94.433594 130.929688 C 96.261719 135.65625 102.714844 137.246094 105.820312 138.011719 C 106.488281 138.175781 107.25 138.359375 107.410156 138.460938 C 108.535156 139.25 109.566406 139.492188 110.871094 139.792969 C 111.539062 139.949219 112.292969 140.128906 113.175781 140.40625 C 113.925781 140.640625 114.34375 140.890625 114.460938 141.160156 C 114.660156 141.632812 114.144531 142.652344 113.441406 144.0625 L 113.199219 144.546875 C 111.988281 146.964844 111.808594 150.5 112.855469 151.296875 C 113 151.40625 113.191406 151.484375 113.398438 151.484375 C 113.613281 151.484375 113.847656 151.40625 114.074219 151.199219 C 114.988281 150.386719 115.398438 149.75 116.617188 147.871094 L 117.570312 146.394531 C 118.496094 144.976562 119.550781 144.574219 120.578125 144.183594 C 121.617188 143.792969 122.683594 143.386719 123.347656 141.988281 C 123.460938 141.746094 123.574219 141.496094 123.691406 141.238281 C 123.710938 141.195312 123.726562 141.152344 123.746094 141.117188 C 123.851562 140.875 123.953125 140.625 124.054688 140.378906 C 124.074219 140.320312 124.09375 140.269531 124.117188 140.214844 C 124.214844 139.964844 124.316406 139.722656 124.410156 139.472656 C 124.421875 139.4375 124.4375 139.402344 124.453125 139.359375 C 124.539062 139.121094 124.628906 138.894531 124.707031 138.667969 C 124.722656 138.636719 124.730469 138.601562 124.742188 138.574219 C 124.828125 138.339844 124.90625 138.109375 124.984375 137.890625 C 125 137.847656 125.015625 137.796875 125.035156 137.753906 C 125.105469 137.546875 125.179688 137.347656 125.234375 137.164062 C 125.25 137.125 125.257812 137.097656 125.261719 137.070312 C 125.390625 136.675781 125.5 136.355469 125.5625 136.148438 C 125.953125 136.007812 126.765625 135.707031 127.855469 135.316406 C 127.949219 135.28125 128.046875 135.246094 128.148438 135.207031 C 128.476562 135.085938 128.832031 134.960938 129.203125 134.832031 C 129.257812 134.808594 129.316406 134.789062 129.375 134.765625 C 129.542969 134.703125 129.722656 134.636719 129.898438 134.574219 C 129.957031 134.554688 130.015625 134.53125 130.070312 134.515625 C 130.25 134.453125 130.433594 134.390625 130.621094 134.316406 C 130.691406 134.289062 130.761719 134.269531 130.832031 134.238281 C 130.996094 134.183594 131.160156 134.125 131.332031 134.0625 C 131.4375 134.027344 131.546875 133.984375 131.652344 133.945312 C 131.816406 133.890625 131.980469 133.824219 132.152344 133.769531 C 132.234375 133.742188 132.320312 133.703125 132.40625 133.675781 C 132.613281 133.605469 132.828125 133.527344 133.039062 133.449219 C 133.089844 133.425781 133.140625 133.414062 133.199219 133.390625 C 133.410156 133.3125 133.625 133.242188 133.847656 133.164062 C 133.917969 133.132812 133.996094 133.113281 134.066406 133.085938 C 134.550781 132.914062 135.042969 132.742188 135.535156 132.570312 C 135.613281 132.542969 135.699219 132.515625 135.777344 132.484375 C 136.332031 132.292969 136.878906 132.101562 137.429688 131.90625 C 137.542969 131.871094 137.648438 131.828125 137.761719 131.792969 C 137.933594 131.738281 138.113281 131.671875 138.28125 131.617188 C 138.390625 131.582031 138.488281 131.542969 138.597656 131.507812 C 138.765625 131.453125 138.929688 131.394531 139.09375 131.335938 C 139.203125 131.300781 139.308594 131.265625 139.414062 131.230469 C 139.585938 131.175781 139.757812 131.117188 139.929688 131.058594 C 140.019531 131.03125 140.113281 130.996094 140.207031 130.96875 C 140.371094 130.910156 140.527344 130.859375 140.683594 130.804688 C 140.796875 130.765625 140.902344 130.726562 141.019531 130.6875 C 141.160156 130.640625 141.308594 130.589844 141.453125 130.546875 C 141.550781 130.511719 141.660156 130.476562 141.757812 130.445312 C 141.902344 130.398438 142.042969 130.355469 142.179688 130.304688 C 142.277344 130.269531 142.378906 130.238281 142.476562 130.203125 C 142.613281 130.160156 142.742188 130.117188 142.875 130.074219 C 142.976562 130.046875 143.070312 130.011719 143.160156 129.984375 C 143.289062 129.941406 143.410156 129.90625 143.53125 129.871094 C 143.617188 129.839844 143.710938 129.8125 143.796875 129.785156 C 143.921875 129.742188 144.039062 129.707031 144.160156 129.667969 C 144.238281 129.648438 144.308594 129.621094 144.386719 129.597656 C 144.5 129.5625 144.613281 129.527344 144.726562 129.5 C 144.800781 129.476562 144.871094 129.457031 144.933594 129.433594 C 145.046875 129.398438 145.148438 129.371094 145.25 129.339844 C 145.304688 129.328125 145.363281 129.304688 145.417969 129.292969 C 145.570312 129.25 145.710938 129.214844 145.847656 129.179688 C 149.550781 128.222656 154.230469 125.441406 157.648438 123.410156 C 158.367188 122.984375 159.015625 122.597656 159.585938 122.277344 C 161.378906 121.25 164.550781 120.707031 167.902344 120.136719 C 170.289062 119.730469 172.753906 119.3125 174.960938 118.675781 C 175.203125 118.605469 175.460938 118.527344 175.738281 118.449219 C 175.835938 118.421875 175.945312 118.382812 176.042969 118.355469 C 176.234375 118.300781 176.429688 118.242188 176.636719 118.179688 C 176.742188 118.140625 176.855469 118.105469 176.96875 118.070312 C 177.183594 118.007812 177.40625 117.933594 177.625 117.863281 C 177.746094 117.828125 177.867188 117.785156 177.988281 117.75 C 178.210938 117.679688 178.4375 117.609375 178.664062 117.535156 C 178.800781 117.492188 178.941406 117.449219 179.078125 117.402344 C 179.3125 117.324219 179.546875 117.25 179.789062 117.171875 C 179.917969 117.128906 180.054688 117.085938 180.183594 117.042969 C 180.445312 116.957031 180.707031 116.875 180.972656 116.789062 C 181.09375 116.746094 181.214844 116.710938 181.328125 116.667969 C 181.621094 116.566406 181.914062 116.472656 182.203125 116.375 C 182.296875 116.347656 182.382812 116.316406 182.476562 116.28125 C 182.808594 116.167969 183.152344 116.054688 183.488281 115.945312 C 183.542969 115.925781 183.59375 115.910156 183.652344 115.890625 C 184.425781 115.632812 185.195312 115.367188 185.921875 115.125 C 186.113281 115.0625 186.300781 115 186.484375 114.933594 C 186.621094 114.882812 186.761719 114.839844 186.898438 114.792969 C 187.15625 114.707031 187.402344 114.621094 187.644531 114.535156 C 187.710938 114.511719 187.78125 114.492188 187.84375 114.472656 C 188.082031 114.390625 188.300781 114.3125 188.523438 114.242188 C 188.601562 114.214844 188.679688 114.191406 188.75 114.164062 C 188.976562 114.085938 189.207031 114.007812 189.414062 113.9375 C 189.425781 113.929688 189.433594 113.929688 189.449219 113.921875 C 189.683594 113.84375 189.902344 113.765625 190.109375 113.695312 C 189.894531 113.558594 189.738281 113.289062 189.917969 113.046875 C 190.082031 112.816406 190.273438 112.753906 190.53125 112.679688 C 190.714844 112.625 190.90625 112.574219 191.09375 112.515625 C 191.328125 112.445312 191.554688 112.375 191.789062 112.304688 C 191.804688 112.296875 191.820312 112.296875 191.832031 112.289062 L 192.175781 113.238281 C 192.183594 113.25 192.183594 113.257812 192.191406 113.273438 C 191.960938 113.34375 191.742188 113.421875 191.519531 113.496094 C 191.390625 113.535156 191.257812 113.578125 191.128906 113.621094 C 191.128906 113.621094 191.128906 113.628906 191.128906 113.628906 C 191.621094 115 191.996094 116.289062 192.296875 117.527344 C 192.234375 117.25 192.175781 116.988281 192.105469 116.703125 C 192.054688 116.523438 192.097656 116.332031 192.21875 116.1875 C 192.339844 116.046875 192.511719 115.976562 192.703125 115.996094 C 192.789062 116.011719 192.910156 115.988281 193.03125 115.953125 C 193.152344 116.386719 193.28125 116.816406 193.386719 117.257812 L 193.378906 117.457031 C 193.449219 117.75 193.523438 118.035156 193.578125 118.320312 C 193.65625 118.691406 193.714844 119.046875 193.777344 119.398438 L 193.847656 119.808594 C 193.890625 120.046875 193.933594 120.273438 193.964844 120.5 C 194.003906 120.792969 194.035156 121.070312 194.054688 121.355469 L 194.113281 121.886719 C 194.132812 122.113281 194.164062 122.339844 194.175781 122.554688 C 194.183594 122.683594 194.199219 123.117188 194.199219 123.117188 C 194.261719 124.664062 194.199219 126.140625 194.003906 127.503906 C 193.925781 128.058594 193.847656 128.492188 193.757812 128.914062 L 193.734375 129.027344 C 193.640625 129.441406 193.542969 129.839844 193.4375 130.226562 C 193.300781 130.6875 193.1875 131.050781 193.066406 131.402344 C 192.152344 133.945312 191.015625 135.371094 190.6875 135.75 L 190.539062 135.921875 L 190.332031 136.023438 C 189.261719 136.550781 183.65625 139.441406 178.515625 144.414062 C 178.4375 144.382812 178.359375 144.355469 178.273438 144.328125 C 178.082031 144.269531 177.929688 144.113281 177.886719 143.921875 C 177.839844 143.726562 177.902344 143.519531 178.046875 143.378906 C 183.308594 138.375 189.007812 135.421875 189.832031 135.007812 C 189.773438 135.039062 189.691406 135.082031 189.589844 135.128906 C 189.433594 135.207031 189.234375 135.316406 189 135.445312 C 188.921875 135.488281 188.835938 135.535156 188.75 135.578125 C 188.550781 135.6875 188.328125 135.808594 188.085938 135.949219 C 187.722656 136.15625 187.3125 136.398438 186.863281 136.671875 C 186.820312 136.691406 186.785156 136.71875 186.742188 136.742188 C 186.113281 137.121094 185.417969 137.570312 184.675781 138.066406 C 184.613281 138.109375 184.554688 138.144531 184.492188 138.1875 C 183.5 138.859375 182.425781 139.644531 181.3125 140.519531 C 181.214844 140.597656 181.113281 140.675781 181.007812 140.761719 C 180.425781 141.234375 179.832031 141.730469 179.234375 142.257812 C 179.214844 142.28125 179.191406 142.292969 179.171875 142.316406 C 178.671875 142.757812 178.171875 143.230469 177.675781 143.707031 C 177.5625 143.820312 177.445312 143.925781 177.332031 144.042969 C 177.199219 144.175781 177.0625 144.320312 176.933594 144.453125 C 176.761719 144.625 176.597656 144.796875 176.4375 144.96875 C 176.273438 145.140625 176.113281 145.316406 175.957031 145.496094 C 175.824219 145.644531 175.6875 145.789062 175.550781 145.9375 C 175.039062 146.515625 174.542969 147.121094 174.058594 147.75 C 173.992188 147.835938 173.921875 147.917969 173.859375 148.003906 C 173.386719 148.625 172.929688 149.265625 172.503906 149.929688 C 172.441406 150.03125 172.367188 150.128906 172.304688 150.230469 C 171.09375 152.132812 170.074219 154.199219 169.371094 156.425781 C 169.363281 156.453125 169.347656 156.480469 169.34375 156.511719 C 169.277344 156.710938 169.226562 156.910156 169.171875 157.109375 C 168.835938 158.277344 168.578125 159.488281 168.4375 160.746094 C 167.296875 170.730469 167.527344 181.035156 167.710938 189.308594 C 167.867188 196.558594 167.996094 202.292969 167.167969 205.015625 C 166.457031 207.359375 165.097656 208.621094 163.367188 210.21875 C 160.765625 212.621094 157.535156 215.609375 154.421875 223.605469 C 150.726562 233.101562 149.722656 240.28125 148.835938 246.617188 C 148.515625 248.9375 148.195312 251.144531 147.785156 253.339844 C 147.710938 253.726562 147.640625 254.109375 147.5625 254.496094 C 142.171875 255.03125 137.027344 255.585938 132.285156 256.148438 C 74.976562 262.949219 20.996094 270.914062 14.09375 283.074219 C 13.210938 284.566406 13.15625 286.113281 13.894531 287.765625 Z M 203.550781 95.765625 C 203.023438 95.835938 202.507812 95.898438 202.003906 95.972656 C 201.71875 95.714844 201.882812 95.246094 202.230469 95.160156 C 202.84375 95 203.25 95.316406 203.550781 95.765625 Z M 162.8125 253.0625 C 162.96875 252.679688 163.125 252.300781 163.308594 251.894531 C 163.460938 251.550781 163.625 251.203125 163.792969 250.839844 C 163.871094 250.675781 163.957031 250.496094 164.035156 250.332031 C 164.144531 250.113281 164.242188 249.898438 164.355469 249.671875 C 164.449219 249.476562 164.542969 249.292969 164.640625 249.101562 C 164.75 248.886719 164.855469 248.671875 164.96875 248.449219 C 165.070312 248.25 165.167969 248.058594 165.269531 247.859375 C 165.390625 247.632812 165.511719 247.394531 165.632812 247.160156 C 165.730469 246.96875 165.832031 246.78125 165.929688 246.589844 C 166.144531 246.191406 166.363281 245.785156 166.585938 245.371094 C 166.691406 245.171875 166.808594 244.972656 166.914062 244.78125 C 167.046875 244.53125 167.183594 244.289062 167.328125 244.039062 C 167.449219 243.816406 167.574219 243.597656 167.695312 243.375 C 167.832031 243.140625 167.96875 242.898438 168.101562 242.65625 C 168.230469 242.433594 168.351562 242.214844 168.480469 241.992188 C 168.621094 241.742188 168.773438 241.484375 168.914062 241.230469 C 169.035156 241.015625 169.15625 240.808594 169.285156 240.59375 C 169.492188 240.238281 169.707031 239.875 169.917969 239.511719 C 170.070312 239.253906 170.21875 239.003906 170.375 238.75 C 170.554688 238.441406 170.738281 238.144531 170.921875 237.835938 C 171.050781 237.621094 171.179688 237.414062 171.308594 237.203125 C 171.472656 236.929688 171.636719 236.660156 171.800781 236.394531 C 171.925781 236.183594 172.0625 235.96875 172.191406 235.753906 C 172.363281 235.476562 172.53125 235.199219 172.703125 234.921875 C 172.832031 234.722656 172.953125 234.515625 173.082031 234.316406 C 173.292969 233.972656 173.507812 233.628906 173.722656 233.289062 C 173.816406 233.144531 173.898438 233.003906 173.992188 232.851562 C 174.269531 232.410156 174.546875 231.976562 174.824219 231.542969 C 174.941406 231.363281 175.054688 231.191406 175.167969 231.015625 C 175.359375 230.722656 175.546875 230.429688 175.738281 230.136719 C 175.859375 229.945312 175.988281 229.757812 176.109375 229.566406 C 176.292969 229.289062 176.472656 229.003906 176.65625 228.734375 C 176.769531 228.554688 176.890625 228.375 177.003906 228.199219 C 177.21875 227.871094 177.433594 227.550781 177.652344 227.226562 C 177.730469 227.105469 177.808594 226.984375 177.894531 226.871094 C 178.1875 226.4375 178.472656 226.007812 178.765625 225.589844 C 178.851562 225.460938 178.933594 225.339844 179.019531 225.210938 C 179.226562 224.910156 179.425781 224.613281 179.625 224.320312 C 179.734375 224.164062 179.839844 224.011719 179.941406 223.863281 C 180.125 223.59375 180.308594 223.328125 180.488281 223.070312 C 180.585938 222.929688 180.6875 222.78125 180.792969 222.636719 C 180.992188 222.359375 181.1875 222.082031 181.378906 221.808594 C 181.457031 221.703125 181.535156 221.589844 181.613281 221.484375 C 181.875 221.113281 182.140625 220.75 182.398438 220.398438 C 182.453125 220.328125 182.503906 220.257812 182.5625 220.179688 C 182.765625 219.898438 182.964844 219.628906 183.160156 219.363281 C 183.246094 219.25 183.328125 219.136719 183.414062 219.03125 C 183.578125 218.808594 183.742188 218.59375 183.898438 218.386719 C 183.984375 218.273438 184.070312 218.167969 184.148438 218.0625 C 184.3125 217.855469 184.460938 217.652344 184.617188 217.453125 C 184.691406 217.363281 184.761719 217.269531 184.832031 217.183594 C 185.054688 216.90625 185.265625 216.640625 185.464844 216.390625 C 185.6875 216.128906 185.902344 215.828125 186.121094 215.5 C 186.121094 215.5 186.121094 215.496094 186.128906 215.496094 C 186.34375 215.171875 186.554688 214.824219 186.761719 214.445312 C 186.8125 214.355469 186.863281 214.246094 186.917969 214.152344 C 187.074219 213.863281 187.238281 213.5625 187.398438 213.242188 C 187.445312 213.140625 187.496094 213.027344 187.546875 212.921875 C 187.703125 212.585938 187.859375 212.25 188.015625 211.894531 C 188.050781 211.816406 188.085938 211.722656 188.121094 211.636719 C 188.292969 211.238281 188.457031 210.839844 188.628906 210.410156 C 188.6875 210.261719 188.742188 210.105469 188.800781 209.949219 C 188.941406 209.578125 189.085938 209.207031 189.21875 208.816406 C 189.269531 208.671875 189.320312 208.507812 189.375 208.367188 C 189.519531 207.953125 189.660156 207.539062 189.804688 207.109375 C 189.839844 206.996094 189.882812 206.867188 189.917969 206.746094 C 190.066406 206.277344 190.222656 205.800781 190.375 205.308594 C 190.417969 205.179688 190.453125 205.035156 190.496094 204.90625 C 190.644531 204.421875 190.785156 203.929688 190.929688 203.425781 C 190.964844 203.296875 191 203.160156 191.035156 203.039062 C 191.179688 202.519531 191.328125 202.007812 191.46875 201.472656 C 191.492188 201.386719 191.511719 201.300781 191.535156 201.222656 C 191.691406 200.644531 191.839844 200.058594 191.992188 199.460938 C 192.027344 199.320312 192.0625 199.167969 192.097656 199.027344 C 192.230469 198.484375 192.367188 197.941406 192.503906 197.394531 C 192.515625 197.335938 192.53125 197.28125 192.546875 197.230469 C 192.703125 196.589844 192.851562 195.945312 193 195.296875 C 193.015625 195.226562 193.03125 195.164062 193.042969 195.089844 C 193.1875 194.457031 193.335938 193.816406 193.472656 193.179688 C 193.5 193.050781 193.527344 192.929688 193.550781 192.804688 C 193.679688 192.21875 193.804688 191.625 193.925781 191.042969 C 193.949219 190.949219 193.964844 190.855469 193.984375 190.765625 C 194.113281 190.144531 194.242188 189.523438 194.367188 188.902344 C 194.382812 188.839844 194.390625 188.78125 194.40625 188.71875 C 194.53125 188.070312 194.660156 187.421875 194.789062 186.777344 C 194.796875 186.738281 194.804688 186.6875 194.816406 186.644531 C 194.945312 185.988281 195.074219 185.332031 195.195312 184.683594 C 195.214844 184.570312 195.238281 184.457031 195.257812 184.339844 C 195.367188 183.761719 195.472656 183.191406 195.578125 182.621094 C 195.609375 182.472656 195.628906 182.324219 195.65625 182.175781 C 195.75 181.644531 195.851562 181.117188 195.941406 180.597656 C 195.957031 180.503906 195.972656 180.421875 195.992188 180.328125 C 196.09375 179.757812 196.191406 179.195312 196.285156 178.636719 C 196.304688 178.53125 196.320312 178.425781 196.34375 178.316406 C 196.433594 177.78125 196.519531 177.253906 196.605469 176.742188 C 196.613281 176.71875 196.613281 176.699219 196.621094 176.671875 C 196.71875 176.078125 196.8125 175.5 196.90625 174.9375 C 196.925781 174.800781 196.945312 174.679688 196.96875 174.546875 C 197.039062 174.097656 197.109375 173.65625 197.183594 173.226562 C 197.210938 173.027344 197.246094 172.835938 197.273438 172.636719 C 197.332031 172.285156 197.382812 171.9375 197.4375 171.609375 C 197.460938 171.460938 197.480469 171.316406 197.503906 171.167969 C 197.558594 170.808594 197.609375 170.445312 197.667969 170.113281 C 197.6875 169.992188 197.703125 169.882812 197.714844 169.761719 C 197.765625 169.414062 197.824219 169.070312 197.867188 168.742188 C 197.878906 168.628906 197.902344 168.523438 197.914062 168.40625 C 197.957031 168.101562 198 167.800781 198.042969 167.523438 C 198.074219 167.308594 198.101562 167.125 198.128906 166.925781 C 198.152344 166.769531 198.171875 166.605469 198.195312 166.460938 C 198.277344 165.855469 198.351562 165.351562 198.40625 164.9375 C 198.414062 164.902344 198.421875 164.851562 198.421875 164.808594 C 198.449219 164.59375 198.472656 164.414062 198.492188 164.265625 C 198.394531 164.273438 198.285156 164.28125 198.1875 164.289062 C 198.171875 164.289062 198.15625 164.289062 198.144531 164.289062 C 197.945312 164.289062 197.753906 164.179688 197.652344 164.003906 C 197.589844 163.882812 197.515625 163.765625 197.445312 163.644531 C 197.445312 163.640625 197.4375 163.640625 197.4375 163.632812 L 197.496094 163.210938 L 198.40625 163.148438 C 199.132812 163.097656 199.910156 163.054688 200.351562 163.054688 C 200.53125 163.054688 200.664062 163.0625 200.757812 163.070312 L 200.929688 163.089844 L 201.605469 162.976562 L 201.898438 163.617188 C 201.65625 163.789062 201.417969 163.960938 201.175781 164.128906 C 201.105469 164.179688 201.027344 164.210938 200.949219 164.222656 C 200.949219 164.222656 200.949219 164.222656 200.949219 164.230469 C 211.25 181.554688 229.367188 194.429688 233.953125 197.515625 C 234.03125 197.566406 234.089844 197.609375 234.160156 197.652344 C 234.367188 197.785156 234.550781 197.914062 234.6875 198 C 234.179688 200.089844 232.007812 209.996094 233.632812 219.964844 C 234.628906 226.058594 236.417969 229.9375 238.007812 233.359375 C 239.351562 236.273438 240.519531 238.792969 240.925781 242.078125 C 240.96875 242.425781 240.984375 242.789062 240.984375 243.167969 C 240.984375 243.277344 240.976562 243.390625 240.96875 243.496094 C 240.953125 243.78125 240.941406 244.066406 240.90625 244.359375 C 240.890625 244.472656 240.875 244.585938 240.863281 244.703125 C 240.820312 245.015625 240.769531 245.34375 240.710938 245.664062 C 240.699219 245.75 240.683594 245.828125 240.664062 245.914062 C 240.585938 246.320312 240.492188 246.734375 240.390625 247.152344 C 240.300781 247.53125 240.191406 247.910156 240.085938 248.292969 C 211.21875 249.570312 185.429688 251.160156 163.417969 253.019531 Z M 162.8125 253.0625 " fill-opacity="1" fill-rule="nonzero"/><g clip-path="url(#id1)"><path fill="#200e89" d="M 16.359375 293.789062 Z M 16.210938 293.613281 C 15.960938 293.304688 15.726562 292.992188 15.492188 292.679688 C 15.726562 293 15.960938 293.304688 16.210938 293.613281 Z M 238.382812 121.542969 C 238.234375 121.898438 238.078125 122.242188 237.890625 122.605469 C 237.726562 122.933594 237.558594 123.246094 237.351562 123.597656 C 237.179688 123.882812 237.015625 124.152344 236.816406 124.453125 C 236.660156 124.6875 236.503906 124.90625 236.359375 125.09375 C 234.652344 127.316406 232.238281 128.871094 229.566406 129.476562 C 229.273438 129.542969 228.976562 129.605469 228.710938 129.789062 C 228.398438 130.011719 228.214844 130.355469 228.042969 130.6875 C 226.964844 132.734375 225.535156 134.554688 224.144531 136.320312 C 222.664062 138.203125 220.992188 140.339844 219.808594 142.863281 C 219.789062 142.90625 219.765625 142.945312 219.753906 142.980469 C 219.710938 143.058594 219.671875 143.128906 219.667969 143.148438 C 219.652344 143.179688 219.511719 143.429688 219.246094 143.855469 C 217.621094 146.523438 211.554688 155.796875 201.46875 163.046875 L 201.277344 163.183594 C 201.113281 163.304688 200.949219 163.417969 200.835938 163.511719 L 200.800781 163.496094 L 200.699219 163.480469 C 200.652344 163.476562 200.578125 163.476562 200.492188 163.46875 L 200.257812 163.46875 L 199.496094 163.488281 L 198.207031 163.566406 L 198.050781 163.289062 C 193.558594 155.355469 187.996094 146.652344 178.828125 143.75 L 178.730469 143.714844 C 183.929688 138.832031 189.53125 135.949219 190.160156 135.636719 L 190.257812 135.585938 L 190.421875 135.421875 L 190.4375 135.394531 C 190.464844 135.359375 190.5 135.316406 190.539062 135.273438 C 190.539062 135.273438 190.707031 135.042969 190.773438 134.960938 C 190.773438 134.960938 191 134.636719 191.0625 134.539062 L 191.207031 134.324219 C 191.269531 134.226562 191.335938 134.117188 191.40625 133.996094 C 191.457031 133.910156 191.507812 133.824219 191.554688 133.734375 C 191.628906 133.613281 191.699219 133.476562 191.785156 133.3125 C 191.832031 133.21875 191.882812 133.128906 191.933594 133.027344 C 192.011719 132.871094 192.089844 132.699219 192.167969 132.527344 C 192.167969 132.527344 192.273438 132.285156 192.3125 132.207031 C 192.433594 131.921875 192.554688 131.621094 192.667969 131.300781 L 192.679688 131.257812 C 192.800781 130.925781 192.917969 130.5625 193.03125 130.183594 L 193.050781 130.113281 C 193.078125 130.011719 193.109375 129.90625 193.128906 129.804688 L 193.214844 129.484375 C 193.257812 129.304688 193.308594 129.136719 193.351562 128.941406 L 193.371094 128.828125 C 193.429688 128.542969 193.480469 128.242188 193.535156 127.9375 C 193.535156 127.9375 193.59375 127.628906 193.605469 127.546875 L 193.628906 127.394531 C 193.707031 126.839844 193.761719 126.226562 193.800781 125.5 L 193.804688 125.269531 C 193.835938 124.574219 193.835938 123.851562 193.804688 123.125 L 193.800781 122.917969 C 193.800781 122.804688 193.792969 122.691406 193.785156 122.570312 C 193.769531 122.355469 193.75 122.128906 193.722656 121.898438 L 193.671875 121.386719 C 193.644531 121.109375 193.613281 120.835938 193.578125 120.542969 C 193.550781 120.324219 193.507812 120.089844 193.464844 119.851562 L 193.402344 119.484375 C 193.335938 119.125 193.28125 118.761719 193.199219 118.390625 C 193.144531 118.121094 193.074219 117.835938 193.007812 117.550781 C 193.007812 117.550781 192.832031 116.800781 192.808594 116.6875 C 192.929688 116.679688 193.058594 116.660156 193.207031 116.617188 C 194.488281 116.273438 196.90625 114.492188 199.917969 112.210938 L 199.996094 112.152344 C 201.492188 111.019531 203.179688 109.738281 204.53125 108.867188 L 204.867188 108.652344 L 204.859375 108.253906 C 204.851562 107.707031 204.851562 107.148438 204.851562 106.59375 C 204.851562 104.980469 204.851562 103.3125 204.617188 101.695312 C 204.46875 100.675781 204.226562 99.570312 203.898438 98.417969 C 203.871094 98.316406 203.839844 98.21875 203.8125 98.117188 C 204.140625 99.023438 204.433594 99.941406 204.683594 100.863281 C 205.324219 103.214844 205.984375 105.644531 205.976562 108.15625 L 205.976562 108.605469 L 206.375 108.804688 C 211.199219 111.183594 213.875 115.382812 215.835938 118.449219 C 216.0625 118.8125 216.285156 119.15625 216.503906 119.488281 L 216.832031 119.988281 L 217.378906 119.761719 C 219.152344 119.011719 221.796875 116.859375 224.351562 114.777344 C 226.296875 113.195312 228.496094 111.398438 230.230469 110.351562 L 230.554688 110.152344 L 230.570312 109.765625 C 230.597656 109.074219 230.675781 108.347656 230.75 107.648438 C 230.804688 107.085938 230.871094 106.53125 230.90625 105.972656 C 231.019531 104.328125 231.0625 102.949219 231.054688 101.644531 C 231.046875 100.171875 230.933594 98.714844 230.820312 97.355469 C 230.726562 96.277344 230.511719 95.246094 230.308594 94.238281 C 230.257812 94.003906 230.207031 93.769531 230.164062 93.527344 C 231.199219 96.121094 231.367188 99.179688 231.398438 101.324219 C 231.417969 102.695312 231.375 104.140625 231.261719 105.875 C 231.238281 106.214844 231.21875 106.566406 231.203125 106.914062 C 231.160156 107.726562 231.117188 108.566406 231.019531 109.375 L 230.96875 109.78125 C 230.96875 109.78125 231.910156 110.5 232.25 110.757812 C 233.960938 112.046875 236.082031 113.644531 237.570312 115.296875 C 238.15625 115.945312 238.589844 116.53125 238.894531 117.109375 L 238.9375 117.214844 C 239.28125 117.972656 239.222656 119.105469 238.789062 120.480469 C 238.667969 120.816406 238.539062 121.164062 238.382812 121.542969 Z M 132.136719 255.007812 C 133.367188 254.867188 134.609375 254.71875 135.859375 254.582031 C 136.054688 254.558594 136.246094 254.539062 136.4375 254.519531 C 137.527344 254.398438 138.625 254.273438 139.734375 254.152344 C 139.863281 254.140625 140 254.125 140.128906 254.113281 C 141.324219 253.984375 142.535156 253.855469 143.746094 253.726562 C 143.773438 253.726562 143.800781 253.71875 143.832031 253.71875 C 145.132812 253.582031 146.445312 253.457031 147.769531 253.320312 C 147.769531 253.320312 147.777344 253.320312 147.777344 253.320312 C 147.707031 253.703125 147.632812 254.089844 147.554688 254.476562 C 147.101562 256.640625 146.386719 259.300781 145.625 262.109375 C 143.710938 269.230469 141.757812 276.523438 142.597656 280.261719 C 142.363281 280.289062 142.128906 280.308594 141.894531 280.339844 C 141.902344 280.367188 141.902344 280.394531 141.90625 280.417969 C 142.191406 281.6875 142.753906 282.578125 143.589844 283.0625 C 144.492188 283.597656 145.816406 283.980469 147.15625 284.253906 C 148.019531 284.152344 148.894531 284.058594 149.757812 283.960938 C 151.609375 284.195312 153.667969 284.324219 155.703125 284.324219 C 159.1875 284.324219 162.605469 283.953125 164.8125 283.105469 C 165.667969 282.777344 166.308594 282.378906 166.777344 281.929688 C 167.128906 281.886719 167.476562 281.84375 167.824219 281.800781 C 168.011719 281.535156 168.144531 281.265625 168.238281 280.980469 C 168.652344 279.675781 168.6875 278.441406 168.359375 277.207031 C 168.125 277.238281 167.890625 277.265625 167.652344 277.292969 C 167.199219 275.667969 166.085938 274.285156 164.925781 272.851562 C 164.15625 271.90625 163.367188 270.921875 162.71875 269.816406 C 160.589844 266.203125 160.746094 264.65625 161.371094 258.167969 L 161.429688 257.613281 C 161.558594 256.292969 162.242188 254.3125 163.316406 251.902344 C 178.871094 250.582031 195.230469 249.492188 211.414062 248.59375 C 211.519531 248.585938 211.617188 248.578125 211.726562 248.578125 C 218.070312 248.230469 224.386719 247.902344 230.613281 247.609375 C 230.8125 247.601562 231.011719 247.589844 231.210938 247.582031 C 234.296875 247.4375 237.359375 247.296875 240.382812 247.160156 C 240.078125 248.410156 239.695312 249.691406 239.316406 250.960938 C 238.0625 255.117188 236.878906 259.042969 238.476562 261.539062 C 239.253906 262.757812 240.585938 263.484375 242.542969 263.769531 C 245.726562 264.226562 247.90625 264.855469 249.59375 265.574219 C 249.128906 265.652344 248.660156 265.722656 248.199219 265.800781 C 248.582031 265.9375 248.960938 266.082031 249.316406 266.230469 C 251.0625 266.980469 252.242188 267.828125 253.488281 268.726562 C 253.773438 268.933594 254.074219 269.140625 254.371094 269.347656 C 254.707031 269.289062 255.054688 269.230469 255.390625 269.183594 C 256.003906 269.589844 256.660156 269.988281 257.414062 270.359375 C 261.738281 272.519531 270.730469 277.023438 274.734375 272.269531 C 275.988281 270.777344 276.472656 269.472656 276.257812 268.164062 C 276.128906 267.371094 275.753906 266.617188 275.132812 265.839844 C 275.398438 265.796875 275.652344 265.746094 275.917969 265.703125 C 275.839844 265.597656 275.773438 265.496094 275.6875 265.390625 C 274.855469 264.363281 273.574219 263.265625 271.59375 261.894531 C 271.257812 261.953125 270.925781 262.011719 270.589844 262.066406 C 269.277344 261.183594 267.742188 260.214844 265.9375 259.109375 C 258.808594 254.71875 256.488281 250.910156 255.292969 246.539062 C 284.613281 245.398438 309.675781 244.859375 323.050781 244.617188 C 323.8125 244.601562 324.554688 244.585938 325.238281 244.578125 C 326.070312 244.566406 326.839844 244.550781 327.550781 244.542969 C 328.136719 244.539062 328.691406 244.523438 329.191406 244.515625 C 329.824219 244.507812 330.378906 244.5 330.871094 244.496094 C 330.964844 244.496094 331.0625 244.496094 331.148438 244.488281 C 331.695312 244.480469 332.144531 244.472656 332.5 244.464844 C 333.101562 244.457031 333.699219 244.539062 334.273438 244.695312 L 345.3125 247.757812 C 344.828125 247.867188 344.324219 247.972656 343.8125 248.082031 L 353.089844 250.652344 C 353.691406 250.519531 354.1875 250.402344 354.566406 250.324219 L 350.605469 249.226562 L 367.199219 253.832031 C 368.5625 254.210938 368.816406 256.035156 367.605469 256.761719 C 355.414062 264.089844 306.683594 290.289062 211.140625 305.289062 C 209.453125 305.554688 207.773438 305.816406 206.097656 306.066406 C 205.53125 306.152344 204.964844 306.238281 204.398438 306.324219 C 203.300781 306.488281 202.210938 306.652344 201.121094 306.816406 C 200.445312 306.914062 199.765625 307.015625 199.097656 307.105469 C 198.121094 307.25 197.140625 307.390625 196.171875 307.527344 C 195.472656 307.628906 194.789062 307.71875 194.097656 307.820312 C 193.160156 307.949219 192.21875 308.082031 191.285156 308.210938 C 190.566406 308.3125 189.859375 308.40625 189.148438 308.503906 C 188.25 308.625 187.355469 308.746094 186.464844 308.859375 C 185.738281 308.960938 185.011719 309.054688 184.285156 309.144531 C 183.414062 309.261719 182.546875 309.375 181.683594 309.480469 C 180.949219 309.574219 180.222656 309.667969 179.5 309.753906 C 178.652344 309.859375 177.808594 309.957031 176.96875 310.066406 C 176.242188 310.152344 175.511719 310.242188 174.789062 310.328125 C 173.949219 310.429688 173.109375 310.527344 172.277344 310.621094 C 171.5625 310.707031 170.859375 310.785156 170.148438 310.863281 C 169.320312 310.957031 168.496094 311.050781 167.667969 311.140625 C 166.957031 311.21875 166.242188 311.300781 165.539062 311.378906 C 164.726562 311.464844 163.921875 311.546875 163.117188 311.632812 C 162.414062 311.707031 161.699219 311.785156 160.996094 311.855469 C 160.203125 311.933594 159.421875 312.011719 158.636719 312.089844 C 157.925781 312.160156 157.214844 312.234375 156.507812 312.296875 C 155.71875 312.375 154.941406 312.445312 154.15625 312.519531 C 153.472656 312.582031 152.785156 312.644531 152.105469 312.710938 C 151.28125 312.78125 150.460938 312.851562 149.640625 312.925781 C 149.007812 312.980469 148.375 313.039062 147.746094 313.089844 C 146.445312 313.195312 145.148438 313.300781 143.859375 313.402344 C 143.0625 313.464844 142.277344 313.523438 141.488281 313.582031 C 140.777344 313.628906 140.0625 313.6875 139.359375 313.738281 C 138.625 313.785156 137.890625 313.835938 137.164062 313.886719 C 136.507812 313.929688 135.855469 313.980469 135.207031 314.015625 C 134.464844 314.066406 133.730469 314.109375 133 314.152344 C 132.363281 314.1875 131.730469 314.230469 131.105469 314.265625 C 130.363281 314.308594 129.621094 314.351562 128.890625 314.386719 C 128.285156 314.421875 127.679688 314.449219 127.078125 314.480469 C 126.339844 314.515625 125.605469 314.550781 124.863281 314.585938 C 124.273438 314.613281 123.691406 314.640625 123.105469 314.664062 C 122.363281 314.699219 121.625 314.726562 120.890625 314.757812 C 120.335938 314.777344 119.773438 314.800781 119.21875 314.820312 C 118.46875 314.847656 117.730469 314.871094 116.996094 314.898438 C 116.453125 314.914062 115.917969 314.933594 115.378906 314.949219 C 114.628906 314.96875 113.890625 314.992188 113.148438 315.007812 C 112.644531 315.019531 112.136719 315.027344 111.632812 315.042969 C 110.878906 315.054688 110.121094 315.070312 109.375 315.085938 C 108.898438 315.089844 108.421875 315.097656 107.941406 315.105469 C 107.179688 315.113281 106.417969 315.128906 105.664062 315.128906 C 105.230469 315.128906 104.792969 315.132812 104.359375 315.132812 C 103.578125 315.132812 102.800781 315.140625 102.023438 315.140625 C 101.648438 315.140625 101.285156 315.140625 100.90625 315.132812 C 100.078125 315.132812 99.253906 315.128906 98.433594 315.121094 C 98.207031 315.121094 97.984375 315.113281 97.757812 315.113281 C 92.429688 315.050781 87.324219 314.878906 82.445312 314.601562 C 82.269531 314.59375 82.089844 314.578125 81.917969 314.570312 C 81.085938 314.519531 80.257812 314.464844 79.441406 314.414062 C 79.21875 314.398438 78.992188 314.386719 78.761719 314.371094 C 77.972656 314.316406 77.195312 314.257812 76.421875 314.195312 C 76.171875 314.171875 75.921875 314.15625 75.671875 314.136719 C 74.910156 314.070312 74.15625 314.007812 73.40625 313.9375 C 73.160156 313.914062 72.917969 313.894531 72.667969 313.871094 C 71.917969 313.800781 71.171875 313.730469 70.4375 313.652344 C 70.203125 313.628906 69.96875 313.601562 69.734375 313.582031 C 68.992188 313.5 68.257812 313.417969 67.523438 313.339844 C 67.3125 313.308594 67.089844 313.289062 66.875 313.257812 C 66.136719 313.175781 65.402344 313.082031 64.675781 312.988281 C 64.492188 312.96875 64.296875 312.9375 64.113281 312.917969 C 63.367188 312.816406 62.625 312.71875 61.890625 312.609375 C 61.75 312.589844 61.605469 312.566406 61.464844 312.546875 C 60.6875 312.433594 59.925781 312.320312 59.164062 312.199219 C 59.09375 312.183594 59.027344 312.175781 58.957031 312.160156 C 52.078125 311.050781 45.882812 309.636719 40.402344 307.921875 C 40.402344 307.921875 40.398438 307.921875 40.398438 307.921875 C 39.734375 307.714844 39.078125 307.5 38.4375 307.277344 C 38.402344 307.265625 38.359375 307.25 38.324219 307.242188 C 37.699219 307.027344 37.085938 306.816406 36.480469 306.59375 C 36.4375 306.578125 36.386719 306.558594 36.34375 306.542969 C 35.746094 306.324219 35.15625 306.09375 34.570312 305.867188 C 34.527344 305.851562 34.484375 305.832031 34.4375 305.816406 C 33.851562 305.589844 33.28125 305.347656 32.71875 305.109375 C 32.683594 305.097656 32.648438 305.082031 32.621094 305.070312 C 32.050781 304.820312 31.480469 304.570312 30.933594 304.320312 C 30.925781 304.3125 30.910156 304.3125 30.902344 304.304688 C 25.085938 301.609375 20.484375 298.417969 17.164062 294.722656 C 17.476562 294.710938 17.792969 294.695312 18.113281 294.683594 C 17.976562 294.539062 17.828125 294.398438 17.699219 294.246094 C 17.5 294.027344 17.300781 293.796875 17.085938 293.546875 L 17.085938 293.09375 L 16.710938 293.09375 C 16.496094 292.820312 16.28125 292.550781 16.082031 292.273438 L 15.96875 292.117188 L 15.8125 291.886719 C 15.675781 291.695312 15.542969 291.503906 15.414062 291.316406 L 15.414062 290.816406 L 15.09375 290.816406 C 14.984375 290.652344 14.894531 290.488281 14.792969 290.324219 C 14.523438 290.339844 14.25 290.347656 13.980469 290.363281 C 13.789062 290.027344 13.597656 289.683594 13.417969 289.34375 C 13.234375 288.980469 13.046875 288.609375 12.882812 288.238281 C 6.183594 273.238281 54.734375 264.191406 132.136719 255.007812 Z M 14.628906 291.4375 C 14.609375 291.410156 14.59375 291.375 14.574219 291.34375 C 14.59375 291.375 14.613281 291.402344 14.628906 291.4375 Z M 15.21875 292.292969 C 15.042969 292.035156 14.855469 291.78125 14.695312 291.523438 C 14.855469 291.78125 15.035156 292.035156 15.21875 292.292969 Z M 15.21875 292.292969 " fill-opacity="1" fill-rule="nonzero"/></g><path fill="#e1a3ff" d="M 239.039062 121.8125 C 238.882812 122.183594 238.71875 122.539062 238.539062 122.890625 C 238.53125 122.898438 238.53125 122.910156 238.527344 122.917969 C 238.355469 123.261719 238.175781 123.582031 238 123.894531 C 237.984375 123.917969 237.976562 123.929688 237.964844 123.953125 C 237.792969 124.25 237.613281 124.53125 237.441406 124.785156 C 237.429688 124.808594 237.414062 124.820312 237.40625 124.84375 C 237.238281 125.101562 237.074219 125.328125 236.921875 125.527344 C 235.113281 127.886719 232.578125 129.527344 229.714844 130.167969 C 229.480469 130.21875 229.261719 130.269531 229.117188 130.367188 C 228.941406 130.488281 228.8125 130.738281 228.667969 131.011719 C 227.558594 133.113281 226.105469 134.964844 224.703125 136.753906 C 223.148438 138.730469 221.5625 140.777344 220.449219 143.164062 C 220.398438 143.277344 220.328125 143.378906 220.277344 143.492188 C 220.273438 143.507812 220.121094 143.769531 219.84375 144.226562 C 218.226562 146.886719 212.082031 156.289062 201.867188 163.625 C 201.625 163.796875 201.390625 163.964844 201.148438 164.136719 C 201.078125 164.1875 201 164.214844 200.921875 164.230469 C 200.851562 164.246094 200.777344 164.246094 200.707031 164.230469 C 200.671875 164.222656 200.636719 164.210938 200.609375 164.195312 C 200.574219 164.1875 200.523438 164.1875 200.457031 164.1875 C 200.4375 164.1875 200.410156 164.1875 200.378906 164.1875 C 200.335938 164.1875 200.292969 164.1875 200.246094 164.1875 C 200.210938 164.1875 200.171875 164.1875 200.136719 164.1875 C 200.089844 164.1875 200.046875 164.1875 199.988281 164.1875 C 199.9375 164.1875 199.894531 164.1875 199.847656 164.195312 C 199.796875 164.195312 199.746094 164.195312 199.695312 164.203125 C 199.640625 164.203125 199.574219 164.210938 199.511719 164.210938 C 199.46875 164.210938 199.425781 164.214844 199.382812 164.214844 C 199.3125 164.222656 199.242188 164.222656 199.164062 164.230469 C 199.125 164.230469 199.082031 164.238281 199.046875 164.238281 C 198.96875 164.246094 198.890625 164.246094 198.8125 164.25 C 198.785156 164.25 198.757812 164.257812 198.726562 164.257812 C 198.636719 164.265625 198.542969 164.273438 198.449219 164.28125 C 198.351562 164.289062 198.242188 164.292969 198.144531 164.300781 C 198.128906 164.300781 198.113281 164.300781 198.101562 164.300781 C 197.902344 164.300781 197.710938 164.195312 197.609375 164.015625 C 197.546875 163.894531 197.472656 163.78125 197.402344 163.660156 C 192.929688 155.761719 187.398438 147.234375 178.585938 144.449219 C 178.472656 144.414062 178.371094 144.371094 178.257812 144.332031 C 178.066406 144.277344 177.917969 144.121094 177.875 143.925781 C 177.824219 143.734375 177.886719 143.527344 178.03125 143.386719 C 183.292969 138.382812 188.992188 135.429688 189.816406 135.015625 C 189.816406 135.015625 189.816406 135.015625 189.816406 135.007812 C 189.855469 134.964844 189.894531 134.917969 189.953125 134.839844 C 189.976562 134.816406 189.996094 134.78125 190.015625 134.753906 C 190.066406 134.695312 190.109375 134.632812 190.167969 134.554688 C 190.203125 134.511719 190.230469 134.460938 190.265625 134.410156 C 190.324219 134.332031 190.375 134.253906 190.4375 134.160156 C 190.480469 134.097656 190.523438 134.03125 190.566406 133.960938 C 190.628906 133.863281 190.6875 133.761719 190.75 133.648438 C 190.800781 133.5625 190.84375 133.484375 190.902344 133.390625 C 190.964844 133.269531 191.035156 133.148438 191.101562 133.011719 C 191.148438 132.914062 191.199219 132.820312 191.25 132.714844 C 191.320312 132.5625 191.398438 132.398438 191.46875 132.234375 C 191.511719 132.136719 191.5625 132.035156 191.605469 131.929688 C 191.71875 131.652344 191.839844 131.367188 191.949219 131.050781 C 191.953125 131.046875 191.953125 131.03125 191.960938 131.023438 C 192.074219 130.695312 192.191406 130.355469 192.296875 129.992188 C 192.304688 129.96875 192.3125 129.941406 192.316406 129.917969 C 192.359375 129.777344 192.394531 129.613281 192.433594 129.464844 C 192.488281 129.242188 192.546875 129.027344 192.601562 128.792969 C 192.609375 128.757812 192.617188 128.722656 192.625 128.6875 C 192.679688 128.40625 192.730469 128.117188 192.78125 127.824219 C 192.800781 127.695312 192.832031 127.582031 192.851562 127.445312 C 192.859375 127.417969 192.859375 127.382812 192.867188 127.351562 C 192.953125 126.761719 193 126.132812 193.039062 125.476562 C 193.042969 125.40625 193.042969 125.328125 193.042969 125.257812 C 193.074219 124.59375 193.074219 123.902344 193.042969 123.175781 C 193.042969 123.175781 193.042969 123.175781 193.042969 123.167969 C 193.039062 122.988281 193.039062 122.820312 193.03125 122.632812 C 193.007812 122.328125 192.964844 122.007812 192.9375 121.691406 C 192.902344 121.351562 192.875 121.023438 192.832031 120.664062 C 192.789062 120.359375 192.722656 120.03125 192.675781 119.71875 C 192.609375 119.339844 192.546875 118.953125 192.460938 118.5625 C 192.390625 118.226562 192.304688 117.878906 192.21875 117.527344 C 192.152344 117.25 192.097656 116.988281 192.027344 116.703125 C 191.976562 116.523438 192.019531 116.332031 192.140625 116.1875 C 192.261719 116.046875 192.433594 115.976562 192.625 115.996094 C 192.714844 116.011719 192.835938 115.988281 192.980469 115.953125 C 194.246094 115.613281 197.269531 113.316406 199.527344 111.605469 C 201.121094 110.398438 202.75 109.167969 204.113281 108.289062 C 204.078125 106.160156 204.183594 103.941406 203.878906 101.824219 C 203.71875 100.753906 203.472656 99.679688 203.179688 98.636719 C 202.914062 97.710938 202.738281 96.632812 201.996094 95.984375 C 201.703125 95.730469 201.867188 95.257812 202.226562 95.171875 C 202.835938 95.023438 203.242188 95.335938 203.542969 95.785156 C 203.777344 96.136719 203.941406 96.554688 204.082031 96.914062 C 204.566406 98.152344 204.996094 99.414062 205.34375 100.699219 C 206.019531 103.171875 206.675781 105.601562 206.660156 108.183594 C 211.652344 110.648438 214.382812 114.914062 216.40625 118.085938 C 216.632812 118.441406 216.851562 118.789062 217.066406 119.117188 C 218.746094 118.414062 221.347656 116.296875 223.863281 114.242188 C 225.933594 112.554688 228.0625 110.820312 229.816406 109.757812 C 229.867188 108.488281 230.070312 107.207031 230.15625 105.953125 C 230.257812 104.527344 230.3125 103.101562 230.308594 101.675781 C 230.300781 100.257812 230.199219 98.851562 230.070312 97.445312 C 229.945312 95.957031 229.574219 94.554688 229.308594 93.089844 C 229.296875 93.011719 229.273438 92.925781 229.261719 92.847656 C 229.183594 92.386719 229.660156 92.015625 230.042969 92.109375 C 230.179688 92.144531 230.308594 92.230469 230.390625 92.398438 C 230.414062 92.449219 230.433594 92.5 230.457031 92.550781 C 231.730469 95.207031 232.023438 98.453125 232.066406 101.355469 C 232.085938 102.886719 232.03125 104.425781 231.929688 105.960938 C 231.851562 107.113281 231.824219 108.324219 231.679688 109.496094 C 231.988281 109.730469 232.292969 109.964844 232.636719 110.222656 C 234.429688 111.578125 236.539062 113.171875 238.054688 114.855469 C 238.625 115.484375 239.117188 116.125 239.464844 116.773438 C 239.5 116.832031 239.515625 116.902344 239.542969 116.964844 C 240.007812 118 239.859375 119.359375 239.421875 120.738281 C 239.332031 121.078125 239.1875 121.449219 239.039062 121.8125 Z M 239.039062 121.8125 " fill-opacity="1" fill-rule="nonzero"/><path fill="#e1a3ff" d="M 350.585938 249.226562 L 354.542969 250.324219 C 349.082031 251.558594 319.738281 258.082031 275.113281 265.832031 C 274.1875 264.683594 272.691406 263.492188 270.566406 262.058594 C 306.007812 255.964844 332.28125 250.5625 345.300781 247.757812 Z M 350.585938 249.226562 " fill-opacity="1" fill-rule="nonzero"/><path fill="#e1a3ff" d="M 142.585938 280.261719 C 142.8125 281.273438 143.234375 282.042969 143.929688 282.449219 C 145.070312 283.117188 147.207031 283.640625 149.734375 283.960938 C 108.484375 288.714844 63.492188 292.679688 17.152344 294.703125 C 16.878906 294.402344 16.609375 294.097656 16.351562 293.789062 C 16.304688 293.734375 16.253906 293.675781 16.203125 293.613281 C 15.953125 293.304688 15.71875 292.992188 15.484375 292.679688 C 15.449219 292.628906 15.40625 292.570312 15.371094 292.523438 C 15.3125 292.441406 15.261719 292.363281 15.207031 292.285156 C 15.027344 292.03125 14.84375 291.773438 14.679688 291.515625 C 14.65625 291.488281 14.644531 291.460938 14.621094 291.429688 C 14.601562 291.402344 14.585938 291.367188 14.566406 291.339844 C 14.351562 291.011719 14.152344 290.683594 13.960938 290.347656 C 58.773438 288.480469 102.367188 284.765625 142.585938 280.261719 Z M 142.585938 280.261719 " fill-opacity="1" fill-rule="nonzero"/><path fill="#e1a3ff" d="M 167.640625 277.300781 C 197.59375 273.582031 225.242188 269.515625 249.578125 265.566406 C 251.382812 266.335938 252.621094 267.222656 253.886719 268.132812 C 254.367188 268.476562 254.851562 268.824219 255.375 269.167969 C 229.402344 273.4375 199.441406 277.894531 166.769531 281.929688 C 167.140625 281.570312 167.417969 281.1875 167.554688 280.765625 C 167.953125 279.460938 167.933594 278.335938 167.640625 277.300781 Z M 167.640625 277.300781 " fill-opacity="1" fill-rule="nonzero"/><path fill="#200e89" d="M 200.335938 77.855469 C 200.472656 77.363281 200.609375 76.867188 200.730469 76.375 C 200.921875 75.574219 201.078125 74.757812 201.226562 73.9375 C 201.761719 71.113281 202.308594 68.203125 204.355469 66.109375 C 206.0625 64.355469 208.707031 63.414062 211.582031 63.542969 C 212.136719 63.5625 212.6875 63.628906 213.226562 63.71875 C 213.847656 63.25 214.496094 62.863281 215.144531 62.585938 C 220.871094 60.15625 228.71875 60.855469 233.796875 64.242188 C 235.007812 65.046875 236.105469 66.023438 237.164062 66.972656 C 238.574219 68.226562 239.902344 69.410156 241.488281 70.25 C 243.953125 71.5625 246.835938 71.910156 249.351562 72.140625 L 249.785156 72.175781 C 252.015625 72.375 254.316406 72.574219 256.324219 73.679688 C 258.453125 74.847656 260.269531 77.492188 259.4375 80.074219 C 259.316406 80.453125 259.144531 80.808594 258.972656 81.152344 C 258.703125 81.707031 258.445312 82.226562 258.460938 82.753906 C 258.496094 84.207031 260.40625 84.957031 262.007812 85.335938 C 262.839844 85.527344 263.675781 85.742188 264.5 85.960938 C 264.65625 86.003906 264.8125 86.046875 264.96875 86.089844 C 265.816406 86.324219 266.65625 86.582031 267.476562 86.875 C 266.738281 87.109375 266.152344 87.300781 265.769531 87.425781 C 265.582031 87.488281 265.433594 87.539062 265.355469 87.566406 C 264.527344 87.628906 256.859375 88.195312 250.675781 88.644531 C 250.027344 87.011719 248.894531 85.613281 247.699219 84.324219 C 246.195312 82.703125 244.472656 81.25 243.382812 79.296875 C 243.339844 79.226562 243.203125 79.277344 243.242188 79.355469 C 244.046875 81.265625 245.390625 82.847656 246.792969 84.335938 C 247.34375 84.921875 247.890625 85.519531 248.398438 86.148438 C 249.265625 87.238281 249.992188 88.4375 250.347656 89.8125 C 250.425781 90.117188 250.820312 90.097656 250.96875 89.898438 C 250.988281 90.003906 251.011719 90.105469 251.023438 90.210938 C 251.109375 90.816406 251.074219 91.421875 250.933594 91.992188 C 250.847656 92.351562 250.734375 92.691406 250.5625 93.003906 C 250.378906 93.339844 250.148438 93.648438 249.933594 93.941406 C 249.722656 94.230469 249.515625 94.515625 249.367188 94.800781 C 249.265625 94.988281 249.1875 95.179688 249.160156 95.378906 C 248.96875 96.597656 250.242188 97.546875 251.472656 98.464844 L 251.914062 98.792969 C 252.542969 99.273438 253.089844 99.808594 253.566406 100.378906 C 253.753906 100.597656 253.929688 100.828125 254.09375 101.0625 C 253.910156 101.027344 253.6875 101.210938 253.808594 101.433594 C 254.742188 103.101562 255.535156 105.382812 255.121094 107.3125 C 254.855469 108.554688 253.960938 109.265625 252.890625 109.667969 C 252.371094 109.859375 251.808594 109.980469 251.246094 110.042969 C 249.4375 110.230469 247.421875 110.121094 245.796875 111.078125 C 245.554688 111.21875 245.304688 111.414062 245.058594 111.632812 C 244.695312 111.953125 244.351562 112.332031 244.09375 112.761719 C 243.6875 113.429688 243.496094 114.191406 243.796875 114.90625 C 244.058594 115.527344 244.972656 115.453125 245.035156 114.75 C 245.078125 114.285156 245.035156 113.894531 245.25 113.464844 C 245.40625 113.152344 245.632812 112.882812 245.890625 112.644531 C 245.917969 112.617188 245.945312 112.582031 245.976562 112.554688 C 246.730469 111.890625 247.726562 111.648438 248.703125 111.527344 C 250.234375 111.335938 251.773438 111.347656 253.199219 110.777344 C 253.425781 110.683594 253.644531 110.585938 253.867188 110.464844 C 255.414062 109.59375 255.976562 108.167969 255.867188 106.445312 C 255.761719 104.648438 255.21875 102.90625 254.328125 101.347656 C 261.335938 99.414062 266.957031 97.746094 267.519531 97.582031 C 267.5625 97.566406 269.683594 96.875 275.730469 95.90625 C 276.066406 95.851562 276.414062 95.800781 276.777344 95.742188 C 276.84375 95.992188 276.890625 96.25 276.933594 96.507812 C 276.957031 96.621094 276.972656 96.734375 276.984375 96.847656 C 277.035156 97.21875 277.070312 97.589844 277.085938 97.96875 C 277.09375 98.160156 277.097656 98.34375 277.097656 98.539062 C 277.097656 98.730469 277.085938 98.921875 277.078125 99.109375 C 277.0625 99.371094 277.035156 99.644531 277 99.90625 C 276.984375 100.027344 276.972656 100.15625 276.949219 100.277344 C 276.886719 100.648438 276.800781 101.011719 276.699219 101.375 C 276.671875 101.480469 276.636719 101.589844 276.601562 101.695312 C 276.480469 102.082031 276.34375 102.464844 276.171875 102.835938 C 275.875 103.5 275.503906 104.132812 275.148438 104.746094 C 274.472656 105.917969 273.828125 107.019531 273.652344 108.261719 C 273.488281 109.410156 273.738281 110.570312 274 111.796875 C 274.273438 113.058594 274.550781 114.363281 274.363281 115.695312 C 273.828125 119.476562 269.8125 121.722656 266.066406 122.277344 C 264.722656 122.476562 263.347656 122.535156 262.015625 122.597656 C 259.75 122.699219 257.613281 122.796875 255.574219 123.496094 C 254.921875 123.722656 254.265625 124.023438 253.632812 124.308594 C 252.949219 124.617188 252.242188 124.9375 251.503906 125.1875 C 250.335938 125.578125 249.101562 125.769531 247.871094 125.769531 C 245.085938 125.769531 242.308594 124.792969 240.183594 122.96875 C 239.765625 122.605469 239.378906 122.207031 239.003906 121.800781 C 239.152344 121.4375 239.296875 121.066406 239.417969 120.6875 C 239.851562 119.3125 239.992188 117.949219 239.539062 116.917969 C 239.359375 115.078125 238.839844 113.171875 238.253906 111.242188 C 238 110.386719 237.636719 109.359375 237.273438 108.324219 C 236.972656 107.484375 236.679688 106.644531 236.445312 105.902344 C 239.109375 105.304688 242.007812 104.589844 244.9375 103.835938 C 244.75 103.5 244.53125 103.164062 244.28125 102.835938 C 243.761719 102.144531 243.097656 101.46875 242.292969 100.796875 C 242.265625 100.777344 242.242188 100.753906 242.214844 100.726562 C 241.953125 100.503906 241.671875 100.296875 241.394531 100.085938 C 240.988281 99.777344 240.578125 99.472656 240.164062 99.179688 C 238.996094 98.332031 237.785156 97.460938 236.746094 96.390625 C 235.277344 94.894531 234.792969 93.417969 234.828125 91.992188 C 234.835938 91.609375 234.886719 91.222656 234.964844 90.847656 C 233.617188 90.996094 232.238281 91.152344 230.828125 91.316406 C 230.855469 91.292969 230.875 91.265625 230.90625 91.246094 C 231.210938 91.03125 231.554688 90.859375 231.910156 90.675781 C 232.203125 90.523438 232.488281 90.375 232.765625 90.203125 C 234.273438 89.277344 235.769531 87.546875 236.4375 85.761719 C 236.394531 85.179688 236.210938 84.652344 235.789062 84.292969 C 235.777344 84.28125 235.761719 84.273438 235.75 84.265625 C 235.363281 83.960938 234.871094 83.816406 234.351562 83.667969 C 234.324219 83.660156 234.296875 83.644531 234.265625 83.636719 C 234.109375 83.597656 233.960938 83.546875 233.8125 83.496094 C 233.761719 83.480469 233.703125 83.46875 233.65625 83.445312 C 233.140625 83.269531 232.828125 82.96875 232.558594 82.703125 C 232.394531 82.546875 232.238281 82.398438 232.039062 82.277344 C 232.023438 82.269531 232.015625 82.253906 232.003906 82.25 C 231.960938 82.21875 231.910156 82.207031 231.859375 82.175781 C 231.832031 82.277344 231.796875 82.371094 231.761719 82.460938 C 231.339844 83.765625 230.777344 85.027344 230.066406 86.210938 C 229.964844 86.367188 229.792969 86.46875 229.617188 86.46875 C 229.59375 86.46875 229.582031 86.46875 229.558594 86.46875 C 229.351562 86.445312 229.183594 86.3125 229.117188 86.113281 C 228.761719 85.078125 228.546875 83.988281 228.339844 82.941406 C 228.207031 82.234375 228.054688 81.550781 227.886719 80.886719 C 227.820312 80.851562 227.75 80.816406 227.6875 80.773438 C 226.683594 80.109375 226.121094 79.070312 225.578125 78.0625 L 225.441406 77.8125 C 224.503906 76.097656 223.433594 75.226562 222.167969 75.140625 C 221.363281 75.097656 220.585938 75.304688 219.765625 75.539062 C 219.019531 75.746094 218.25 75.96875 217.421875 75.980469 C 215.707031 76.011719 214.375 75.113281 213.328125 74.390625 C 212.097656 73.535156 211.46875 73.152344 210.648438 73.730469 C 210.535156 73.808594 210.394531 73.84375 210.25 73.816406 C 210.109375 73.785156 209.988281 73.707031 209.910156 73.585938 C 209.488281 72.960938 209.082031 72.730469 208.449219 72.773438 C 207.507812 72.839844 207.0625 74.269531 206.941406 74.707031 L 206.882812 74.917969 C 206.597656 76.003906 206.277344 77.230469 205.195312 77.835938 C 205.007812 77.933594 204.808594 78.015625 204.617188 78.085938 C 204.433594 78.15625 204.253906 78.21875 204.113281 78.304688 C 204.113281 78.304688 204.105469 78.3125 204.105469 78.3125 C 203.605469 78.65625 203.5 79.441406 203.476562 79.882812 C 203.472656 80.082031 203.472656 80.289062 203.472656 80.488281 C 203.472656 80.914062 203.472656 81.355469 203.394531 81.804688 C 203.433594 82.292969 203.464844 82.777344 203.476562 83.253906 C 203.265625 83.261719 203.050781 83.21875 202.867188 83.0625 C 202.824219 83.125 202.765625 83.183594 202.714844 83.246094 C 202.824219 83.597656 203.152344 83.832031 203.476562 83.953125 C 203.476562 84.164062 203.476562 84.371094 203.464844 84.585938 C 203.3125 86.867188 203.285156 89.234375 203.742188 91.496094 C 203.898438 92.273438 204.121094 93.027344 204.410156 93.769531 C 204.402344 93.769531 204.398438 93.769531 204.390625 93.769531 C 204.339844 93.789062 204.3125 93.847656 204.324219 93.898438 C 204.375 94.089844 204.46875 94.269531 204.539062 94.445312 C 204.433594 94.460938 204.324219 94.472656 204.21875 94.488281 C 203.144531 92.804688 202.304688 90.980469 201.570312 89.199219 C 201.539062 89.136719 201.519531 89.078125 201.492188 89.011719 C 201.257812 88.449219 201.035156 87.886719 200.816406 87.339844 C 200.257812 85.941406 199.632812 84.359375 199.53125 82.710938 C 199.445312 81.070312 199.894531 79.433594 200.335938 77.855469 Z M 243.441406 108.710938 C 243.148438 109.125 242.933594 109.859375 243.097656 110.386719 C 243.132812 110.5 243.183594 110.613281 243.261719 110.707031 C 243.410156 110.878906 243.761719 110.878906 243.917969 110.707031 C 244.144531 110.449219 244.132812 110.164062 244.167969 109.867188 C 244.171875 109.78125 244.1875 109.6875 244.210938 109.59375 C 244.300781 109.246094 244.523438 109.023438 244.800781 108.8125 C 244.992188 108.660156 245.171875 108.488281 245.335938 108.320312 C 245.640625 107.992188 245.898438 107.628906 246.054688 107.191406 C 246.273438 106.550781 246.339844 105.808594 246.183594 105.152344 C 246.023438 104.492188 245.675781 103.992188 245.128906 103.59375 C 245.105469 103.578125 245.078125 103.605469 245.09375 103.628906 C 245.492188 104.191406 245.777344 104.945312 245.777344 105.644531 C 245.777344 105.824219 245.753906 106 245.710938 106.164062 C 245.597656 106.652344 245.335938 107.085938 244.964844 107.441406 C 244.480469 107.90625 243.839844 108.140625 243.441406 108.710938 Z M 243.441406 108.710938 " fill-opacity="1" fill-rule="nonzero"/><path fill="#200e89" d="M 250.976562 89.910156 C 251.023438 89.847656 251.046875 89.761719 251.019531 89.65625 C 250.96875 89.46875 250.910156 89.292969 250.855469 89.113281 C 250.804688 88.957031 250.746094 88.808594 250.683594 88.648438 C 250.035156 87.015625 248.902344 85.621094 247.707031 84.328125 C 246.203125 82.710938 244.480469 81.257812 243.390625 79.304688 C 243.347656 79.234375 243.210938 79.28125 243.246094 79.359375 C 244.050781 81.273438 245.398438 82.855469 246.800781 84.34375 C 247.351562 84.929688 247.898438 85.527344 248.402344 86.15625 C 249.273438 87.246094 250 88.441406 250.355469 89.820312 C 250.433594 90.140625 250.824219 90.117188 250.976562 89.910156 Z M 94.644531 129.769531 C 94.980469 129.5625 95.292969 129.726562 95.644531 129.828125 C 95.933594 129.90625 96.21875 129.984375 96.511719 130.0625 C 96.691406 130.113281 96.867188 130.160156 97.046875 130.210938 C 97.949219 130.460938 98.855469 130.703125 99.757812 130.953125 C 100.664062 131.203125 101.574219 131.421875 102.464844 131.722656 C 102.621094 131.773438 102.777344 131.835938 102.9375 131.894531 C 103.699219 132.15625 104.453125 132.449219 105.214844 132.714844 C 105.34375 132.757812 105.292969 132.933594 105.15625 132.90625 C 104.203125 132.714844 103.242188 132.558594 102.28125 132.351562 C 101.363281 132.152344 100.464844 131.878906 99.558594 131.628906 C 98.65625 131.378906 97.75 131.132812 96.847656 130.882812 C 96.375 130.753906 95.90625 130.625 95.445312 130.496094 C 95.171875 130.417969 94.886719 130.390625 94.695312 130.210938 C 94.644531 130.160156 94.597656 130.113281 94.558594 130.039062 C 94.539062 129.992188 94.53125 129.941406 94.546875 129.890625 C 94.574219 129.839844 94.601562 129.796875 94.644531 129.769531 Z M 224.496094 81.691406 C 223.71875 80.644531 222.445312 80.324219 221.210938 80.28125 C 220.421875 80.253906 219.632812 80.257812 218.839844 80.273438 C 218.449219 80.28125 218.058594 80.296875 217.664062 80.300781 C 217.296875 80.316406 216.824219 80.394531 216.5625 80.074219 C 216.453125 79.945312 216.382812 79.746094 216.496094 79.589844 C 216.78125 79.195312 217.222656 79.253906 217.664062 79.238281 C 218.105469 79.226562 218.546875 79.203125 218.988281 79.195312 C 219.929688 79.175781 220.839844 79.21875 221.769531 79.398438 C 223.058594 79.644531 224.367188 80.238281 224.75 81.59375 C 224.789062 81.75 224.574219 81.804688 224.496094 81.691406 Z M 216.113281 94.210938 C 215.699219 94.175781 215.300781 94.089844 214.9375 93.933594 C 214.753906 93.859375 214.589844 93.761719 214.425781 93.65625 C 214.332031 93.597656 214.183594 93.503906 213.898438 93.453125 C 213.597656 93.390625 213.207031 93.535156 213.09375 93.597656 C 212.929688 93.667969 212.957031 93.648438 212.914062 93.660156 L 212.816406 93.667969 C 212.742188 93.667969 212.664062 93.667969 212.59375 93.660156 C 212.542969 93.648438 212.558594 93.675781 212.460938 93.617188 C 212.386719 93.574219 212.257812 93.460938 211.980469 93.398438 C 211.691406 93.328125 211.347656 93.453125 211.234375 93.554688 C 210.957031 93.777344 211.050781 93.769531 211 93.824219 C 210.96875 93.875 210.929688 93.925781 210.871094 93.96875 C 210.644531 94.144531 210.25 94.210938 209.875 94.117188 C 209.445312 94.0625 209.097656 93.890625 208.707031 93.617188 C 208.648438 93.582031 208.570312 93.597656 208.535156 93.648438 C 208.507812 93.691406 208.507812 93.746094 208.535156 93.789062 L 208.542969 93.796875 C 209.0625 94.53125 209.953125 95.28125 211.242188 95.125 C 211.347656 95.109375 211.453125 95.066406 211.5625 95.03125 C 211.648438 95.101562 211.746094 95.171875 211.839844 95.222656 C 212.175781 95.410156 212.550781 95.492188 212.929688 95.464844 C 213.121094 95.449219 213.304688 95.414062 213.492188 95.34375 C 213.667969 95.28125 213.890625 95.152344 213.917969 95.109375 C 213.996094 95.066406 213.828125 95.117188 213.753906 95.082031 C 213.699219 95.050781 213.753906 95.042969 213.875 95.066406 C 214.132812 95.117188 214.394531 95.152344 214.652344 95.179688 C 215.164062 95.222656 215.671875 95.207031 216.164062 95.136719 C 216.496094 95.085938 216.824219 94.988281 217.144531 94.878906 C 216.207031 95.644531 215.171875 96.207031 214.105469 96.449219 C 213.398438 96.613281 212.679688 96.597656 212.179688 96.371094 C 211.53125 96.0625 210.90625 95.734375 210.34375 95.230469 L 210.324219 95.207031 C 210.195312 95.09375 210 95.101562 209.886719 95.230469 C 209.816406 95.300781 209.796875 95.410156 209.816406 95.5 C 210.007812 96.476562 210.765625 97.183594 211.5625 97.640625 C 212.558594 98.152344 213.597656 97.988281 214.460938 97.738281 C 216.191406 97.183594 217.488281 95.878906 218.199219 94.390625 C 218.398438 94.261719 218.589844 94.125 218.769531 93.976562 C 218.832031 93.917969 218.839844 93.820312 218.789062 93.753906 C 218.742188 93.699219 218.664062 93.683594 218.597656 93.71875 C 217.800781 94.125 216.933594 94.273438 216.113281 94.210938 Z M 212.023438 94.859375 C 212.011719 94.878906 211.925781 94.921875 211.816406 94.945312 C 211.953125 94.875 212.097656 94.78125 212.023438 94.859375 Z M 212.601562 91.046875 C 212.4375 91.050781 212.273438 91.050781 212.117188 91.058594 C 212.074219 91.074219 212.03125 91.09375 211.980469 91.09375 C 211.917969 91.09375 211.855469 91.089844 211.789062 91.082031 C 211.625 91.058594 211.460938 91.039062 211.296875 91.007812 C 211.007812 90.953125 210.726562 90.859375 210.457031 90.738281 C 210.34375 90.6875 210.238281 90.625 210.136719 90.554688 C 210.09375 90.523438 210.058594 90.496094 210.015625 90.46875 C 210.039062 90.480469 210.050781 90.496094 210.074219 90.511719 C 210.058594 90.511719 210.003906 90.46875 209.996094 90.460938 C 209.917969 90.402344 209.832031 90.347656 209.761719 90.28125 C 209.480469 90.03125 209.289062 89.65625 209.332031 89.269531 C 209.355469 89.0625 209.410156 88.90625 209.554688 88.757812 C 209.71875 88.585938 209.964844 88.527344 210.195312 88.558594 C 210.601562 88.605469 210.96875 89.019531 210.828125 89.457031 C 210.828125 89.5 210.828125 89.542969 210.835938 89.578125 C 210.835938 89.589844 210.84375 89.605469 210.84375 89.613281 C 210.847656 89.625 210.84375 89.621094 210.847656 89.625 C 210.855469 89.640625 210.878906 89.675781 210.890625 89.699219 C 210.898438 89.707031 210.914062 89.710938 210.921875 89.726562 C 210.941406 89.746094 211.0625 89.867188 210.964844 89.769531 C 210.992188 89.796875 211.035156 89.820312 211.070312 89.839844 C 211.148438 89.890625 211.226562 89.933594 211.3125 89.976562 C 211.355469 89.996094 211.398438 90.019531 211.449219 90.039062 C 211.460938 90.046875 211.492188 90.0625 211.511719 90.070312 C 211.589844 90.097656 211.667969 90.125 211.746094 90.148438 C 211.917969 90.195312 212.074219 90.246094 212.222656 90.324219 C 212.378906 90.375 212.542969 90.417969 212.703125 90.46875 C 213.027344 90.554688 212.949219 91.03125 212.601562 91.046875 Z M 209.917969 79.972656 C 208.75 79.945312 207.59375 79.761719 206.417969 79.816406 C 205.578125 79.859375 204.875 80.222656 204.367188 80.867188 C 204.296875 80.957031 204.21875 81.035156 204.15625 81.136719 C 204.082031 81.257812 203.914062 81.171875 203.933594 81.050781 C 203.992188 80.695312 204.125 80.410156 204.296875 80.160156 C 205.109375 78.960938 207.023438 78.820312 208.386719 78.90625 C 208.683594 78.925781 208.976562 78.949219 209.277344 78.976562 C 209.566406 79.003906 209.886719 78.996094 210.171875 79.070312 C 210.402344 79.125 210.621094 79.320312 210.585938 79.574219 C 210.527344 79.894531 210.195312 79.980469 209.917969 79.972656 Z M 244.964844 107.433594 C 245.335938 107.078125 245.597656 106.644531 245.710938 106.160156 C 245.746094 105.988281 245.777344 105.816406 245.777344 105.636719 C 245.777344 104.941406 245.492188 104.191406 245.09375 103.621094 C 245.078125 103.597656 245.105469 103.570312 245.128906 103.585938 C 245.675781 103.984375 246.023438 104.484375 246.183594 105.144531 C 246.339844 105.808594 246.273438 106.550781 246.054688 107.183594 C 245.90625 107.621094 245.648438 107.984375 245.335938 108.3125 C 245.171875 108.488281 244.992188 108.652344 244.800781 108.804688 C 244.523438 109.023438 244.300781 109.238281 244.210938 109.585938 C 244.1875 109.679688 244.171875 109.765625 244.167969 109.859375 C 244.136719 110.15625 244.144531 110.441406 243.917969 110.699219 C 243.769531 110.871094 243.410156 110.871094 243.261719 110.699219 C 243.183594 110.605469 243.132812 110.5 243.097656 110.378906 C 242.925781 109.851562 243.148438 109.117188 243.441406 108.703125 C 243.839844 108.140625 244.480469 107.90625 244.964844 107.433594 Z M 203.507812 83.304688 C 203.578125 83.304688 203.640625 83.296875 203.714844 83.289062 C 203.984375 83.261719 204.246094 83.175781 204.53125 83.082031 C 204.554688 83.074219 204.566406 83.066406 204.582031 83.066406 C 204.886719 82.953125 205.214844 82.847656 205.601562 82.746094 C 205.984375 82.660156 206.382812 82.640625 206.777344 82.648438 C 208.335938 82.71875 209.886719 83.644531 210.429688 85.058594 C 210.4375 85.078125 210.4375 85.113281 210.421875 85.136719 C 210.394531 85.179688 210.34375 85.183594 210.300781 85.164062 C 209.910156 84.9375 209.53125 84.75 209.160156 84.585938 C 209.167969 84.621094 209.175781 84.65625 209.183594 84.6875 C 209.191406 84.773438 209.175781 84.863281 209.15625 84.949219 C 209.117188 85.101562 209.019531 85.257812 208.90625 85.363281 C 208.785156 85.484375 208.640625 85.554688 208.476562 85.605469 C 208.398438 85.628906 208.300781 85.632812 208.230469 85.640625 C 208.144531 85.648438 208.050781 85.632812 207.964844 85.621094 C 207.9375 85.613281 207.90625 85.613281 207.878906 85.597656 C 207.816406 85.578125 207.75 85.554688 207.6875 85.519531 C 207.628906 85.492188 207.558594 85.433594 207.523438 85.398438 C 207.375 85.285156 207.296875 85.105469 207.222656 84.941406 C 207.167969 84.800781 207.140625 84.652344 207.132812 84.5 C 207.125 84.402344 207.140625 84.292969 207.167969 84.203125 C 207.179688 84.144531 207.210938 84.09375 207.230469 84.042969 C 207.058594 84.023438 206.890625 83.996094 206.71875 83.988281 C 206.113281 83.9375 205.570312 84.050781 204.808594 84.136719 C 204.722656 84.144531 204.632812 84.144531 204.546875 84.144531 C 204.246094 84.160156 203.925781 84.144531 203.621094 84.050781 C 203.585938 84.042969 203.554688 84.023438 203.519531 84.007812 C 203.191406 83.886719 202.867188 83.652344 202.757812 83.304688 C 202.808594 83.238281 202.867188 83.1875 202.910156 83.117188 C 203.078125 83.269531 203.292969 83.304688 203.507812 83.304688 Z M 219.167969 85.570312 C 219.296875 85.742188 219.375 85.820312 219.550781 85.933594 C 219.566406 85.941406 219.574219 85.949219 219.589844 85.957031 C 219.660156 85.992188 219.730469 86.019531 219.808594 86.039062 C 219.832031 86.046875 219.851562 86.054688 219.878906 86.0625 C 219.957031 86.078125 220.042969 86.089844 220.128906 86.089844 C 220.144531 86.089844 220.152344 86.089844 220.164062 86.089844 C 220.257812 86.082031 220.351562 86.078125 220.441406 86.054688 C 220.535156 86.035156 220.621094 85.992188 220.699219 85.957031 C 220.71875 85.949219 220.742188 85.933594 220.757812 85.917969 C 220.820312 85.875 220.882812 85.828125 220.949219 85.777344 C 220.957031 85.769531 220.960938 85.761719 220.976562 85.753906 C 220.984375 85.75 220.992188 85.742188 221 85.726562 C 221.046875 85.671875 221.097656 85.613281 221.140625 85.554688 C 221.175781 85.511719 221.191406 85.457031 221.210938 85.40625 C 221.234375 85.355469 221.261719 85.304688 221.269531 85.257812 C 221.304688 85.070312 221.320312 84.914062 221.261719 84.730469 C 221.253906 84.699219 221.242188 84.671875 221.226562 84.636719 C 221.648438 84.742188 222.089844 84.859375 222.59375 84.949219 C 223.371094 85.09375 224.375 84.992188 224.894531 84.34375 C 224.910156 84.324219 224.910156 84.292969 224.886719 84.28125 C 224.871094 84.273438 224.859375 84.265625 224.84375 84.273438 C 224.109375 84.480469 223.484375 84.273438 222.863281 83.996094 C 222.25 83.71875 221.554688 83.324219 220.75 83.148438 C 219.980469 82.945312 219.011719 82.910156 218.222656 83.289062 C 217.480469 83.636719 216.738281 84.179688 216.503906 85.035156 C 216.488281 85.101562 216.527344 85.171875 216.589844 85.183594 C 216.625 85.191406 216.652344 85.183594 216.683594 85.171875 L 216.703125 85.15625 C 217.324219 84.785156 217.980469 84.613281 218.613281 84.472656 C 218.777344 84.4375 218.933594 84.4375 219.089844 84.421875 C 219.066406 84.472656 219.039062 84.515625 219.019531 84.566406 C 218.988281 84.652344 218.984375 84.765625 218.976562 84.835938 C 218.976562 84.859375 218.96875 84.886719 218.96875 84.90625 C 218.96875 85 218.988281 85.09375 219.003906 85.179688 C 219.011719 85.199219 219.011719 85.226562 219.019531 85.25 C 219.046875 85.335938 219.082031 85.414062 219.125 85.492188 C 219.140625 85.527344 219.152344 85.550781 219.167969 85.570312 Z M 219.9375 84.980469 C 219.9375 84.984375 219.9375 84.992188 219.945312 85.007812 C 219.945312 84.992188 219.945312 84.984375 219.9375 84.980469 Z M 219.773438 85.207031 C 219.816406 85.242188 219.867188 85.257812 219.910156 85.285156 C 219.886719 85.277344 219.859375 85.265625 219.835938 85.257812 C 219.816406 85.234375 219.792969 85.222656 219.773438 85.207031 Z M 190.480469 112.667969 C 190.664062 112.609375 190.859375 112.558594 191.042969 112.503906 C 191.277344 112.433594 191.507812 112.359375 191.742188 112.289062 C 191.898438 112.238281 192.054688 112.195312 192.210938 112.148438 C 192.582031 112.03125 192.980469 111.96875 193.359375 111.882812 C 193.757812 111.789062 194.148438 111.699219 194.546875 111.605469 C 194.851562 111.535156 195.101562 111.984375 194.78125 112.132812 C 194.054688 112.46875 193.328125 112.84375 192.582031 113.109375 C 192.433594 113.160156 192.28125 113.210938 192.140625 113.257812 C 191.910156 113.332031 191.691406 113.410156 191.464844 113.480469 C 191.335938 113.523438 191.199219 113.566406 191.070312 113.609375 C 191.015625 113.621094 190.957031 113.644531 190.90625 113.65625 C 190.664062 113.738281 190.4375 113.835938 190.179688 113.75 C 190.136719 113.738281 190.101562 113.707031 190.066406 113.6875 C 189.855469 113.550781 189.695312 113.28125 189.875 113.039062 C 190.03125 112.808594 190.222656 112.746094 190.480469 112.667969 Z M 231.445312 86.9375 C 231.53125 86.882812 231.574219 86.847656 231.6875 86.816406 C 231.703125 86.816406 231.703125 86.816406 231.710938 86.816406 C 231.722656 86.804688 231.765625 86.78125 231.789062 86.769531 C 231.808594 86.753906 231.839844 86.726562 231.84375 86.726562 C 231.851562 86.71875 231.902344 86.660156 231.910156 86.652344 C 231.929688 86.625 231.945312 86.597656 231.964844 86.570312 C 231.988281 86.53125 232.007812 86.488281 232.039062 86.445312 C 232.050781 86.425781 232.050781 86.417969 232.058594 86.410156 C 232.058594 86.40625 232.058594 86.398438 232.074219 86.375 C 232.25 85.917969 232.25 85.421875 232.394531 84.957031 C 232.527344 84.515625 232.792969 84.128906 233.164062 83.851562 C 233.328125 83.730469 233.496094 83.632812 233.691406 83.558594 C 233.738281 83.546875 233.796875 83.539062 233.855469 83.53125 C 234.003906 83.582031 234.160156 83.632812 234.308594 83.675781 C 234.117188 83.753906 233.96875 83.875 233.804688 84.007812 C 233.648438 84.128906 233.519531 84.28125 233.417969 84.453125 C 233.191406 84.84375 233.210938 85.3125 233.210938 85.753906 C 233.21875 86.261719 233.175781 86.746094 232.949219 87.210938 C 232.855469 87.402344 232.722656 87.585938 232.566406 87.730469 C 232.472656 87.816406 232.359375 87.894531 232.246094 87.957031 C 232.023438 88.074219 231.832031 88.066406 231.597656 88.035156 C 231.359375 88.007812 231.175781 87.75 231.148438 87.539062 C 231.105469 87.28125 231.238281 87.082031 231.445312 86.9375 Z M 245.070312 111.65625 C 245.320312 111.441406 245.570312 111.242188 245.8125 111.097656 C 247.433594 110.144531 249.449219 110.25 251.261719 110.066406 C 251.816406 110.007812 252.378906 109.886719 252.90625 109.6875 C 253.972656 109.289062 254.863281 108.574219 255.132812 107.335938 C 255.546875 105.402344 254.757812 103.113281 253.824219 101.453125 C 253.703125 101.238281 253.921875 101.046875 254.109375 101.082031 C 254.171875 101.097656 254.238281 101.132812 254.273438 101.195312 C 254.300781 101.246094 254.324219 101.304688 254.351562 101.355469 C 255.242188 102.914062 255.78125 104.65625 255.890625 106.449219 C 255.988281 108.175781 255.433594 109.601562 253.886719 110.472656 C 253.667969 110.59375 253.445312 110.699219 253.21875 110.785156 C 251.792969 111.355469 250.257812 111.347656 248.726562 111.535156 C 247.75 111.65625 246.75 111.890625 245.996094 112.558594 C 245.96875 112.589844 245.941406 112.625 245.910156 112.652344 C 245.65625 112.886719 245.425781 113.160156 245.269531 113.472656 C 245.058594 113.902344 245.097656 114.300781 245.058594 114.757812 C 244.992188 115.460938 244.082031 115.539062 243.816406 114.914062 C 243.511719 114.199219 243.703125 113.445312 244.117188 112.765625 C 244.367188 112.355469 244.707031 111.976562 245.070312 111.65625 Z M 204.417969 93.820312 C 204.425781 93.820312 204.433594 93.820312 204.441406 93.820312 C 204.488281 93.8125 204.539062 93.832031 204.5625 93.882812 C 205.203125 95.308594 206.355469 96.390625 207.429688 97.554688 C 208.605469 98.6875 209.382812 100.171875 210.472656 101.113281 C 211.527344 102.066406 213.035156 102.117188 214.554688 101.84375 C 216.097656 101.640625 217.628906 101.304688 219.167969 100.917969 C 219.21875 100.90625 219.273438 100.925781 219.296875 100.976562 C 219.324219 101.03125 219.304688 101.105469 219.246094 101.132812 C 218.019531 101.789062 216.703125 102.238281 215.351562 102.59375 C 215.136719 102.652344 214.929688 102.707031 214.714844 102.757812 C 213.949219 102.929688 213.070312 103.070312 212.210938 102.957031 C 211.773438 102.90625 211.332031 102.800781 210.921875 102.617188 C 210.5 102.421875 210.121094 102.152344 209.808594 101.867188 C 208.519531 100.675781 207.878906 99.222656 206.859375 98.054688 C 206.234375 97.28125 205.578125 96.46875 205.066406 95.578125 C 204.867188 95.238281 204.703125 94.878906 204.5625 94.511719 C 204.488281 94.324219 204.402344 94.152344 204.347656 93.960938 C 204.339844 93.898438 204.359375 93.832031 204.417969 93.820312 Z M 204.417969 93.820312 " fill-opacity="1" fill-rule="nonzero"/></svg>