<svg xmlns="http://www.w3.org/2000/svg" xmlns:xlink="http://www.w3.org/1999/xlink" width="500" zoomAndPan="magnify" viewBox="0 0 375 374.999991" height="500" preserveAspectRatio="xMidYMid meet" version="1.0"><defs><g/><clipPath id="a03eb315c3"><path d="M 7.691406 6.902344 L 367.308594 6.902344 L 367.308594 366.519531 L 7.691406 366.519531 Z M 7.691406 6.902344 " clip-rule="nonzero"/></clipPath><clipPath id="74878380c5"><path d="M 187.5 6.902344 C 88.195312 6.902344 7.691406 87.40625 7.691406 186.710938 C 7.691406 286.015625 88.195312 366.519531 187.5 366.519531 C 286.804688 366.519531 367.308594 286.015625 367.308594 186.710938 C 367.308594 87.40625 286.804688 6.902344 187.5 6.902344 " clip-rule="nonzero"/></clipPath><clipPath id="8aeb4d5af4"><path d="M 7.691406 6.902344 L 366.941406 6.902344 L 366.941406 366.152344 L 7.691406 366.152344 Z M 7.691406 6.902344 " clip-rule="nonzero"/></clipPath><clipPath id="5d2066b10c"><path d="M 187.316406 6.902344 C 88.113281 6.902344 7.691406 87.324219 7.691406 186.527344 C 7.691406 285.730469 88.113281 366.152344 187.316406 366.152344 C 286.519531 366.152344 366.941406 285.730469 366.941406 186.527344 C 366.941406 87.324219 286.519531 6.902344 187.316406 6.902344 " clip-rule="nonzero"/></clipPath><clipPath id="c8cd9eff4c"><path d="M 68.785156 67.996094 L 306.214844 67.996094 L 306.214844 305.425781 L 68.785156 305.425781 Z M 68.785156 67.996094 " clip-rule="nonzero"/></clipPath><clipPath id="da8081a8d8"><path d="M 187.5 67.996094 C 121.9375 67.996094 68.785156 121.148438 68.785156 186.710938 C 68.785156 252.273438 121.9375 305.425781 187.5 305.425781 C 253.0625 305.425781 306.214844 252.273438 306.214844 186.710938 C 306.214844 121.148438 253.0625 67.996094 187.5 67.996094 " clip-rule="nonzero"/></clipPath><clipPath id="f52f1ebab8"><path d="M 68.785156 67.996094 L 306.535156 67.996094 L 306.535156 305.746094 L 68.785156 305.746094 Z M 68.785156 67.996094 " clip-rule="nonzero"/></clipPath><clipPath id="8e87ce935e"><path d="M 187.660156 67.996094 C 122.007812 67.996094 68.785156 121.21875 68.785156 186.871094 C 68.785156 252.523438 122.007812 305.746094 187.660156 305.746094 C 253.3125 305.746094 306.535156 252.523438 306.535156 186.871094 C 306.535156 121.21875 253.3125 67.996094 187.660156 67.996094 " clip-rule="nonzero"/></clipPath><clipPath id="43fe6894fa"><path d="M 38 154.132812 L 43 154.132812 L 43 169 L 38 169 Z M 38 154.132812 " clip-rule="nonzero"/></clipPath><clipPath id="26a0b8cb84"><path d="M 38 192 L 43 192 L 43 206.632812 L 38 206.632812 Z M 38 192 " clip-rule="nonzero"/></clipPath><clipPath id="b24833af06"><path d="M 53 178 L 67.046875 178 L 67.046875 183 L 53 183 Z M 53 178 " clip-rule="nonzero"/></clipPath><clipPath id="ac56c97ba3"><path d="M 14.546875 178 L 29 178 L 29 183 L 14.546875 183 Z M 14.546875 178 " clip-rule="nonzero"/></clipPath><clipPath id="906fc7eada"><path d="M 332 154.132812 L 337 154.132812 L 337 169 L 332 169 Z M 332 154.132812 " clip-rule="nonzero"/></clipPath><clipPath id="ccdca6b7ca"><path d="M 332 192 L 337 192 L 337 206.632812 L 332 206.632812 Z M 332 192 " clip-rule="nonzero"/></clipPath><clipPath id="56f900d5eb"><path d="M 346 178 L 360.699219 178 L 360.699219 183 L 346 183 Z M 346 178 " clip-rule="nonzero"/></clipPath><clipPath id="dfc02b8033"><path d="M 308.199219 178 L 323 178 L 323 183 L 308.199219 183 Z M 308.199219 178 " clip-rule="nonzero"/></clipPath></defs><g clip-path="url(#a03eb315c3)"><g clip-path="url(#74878380c5)"><path fill="#3ac7c2" d="M 7.691406 6.902344 L 367.308594 6.902344 L 367.308594 366.519531 L 7.691406 366.519531 Z M 7.691406 6.902344 " fill-opacity="1" fill-rule="nonzero"/></g></g><g clip-path="url(#8aeb4d5af4)"><g clip-path="url(#5d2066b10c)"><path stroke-linecap="butt" transform="matrix(0.749242, 0, 0, 0.749242, 7.690929, 6.902073)" fill="none" stroke-linejoin="miter" d="M 239.742842 0.00036181 C 107.338244 0.00036181 0.00063693 107.337969 0.00063693 239.742567 C 0.00063693 372.147165 107.338244 479.484772 239.742842 479.484772 C 372.14744 479.484772 479.485047 372.147165 479.485047 239.742567 C 479.485047 107.337969 372.14744 0.00036181 239.742842 0.00036181 " stroke="#ff008d" stroke-width="20" stroke-opacity="1" stroke-miterlimit="4"/></g></g><g fill="#ff008d" fill-opacity="1"><g transform="translate(81.888543, 108.40502)"><g><path d="M 9.46875 -9.703125 C 7.71875 -7.742188 5.894531 -6.046875 4 -4.609375 C 2.101562 -3.171875 0.519531 -2.175781 -0.75 -1.625 L -6.8125 -7.046875 L -0.78125 -13.765625 C -0.144531 -13.203125 0.4375 -12.929688 0.96875 -12.953125 C 1.507812 -12.984375 2.125 -13.378906 2.8125 -14.140625 C 3.375 -14.773438 3.679688 -15.316406 3.734375 -15.765625 C 3.785156 -16.210938 3.613281 -16.609375 3.21875 -16.953125 C 2.894531 -17.242188 2.5 -17.363281 2.03125 -17.3125 C 1.5625 -17.257812 0.914062 -17.015625 0.09375 -16.578125 L -3.1875 -14.765625 C -6.082031 -13.273438 -8.550781 -12.554688 -10.59375 -12.609375 C -12.644531 -12.660156 -14.660156 -13.570312 -16.640625 -15.34375 C -19.035156 -17.5 -20.148438 -19.925781 -19.984375 -22.625 C -19.828125 -25.320312 -18.097656 -28.515625 -14.796875 -32.203125 C -13.203125 -33.984375 -11.523438 -35.492188 -9.765625 -36.734375 C -8.015625 -37.972656 -6.421875 -38.804688 -4.984375 -39.234375 L 0.484375 -34.34375 L -4.984375 -28.234375 C -5.992188 -29.140625 -7.066406 -28.957031 -8.203125 -27.6875 C -8.753906 -27.082031 -9.066406 -26.582031 -9.140625 -26.1875 C -9.222656 -25.789062 -9.070312 -25.421875 -8.6875 -25.078125 C -8.34375 -24.765625 -7.9375 -24.664062 -7.46875 -24.78125 C -7 -24.894531 -6.347656 -25.191406 -5.515625 -25.671875 L -2.203125 -27.5 C 0.453125 -29.007812 2.8125 -29.726562 4.875 -29.65625 C 6.9375 -29.59375 8.914062 -28.710938 10.8125 -27.015625 C 13.40625 -24.703125 14.582031 -22.078125 14.34375 -19.140625 C 14.113281 -16.210938 12.488281 -13.066406 9.46875 -9.703125 Z M 9.46875 -9.703125 "/></g></g></g><g fill="#ff008d" fill-opacity="1"><g transform="translate(102.611259, 85.266626)"><g><path d="M 14.4375 -39.515625 L 12.734375 -38.390625 L 22.828125 -22.90625 L 24.53125 -24.03125 L 28.203125 -18.390625 L 15.21875 -9.90625 L 11.546875 -15.546875 L 13.1875 -16.625 L 9.484375 -22.3125 L 4.671875 -19.171875 L 8.375 -13.484375 L 10.015625 -14.5625 L 13.6875 -8.921875 L 0.6875 -0.453125 L -2.984375 -6.09375 L -1.265625 -7.203125 L -11.359375 -22.6875 L -13.078125 -21.578125 L -16.75 -27.21875 L -3.75 -35.6875 L -0.078125 -30.046875 L -1.71875 -28.96875 L 1.6875 -23.734375 L 6.5 -26.875 L 3.09375 -32.109375 L 1.453125 -31.03125 L -2.21875 -36.671875 L 10.765625 -45.15625 Z M 14.4375 -39.515625 "/></g></g></g><g fill="#ff008d" fill-opacity="1"><g transform="translate(134.629743, 65.339213)"><g><path d="M 0.78125 -0.25 L -1.265625 -6.671875 L 0.6875 -7.296875 L -4.9375 -24.890625 L -6.890625 -24.265625 L -8.9375 -30.6875 L 17.453125 -39.125 L 21.21875 -27.3125 L 12.46875 -24.515625 L 10.75 -29.90625 L 6.015625 -28.390625 L 7.984375 -22.203125 L 11.421875 -23.296875 L 12.84375 -18.84375 L 9.40625 -17.75 L 11.640625 -10.796875 L 16.375 -12.3125 L 14.40625 -18.484375 L 23.15625 -21.28125 L 27.171875 -8.6875 Z M 0.78125 -0.25 "/></g></g></g><g fill="#ff008d" fill-opacity="1"><g transform="translate(166.841377, 56.323135)"><g/></g></g><g fill="#ff008d" fill-opacity="1"><g transform="translate(183.378574, 54.057999)"><g><path d="M 13.46875 1.5 C 10.851562 1.320312 8.394531 0.925781 6.09375 0.3125 C 3.789062 -0.300781 2.03125 -0.9375 0.8125 -1.59375 L 1.375 -9.703125 L 10.390625 -9.078125 C 10.328125 -8.234375 10.46875 -7.601562 10.8125 -7.1875 C 11.164062 -6.78125 11.851562 -6.546875 12.875 -6.484375 C 13.71875 -6.421875 14.332031 -6.503906 14.71875 -6.734375 C 15.113281 -6.972656 15.328125 -7.351562 15.359375 -7.875 C 15.390625 -8.3125 15.238281 -8.695312 14.90625 -9.03125 C 14.570312 -9.375 13.976562 -9.738281 13.125 -10.125 L 9.703125 -11.59375 C 6.734375 -12.957031 4.640625 -14.460938 3.421875 -16.109375 C 2.210938 -17.753906 1.695312 -19.90625 1.875 -22.5625 C 2.09375 -25.78125 3.316406 -28.15625 5.546875 -29.6875 C 7.773438 -31.21875 11.363281 -31.8125 16.3125 -31.46875 C 18.6875 -31.300781 20.898438 -30.90625 22.953125 -30.28125 C 25.015625 -29.664062 26.660156 -28.925781 27.890625 -28.0625 L 27.390625 -20.734375 L 19.203125 -21.28125 C 19.296875 -22.632812 18.5 -23.375 16.8125 -23.5 C 15.988281 -23.550781 15.394531 -23.488281 15.03125 -23.3125 C 14.675781 -23.132812 14.484375 -22.789062 14.453125 -22.28125 C 14.421875 -21.8125 14.59375 -21.425781 14.96875 -21.125 C 15.34375 -20.820312 15.972656 -20.488281 16.859375 -20.125 L 20.34375 -18.65625 C 23.15625 -17.46875 25.171875 -16.039062 26.390625 -14.375 C 27.609375 -12.71875 28.132812 -10.617188 27.96875 -8.078125 C 27.726562 -4.609375 26.378906 -2.066406 23.921875 -0.453125 C 21.460938 1.160156 17.976562 1.8125 13.46875 1.5 Z M 13.46875 1.5 "/></g></g></g><g fill="#ff008d" fill-opacity="1"><g transform="translate(214.434494, 56.350107)"><g><path d="M 15.15625 5.671875 C 11.082031 4.316406 8.234375 2.375 6.609375 -0.15625 C 4.984375 -2.695312 4.847656 -5.976562 6.203125 -10 L 10.5625 -23.0625 L 8.625 -23.71875 L 10.765625 -30.09375 L 25.171875 -25.265625 L 23.03125 -18.890625 L 21.46875 -19.421875 L 16.4375 -4.375 C 16.144531 -3.519531 16.125 -2.828125 16.375 -2.296875 C 16.625 -1.765625 17.125 -1.375 17.875 -1.125 C 18.625 -0.875 19.25 -0.882812 19.75 -1.15625 C 20.257812 -1.4375 20.660156 -2.003906 20.953125 -2.859375 L 25.984375 -17.90625 L 24.4375 -18.421875 L 26.578125 -24.796875 L 39.921875 -20.328125 L 37.78125 -13.953125 L 35.84375 -14.609375 L 31.484375 -1.546875 C 30.128906 2.472656 28.070312 5.019531 25.3125 6.09375 C 22.5625 7.164062 19.175781 7.023438 15.15625 5.671875 Z M 15.15625 5.671875 "/></g></g></g><g fill="#ff008d" fill-opacity="1"><g transform="translate(247.778179, 67.911091)"><g><path d="M 4.46875 -5.109375 L 6.15625 -3.96875 L 16.515625 -19.265625 L 14.828125 -20.40625 L 18.59375 -25.984375 L 34.203125 -15.421875 C 37.117188 -13.441406 38.941406 -11.328125 39.671875 -9.078125 C 40.398438 -6.835938 39.851562 -4.367188 38.03125 -1.671875 C 37 -0.148438 35.800781 0.953125 34.4375 1.640625 C 33.070312 2.328125 31.679688 2.507812 30.265625 2.1875 L 30.0625 2.5625 C 32.007812 4.363281 32.191406 6.4375 30.609375 8.78125 L 28.84375 11.390625 L 30.4375 12.46875 L 26.65625 18.046875 L 15.875 10.75 L 21.28125 2.75 C 21.882812 1.875 22.207031 1.117188 22.25 0.484375 C 22.300781 -0.140625 22.101562 -0.71875 21.65625 -1.25 C 21.207031 -1.789062 20.472656 -2.40625 19.453125 -3.09375 L 15.6875 2.484375 L 17.921875 4 L 14.140625 9.578125 L 0.6875 0.46875 Z M 24.09375 -6.015625 C 24.75 -5.566406 25.359375 -5.40625 25.921875 -5.53125 C 26.492188 -5.65625 27.03125 -6.09375 27.53125 -6.84375 L 28.359375 -8.0625 C 28.867188 -8.8125 29.078125 -9.472656 28.984375 -10.046875 C 28.898438 -10.617188 28.53125 -11.128906 27.875 -11.578125 L 26.046875 -12.8125 L 22.265625 -7.25 Z M 24.09375 -6.015625 "/></g></g></g><g fill="#ff008d" fill-opacity="1"><g transform="translate(277.320278, 88.96179)"><g><path d="M 0.546875 0.625 L 5.59375 -3.84375 L 6.953125 -2.3125 L 20.796875 -14.5625 L 19.4375 -16.09375 L 24.46875 -20.546875 L 40.734375 -2.171875 L 32.765625 4.875 L 27.953125 -0.5625 L 30.890625 -3.15625 L 28.421875 -5.953125 L 23.296875 -1.421875 L 27.40625 3.21875 L 23.90625 6.3125 L 19.796875 1.671875 L 14.578125 6.296875 L 18.140625 10.3125 L 13.09375 14.78125 Z M 0.546875 0.625 "/></g></g></g><g fill="#ff008d" fill-opacity="1"><g transform="translate(31.276304, 243.242096)"><g><path d="M 6.078125 14.53125 C 4.773438 11.757812 3.785156 9.03125 3.109375 6.34375 C 2.441406 3.664062 2.09375 1.523438 2.0625 -0.078125 L 10.609375 -4.078125 L 15.0625 5.40625 C 14.175781 5.8125 13.625 6.3125 13.40625 6.90625 C 13.195312 7.507812 13.34375 8.347656 13.84375 9.421875 C 14.257812 10.304688 14.695312 10.878906 15.15625 11.140625 C 15.613281 11.398438 16.113281 11.40625 16.65625 11.15625 C 17.125 10.9375 17.429688 10.554688 17.578125 10.015625 C 17.734375 9.484375 17.769531 8.679688 17.6875 7.609375 L 17.234375 3.296875 C 16.953125 -0.472656 17.300781 -3.441406 18.28125 -5.609375 C 19.269531 -7.773438 21.160156 -9.515625 23.953125 -10.828125 C 27.335938 -12.421875 30.4375 -12.515625 33.25 -11.109375 C 36.070312 -9.710938 38.707031 -6.410156 41.15625 -1.203125 C 42.332031 1.296875 43.179688 3.765625 43.703125 6.203125 C 44.234375 8.640625 44.398438 10.734375 44.203125 12.484375 L 36.484375 16.109375 L 32.4375 7.46875 C 33.875 6.789062 34.171875 5.5625 33.328125 3.78125 C 32.929688 2.925781 32.535156 2.367188 32.140625 2.109375 C 31.753906 1.847656 31.289062 1.84375 30.75 2.09375 C 30.257812 2.332031 29.96875 2.726562 29.875 3.28125 C 29.78125 3.832031 29.800781 4.65625 29.9375 5.75 L 30.390625 10.125 C 30.796875 13.65625 30.5 16.503906 29.5 18.671875 C 28.5 20.847656 26.664062 22.566406 24 23.828125 C 20.332031 25.546875 16.984375 25.613281 13.953125 24.03125 C 10.929688 22.445312 8.304688 19.28125 6.078125 14.53125 Z M 6.078125 14.53125 "/></g></g></g><g fill="#ff008d" fill-opacity="1"><g transform="translate(50.942131, 280.867381)"><g><path d="M 0.578125 0.75 L 6.765625 -4.046875 L 8.234375 -2.15625 L 25.171875 -15.3125 L 23.703125 -17.203125 L 29.875 -22 L 41 -7.671875 L 34.828125 -2.875 L 33.359375 -4.765625 L 16.421875 8.390625 L 17.890625 10.28125 L 11.703125 15.078125 Z M 0.578125 0.75 "/></g></g></g><g fill="#ff008d" fill-opacity="1"><g transform="translate(70.0254, 305.710946)"><g><path d="M 45.03125 -12.484375 L 57.515625 -3.0625 L 52.8125 3.171875 L 50.890625 1.734375 L 33.25 25.109375 L 22.578125 17.046875 L 24.375 -8.53125 L 16.140625 2.375 L 17.96875 3.75 L 13.25 10 L 0.765625 0.578125 L 5.484375 -5.671875 L 7.390625 -4.234375 L 20.3125 -21.359375 L 18.40625 -22.796875 L 23.109375 -29.03125 L 36.84375 -18.65625 L 35.34375 4.140625 L 42.140625 -4.875 L 40.328125 -6.25 Z M 45.03125 -12.484375 "/></g></g></g><g fill="#ff008d" fill-opacity="1"><g transform="translate(116.912324, 337.74391)"><g><path d="M 18.15625 7.015625 C 12.476562 5.046875 8.601562 2.085938 6.53125 -1.859375 C 4.457031 -5.816406 4.519531 -10.960938 6.71875 -17.296875 C 10.925781 -29.398438 18.910156 -33.410156 30.671875 -29.328125 C 33.523438 -28.335938 36.054688 -27.070312 38.265625 -25.53125 C 40.484375 -23.988281 42.039062 -22.585938 42.9375 -21.328125 L 39.03125 -10.0625 L 28.21875 -13.828125 L 29.34375 -17.078125 C 29.738281 -18.210938 29.769531 -19.140625 29.4375 -19.859375 C 29.113281 -20.578125 28.445312 -21.113281 27.4375 -21.46875 C 26.414062 -21.820312 25.554688 -21.816406 24.859375 -21.453125 C 24.160156 -21.085938 23.613281 -20.335938 23.21875 -19.203125 L 18.5 -5.59375 C 18.101562 -4.445312 18.066406 -3.515625 18.390625 -2.796875 C 18.710938 -2.085938 19.382812 -1.554688 20.40625 -1.203125 C 21.414062 -0.847656 22.269531 -0.847656 22.96875 -1.203125 C 23.675781 -1.566406 24.226562 -2.320312 24.625 -3.46875 L 25.890625 -7.125 L 36.703125 -3.359375 L 32.65625 8.3125 C 31.125 8.707031 29.03125 8.832031 26.375 8.6875 C 23.71875 8.550781 20.976562 7.992188 18.15625 7.015625 Z M 18.15625 7.015625 "/></g></g></g><g fill="#ff008d" fill-opacity="1"><g transform="translate(160.616001, 351.224272)"><g><path d="M 0.953125 0.0625 L 1.40625 -7.75 L 3.796875 -7.625 L 5.046875 -29.046875 L 2.65625 -29.171875 L 3.109375 -36.96875 L 35.234375 -35.109375 L 34.40625 -20.75 L 23.75 -21.359375 L 24.125 -27.921875 L 18.359375 -28.265625 L 17.921875 -20.75 L 22.125 -20.5 L 21.8125 -15.0625 L 17.609375 -15.3125 L 17.109375 -6.84375 L 22.875 -6.5 L 23.3125 -14.015625 L 33.96875 -13.40625 L 33.078125 1.921875 Z M 0.953125 0.0625 "/></g></g></g><g fill="#ff008d" fill-opacity="1"><g transform="translate(204.689437, 351.715897)"><g/></g></g><g fill="#ff008d" fill-opacity="1"><g transform="translate(228.741717, 347.910974)"><g><path d="M -0.84375 -4.046875 C -1.78125 -6.628906 -2.222656 -9.039062 -2.171875 -11.28125 C -2.128906 -13.519531 -1.5625 -15.828125 -0.46875 -18.203125 C 0.625 -20.585938 2.363281 -23.273438 4.75 -26.265625 C 5.425781 -27.148438 5.878906 -27.863281 6.109375 -28.40625 C 6.335938 -28.945312 6.347656 -29.503906 6.140625 -30.078125 C 5.691406 -31.296875 4.582031 -31.585938 2.8125 -30.953125 C 1.5 -30.472656 0.117188 -29.582031 -1.328125 -28.28125 C -2.785156 -26.976562 -4.003906 -25.550781 -4.984375 -24 L -11.109375 -32.609375 C -9.535156 -34.242188 -7.628906 -35.847656 -5.390625 -37.421875 C -3.160156 -39.003906 -0.789062 -40.25 1.71875 -41.15625 C 5.84375 -42.65625 9.367188 -42.898438 12.296875 -41.890625 C 15.234375 -40.890625 17.3125 -38.71875 18.53125 -35.375 C 19.175781 -33.582031 19.347656 -31.859375 19.046875 -30.203125 C 18.742188 -28.554688 18.203125 -27.066406 17.421875 -25.734375 C 16.640625 -24.398438 15.566406 -22.8125 14.203125 -20.96875 C 12.679688 -18.9375 11.617188 -17.28125 11.015625 -16 C 10.421875 -14.71875 10.34375 -13.460938 10.78125 -12.234375 L 16.203125 -14.203125 L 15.28125 -16.75 L 24.484375 -20.078125 L 28.078125 -10.171875 L 0.546875 -0.203125 Z M -0.84375 -4.046875 "/></g></g></g><g fill="#ff008d" fill-opacity="1"><g transform="translate(267.91665, 332.39892)"><g><path d="M 14.640625 -9.515625 C 10.253906 -6.421875 5.992188 -5.28125 1.859375 -6.09375 C -2.273438 -6.914062 -6.28125 -10.066406 -10.15625 -15.546875 C -14.019531 -21.023438 -15.644531 -25.847656 -15.03125 -30.015625 C -14.414062 -34.179688 -11.914062 -37.8125 -7.53125 -40.90625 C -3.132812 -44.007812 1.128906 -45.15625 5.265625 -44.34375 C 9.398438 -43.53125 13.398438 -40.382812 17.265625 -34.90625 C 20.835938 -29.84375 22.484375 -25.1875 22.203125 -20.9375 C 21.921875 -16.6875 19.398438 -12.878906 14.640625 -9.515625 Z M 9.734375 -16.453125 C 11.503906 -17.703125 11.710938 -19.285156 10.359375 -21.203125 L 2.046875 -32.96875 C 0.691406 -34.894531 -0.867188 -35.234375 -2.640625 -33.984375 C -4.410156 -32.734375 -4.617188 -31.144531 -3.265625 -29.21875 L 5.046875 -17.453125 C 6.398438 -15.535156 7.960938 -15.203125 9.734375 -16.453125 Z M 9.734375 -16.453125 "/></g></g></g><g fill="#ff008d" fill-opacity="1"><g transform="translate(304.480404, 304.425209)"><g><path d="M -2.78125 -3.0625 C -4.894531 -4.800781 -6.503906 -6.644531 -7.609375 -8.59375 C -8.722656 -10.550781 -9.410156 -12.832031 -9.671875 -15.4375 C -9.941406 -18.050781 -9.816406 -21.242188 -9.296875 -25.015625 C -9.160156 -26.140625 -9.132812 -26.988281 -9.21875 -27.5625 C -9.300781 -28.132812 -9.578125 -28.613281 -10.046875 -29 C -11.046875 -29.832031 -12.140625 -29.523438 -13.328125 -28.078125 C -14.210938 -27.003906 -14.945312 -25.53125 -15.53125 -23.65625 C -16.125 -21.789062 -16.453125 -19.941406 -16.515625 -18.109375 L -26.171875 -22.40625 C -25.648438 -24.613281 -24.828125 -26.960938 -23.703125 -29.453125 C -22.585938 -31.953125 -21.179688 -34.234375 -19.484375 -36.296875 C -16.691406 -39.679688 -13.773438 -41.6875 -10.734375 -42.3125 C -7.703125 -42.945312 -4.8125 -42.132812 -2.0625 -39.875 C -0.59375 -38.65625 0.425781 -37.257812 1 -35.6875 C 1.582031 -34.125 1.875 -32.566406 1.875 -31.015625 C 1.882812 -29.472656 1.773438 -27.5625 1.546875 -25.28125 C 1.265625 -22.75 1.191406 -20.78125 1.328125 -19.375 C 1.472656 -17.96875 2.046875 -16.847656 3.046875 -16.015625 L 6.71875 -20.46875 L 4.640625 -22.1875 L 10.859375 -29.734375 L 18.984375 -23.046875 L 0.375 -0.453125 Z M -2.78125 -3.0625 "/></g></g></g><g fill="#ff008d" fill-opacity="1"><g transform="translate(330.00589, 271.228482)"><g><path d="M -3.46875 -2.25 C -5.945312 -3.40625 -7.96875 -4.789062 -9.53125 -6.40625 C -11.101562 -8.019531 -12.34375 -10.050781 -13.25 -12.5 C -14.15625 -14.957031 -14.835938 -18.082031 -15.296875 -21.875 C -15.429688 -23 -15.609375 -23.832031 -15.828125 -24.375 C -16.054688 -24.914062 -16.445312 -25.3125 -17 -25.5625 C -18.175781 -26.113281 -19.160156 -25.535156 -19.953125 -23.828125 C -20.535156 -22.566406 -20.875 -20.957031 -20.96875 -19 C -21.070312 -17.039062 -20.925781 -15.164062 -20.53125 -13.375 L -30.953125 -15.125 C -31.015625 -17.382812 -30.8125 -19.863281 -30.34375 -22.5625 C -29.882812 -25.269531 -29.09375 -27.832031 -27.96875 -30.25 C -26.125 -34.226562 -23.8125 -36.898438 -21.03125 -38.265625 C -18.25 -39.628906 -15.242188 -39.5625 -12.015625 -38.0625 C -10.285156 -37.257812 -8.941406 -36.171875 -7.984375 -34.796875 C -7.035156 -33.429688 -6.363281 -32 -5.96875 -30.5 C -5.570312 -29 -5.195312 -27.117188 -4.84375 -24.859375 C -4.476562 -22.347656 -4.050781 -20.425781 -3.5625 -19.09375 C -3.082031 -17.769531 -2.25 -16.832031 -1.0625 -16.28125 L 1.359375 -21.5 L -1.09375 -22.640625 L 3.03125 -31.515625 L 12.578125 -27.078125 L 0.25 -0.53125 Z M -3.46875 -2.25 "/></g></g></g><g clip-path="url(#c8cd9eff4c)"><g clip-path="url(#da8081a8d8)"><path fill="#ffeadb" d="M 68.785156 67.996094 L 306.214844 67.996094 L 306.214844 305.425781 L 68.785156 305.425781 Z M 68.785156 67.996094 " fill-opacity="1" fill-rule="nonzero"/></g></g><g clip-path="url(#f52f1ebab8)"><g clip-path="url(#8e87ce935e)"><path stroke-linecap="butt" transform="matrix(0.751037, 0, 0, 0.751037, 68.785841, 67.99698)" fill="none" stroke-linejoin="miter" d="M 158.280342 -0.00118048 C 70.864693 -0.00118048 -0.000911451 70.864424 -0.000911451 158.280073 C -0.000911451 245.695721 70.864693 316.561326 158.280342 316.561326 C 245.69599 316.561326 316.561595 245.695721 316.561595 158.280073 C 316.561595 70.864424 245.69599 -0.00118048 158.280342 -0.00118048 " stroke="#ff008d" stroke-width="22" stroke-opacity="1" stroke-miterlimit="4"/></g></g><g clip-path="url(#43fe6894fa)"><path fill="#3a261f" d="M 42.65625 168.027344 C 42.054688 167.941406 41.429688 167.894531 40.800781 167.894531 C 40.167969 167.894531 39.546875 167.941406 38.9375 168.027344 L 40.785156 154.132812 L 40.8125 154.132812 L 42.65625 168.027344 " fill-opacity="1" fill-rule="nonzero"/></g><g clip-path="url(#26a0b8cb84)"><path fill="#3a261f" d="M 42.65625 192.730469 L 40.8125 206.628906 L 40.785156 206.628906 L 38.9375 192.730469 C 39.546875 192.820312 40.167969 192.863281 40.800781 192.863281 C 41.429688 192.863281 42.054688 192.820312 42.65625 192.730469 " fill-opacity="1" fill-rule="nonzero"/></g><g clip-path="url(#b24833af06)"><path fill="#3a261f" d="M 67.035156 180.371094 L 67.035156 180.390625 L 53.144531 182.234375 C 53.234375 181.636719 53.277344 181.007812 53.277344 180.378906 C 53.277344 179.753906 53.234375 179.125 53.144531 178.523438 L 67.035156 180.371094 " fill-opacity="1" fill-rule="nonzero"/></g><g clip-path="url(#ac56c97ba3)"><path fill="#3a261f" d="M 28.316406 180.378906 C 28.316406 181.007812 28.363281 181.636719 28.449219 182.234375 L 14.5625 180.390625 L 14.5625 180.371094 L 28.449219 178.523438 C 28.363281 179.125 28.316406 179.753906 28.316406 180.378906 " fill-opacity="1" fill-rule="nonzero"/></g><path fill="#3a261f" d="M 59.351562 161.828125 L 50.839844 172.957031 C 50.097656 171.960938 49.214844 171.078125 48.210938 170.335938 L 59.34375 161.808594 L 59.351562 161.828125 " fill-opacity="1" fill-rule="nonzero"/><path fill="#3a261f" d="M 33.386719 190.425781 L 22.25 198.953125 L 22.242188 198.933594 L 30.753906 187.800781 C 31.496094 188.800781 32.386719 189.683594 33.386719 190.425781 " fill-opacity="1" fill-rule="nonzero"/><path fill="#3a261f" d="M 59.351562 198.933594 L 59.34375 198.953125 L 48.210938 190.425781 C 49.214844 189.683594 50.097656 188.800781 50.839844 187.800781 L 59.351562 198.933594 " fill-opacity="1" fill-rule="nonzero"/><path fill="#3a261f" d="M 33.386719 170.335938 C 32.386719 171.078125 31.496094 171.960938 30.753906 172.957031 L 22.242188 161.828125 L 22.25 161.808594 L 33.386719 170.335938 " fill-opacity="1" fill-rule="nonzero"/><path fill="#3a261f" d="M 48.808594 161.339844 L 46.664062 169.363281 C 46.003906 169 45.304688 168.710938 44.570312 168.46875 L 48.792969 161.339844 L 48.808594 161.339844 " fill-opacity="1" fill-rule="nonzero"/><path fill="#3a261f" d="M 37.023438 192.289062 L 32.804688 199.421875 L 32.785156 199.421875 L 34.929688 191.398438 C 35.59375 191.75 36.289062 192.050781 37.023438 192.289062 " fill-opacity="1" fill-rule="nonzero"/><path fill="#3a261f" d="M 59.828125 188.386719 L 59.820312 188.394531 L 51.8125 186.257812 C 52.175781 185.585938 52.464844 184.886719 52.703125 184.152344 L 59.828125 188.386719 " fill-opacity="1" fill-rule="nonzero"/><path fill="#3a261f" d="M 29.785156 174.503906 C 29.421875 175.175781 29.128906 175.875 28.890625 176.609375 L 21.765625 172.375 L 21.773438 172.367188 L 29.785156 174.503906 " fill-opacity="1" fill-rule="nonzero"/><path fill="#3a261f" d="M 59.917969 172.589844 L 52.738281 176.738281 C 52.519531 176.007812 52.226562 175.300781 51.875 174.628906 L 59.910156 172.570312 L 59.917969 172.589844 " fill-opacity="1" fill-rule="nonzero"/><path fill="#3a261f" d="M 29.722656 186.132812 L 21.6875 188.191406 L 21.679688 188.171875 L 28.855469 184.019531 C 29.078125 184.753906 29.367188 185.460938 29.722656 186.132812 " fill-opacity="1" fill-rule="nonzero"/><path fill="#3a261f" d="M 48.597656 199.5 L 48.589844 199.507812 L 44.441406 192.324219 C 45.171875 192.105469 45.878906 191.8125 46.542969 191.460938 L 48.597656 199.5 " fill-opacity="1" fill-rule="nonzero"/><path fill="#3a261f" d="M 37.15625 168.433594 C 36.421875 168.65625 35.714844 168.949219 35.054688 169.300781 L 32.996094 161.253906 L 33.003906 161.253906 L 37.15625 168.433594 " fill-opacity="1" fill-rule="nonzero"/><path fill="#3a261f" d="M 51.210938 180.378906 C 51.210938 180.902344 51.175781 181.425781 51.101562 181.929688 C 51.011719 182.480469 50.894531 183.011719 50.734375 183.527344 C 50.535156 184.140625 50.289062 184.722656 49.988281 185.28125 C 49.753906 185.734375 49.480469 186.160156 49.179688 186.574219 C 48.558594 187.40625 47.824219 188.144531 46.984375 188.761719 C 46.546875 189.085938 46.082031 189.375 45.589844 189.625 C 45.039062 189.921875 44.449219 190.164062 43.835938 190.347656 C 43.359375 190.496094 42.855469 190.605469 42.347656 190.6875 C 41.847656 190.761719 41.324219 190.796875 40.800781 190.796875 C 40.269531 190.796875 39.753906 190.761719 39.246094 190.6875 C 38.703125 190.597656 38.164062 190.472656 37.648438 190.320312 C 37.035156 190.121094 36.453125 189.867188 35.902344 189.574219 C 35.453125 189.339844 35.019531 189.066406 34.613281 188.761719 C 33.78125 188.144531 33.035156 187.40625 32.417969 186.574219 C 32.09375 186.132812 31.804688 185.667969 31.554688 185.179688 C 31.261719 184.621094 31.015625 184.03125 30.832031 183.417969 C 30.6875 182.9375 30.574219 182.4375 30.496094 181.929688 C 30.421875 181.425781 30.382812 180.902344 30.382812 180.378906 C 30.382812 179.855469 30.421875 179.332031 30.496094 178.832031 C 30.582031 178.277344 30.699219 177.75 30.863281 177.234375 C 31.0625 176.621094 31.304688 176.039062 31.605469 175.476562 C 31.84375 175.027344 32.113281 174.601562 32.417969 174.1875 C 33.035156 173.355469 33.78125 172.617188 34.613281 171.996094 C 35.046875 171.671875 35.511719 171.386719 36.003906 171.136719 C 36.558594 170.839844 37.148438 170.597656 37.757812 170.414062 C 38.246094 170.265625 38.738281 170.15625 39.246094 170.074219 C 39.753906 170 40.269531 169.964844 40.800781 169.964844 C 41.324219 169.964844 41.847656 170 42.347656 170.074219 C 42.894531 170.160156 43.433594 170.28125 43.949219 170.441406 C 44.558594 170.640625 45.140625 170.882812 45.695312 171.1875 C 46.144531 171.421875 46.578125 171.695312 46.984375 171.996094 C 47.824219 172.617188 48.558594 173.355469 49.179688 174.1875 C 49.503906 174.628906 49.789062 175.09375 50.039062 175.582031 C 50.335938 176.140625 50.578125 176.730469 50.761719 177.34375 C 50.910156 177.824219 51.019531 178.324219 51.101562 178.832031 C 51.175781 179.332031 51.210938 179.855469 51.210938 180.378906 " fill-opacity="1" fill-rule="nonzero"/><g clip-path="url(#906fc7eada)"><path fill="#804933" d="M 336.3125 168.027344 C 335.710938 167.941406 335.082031 167.894531 334.457031 167.894531 C 333.820312 167.894531 333.203125 167.941406 332.59375 168.027344 L 334.441406 154.132812 L 334.464844 154.132812 L 336.3125 168.027344 " fill-opacity="1" fill-rule="nonzero"/></g><g clip-path="url(#ccdca6b7ca)"><path fill="#804933" d="M 336.3125 192.730469 L 334.464844 206.628906 L 334.441406 206.628906 L 332.59375 192.730469 C 333.203125 192.820312 333.820312 192.863281 334.457031 192.863281 C 335.082031 192.863281 335.710938 192.820312 336.3125 192.730469 " fill-opacity="1" fill-rule="nonzero"/></g><g clip-path="url(#56f900d5eb)"><path fill="#804933" d="M 360.6875 180.371094 L 360.6875 180.390625 L 346.800781 182.234375 C 346.890625 181.636719 346.933594 181.007812 346.933594 180.378906 C 346.933594 179.753906 346.890625 179.125 346.800781 178.523438 L 360.6875 180.371094 " fill-opacity="1" fill-rule="nonzero"/></g><g clip-path="url(#dfc02b8033)"><path fill="#804933" d="M 321.972656 180.378906 C 321.972656 181.007812 322.015625 181.636719 322.105469 182.234375 L 308.214844 180.390625 L 308.214844 180.371094 L 322.105469 178.523438 C 322.015625 179.125 321.972656 179.753906 321.972656 180.378906 " fill-opacity="1" fill-rule="nonzero"/></g><path fill="#804933" d="M 353.007812 161.828125 L 344.496094 172.957031 C 343.753906 171.960938 342.871094 171.078125 341.863281 170.335938 L 353 161.808594 L 353.007812 161.828125 " fill-opacity="1" fill-rule="nonzero"/><path fill="#804933" d="M 327.039062 190.425781 L 315.90625 198.953125 L 315.898438 198.933594 L 324.410156 187.800781 C 325.152344 188.800781 326.042969 189.683594 327.039062 190.425781 " fill-opacity="1" fill-rule="nonzero"/><path fill="#804933" d="M 353.007812 198.933594 L 353 198.953125 L 341.863281 190.425781 C 342.871094 189.683594 343.753906 188.800781 344.496094 187.800781 L 353.007812 198.933594 " fill-opacity="1" fill-rule="nonzero"/><path fill="#804933" d="M 327.039062 170.335938 C 326.042969 171.078125 325.152344 171.960938 324.410156 172.957031 L 315.898438 161.828125 L 315.90625 161.808594 L 327.039062 170.335938 " fill-opacity="1" fill-rule="nonzero"/><path fill="#804933" d="M 342.464844 161.339844 L 340.320312 169.363281 C 339.65625 169 338.960938 168.710938 338.226562 168.46875 L 342.449219 161.339844 L 342.464844 161.339844 " fill-opacity="1" fill-rule="nonzero"/><path fill="#804933" d="M 330.679688 192.289062 L 326.457031 199.421875 L 326.441406 199.421875 L 328.585938 191.398438 C 329.246094 191.75 329.945312 192.050781 330.679688 192.289062 " fill-opacity="1" fill-rule="nonzero"/><path fill="#804933" d="M 353.484375 188.386719 L 353.476562 188.394531 L 345.46875 186.257812 C 345.828125 185.585938 346.121094 184.886719 346.359375 184.152344 L 353.484375 188.386719 " fill-opacity="1" fill-rule="nonzero"/><path fill="#804933" d="M 323.4375 174.503906 C 323.078125 175.175781 322.785156 175.875 322.546875 176.609375 L 315.421875 172.375 L 315.429688 172.367188 L 323.4375 174.503906 " fill-opacity="1" fill-rule="nonzero"/><path fill="#804933" d="M 353.574219 172.589844 L 346.394531 176.738281 C 346.171875 176.007812 345.882812 175.300781 345.527344 174.628906 L 353.5625 172.570312 L 353.574219 172.589844 " fill-opacity="1" fill-rule="nonzero"/><path fill="#804933" d="M 323.375 186.132812 L 315.34375 188.191406 L 315.332031 188.171875 L 322.511719 184.019531 C 322.730469 184.753906 323.023438 185.460938 323.375 186.132812 " fill-opacity="1" fill-rule="nonzero"/><path fill="#804933" d="M 342.253906 199.5 L 342.246094 199.507812 L 338.09375 192.324219 C 338.828125 192.105469 339.535156 191.8125 340.195312 191.460938 L 342.253906 199.5 " fill-opacity="1" fill-rule="nonzero"/><path fill="#804933" d="M 330.8125 168.433594 C 330.078125 168.65625 329.371094 168.949219 328.710938 169.300781 L 326.652344 161.253906 L 326.660156 161.253906 L 330.8125 168.433594 " fill-opacity="1" fill-rule="nonzero"/><path fill="#804933" d="M 344.867188 180.378906 C 344.867188 180.902344 344.832031 181.425781 344.757812 181.929688 C 344.667969 182.480469 344.550781 183.011719 344.386719 183.527344 C 344.1875 184.140625 343.945312 184.722656 343.644531 185.28125 C 343.40625 185.734375 343.136719 186.160156 342.832031 186.574219 C 342.214844 187.40625 341.476562 188.144531 340.636719 188.761719 C 340.203125 189.085938 339.738281 189.375 339.246094 189.625 C 338.691406 189.921875 338.101562 190.164062 337.492188 190.347656 C 337.011719 190.496094 336.511719 190.605469 336.003906 190.6875 C 335.503906 190.761719 334.980469 190.796875 334.457031 190.796875 C 333.925781 190.796875 333.410156 190.761719 332.902344 190.6875 C 332.355469 190.597656 331.820312 190.472656 331.304688 190.320312 C 330.691406 190.121094 330.109375 189.867188 329.558594 189.574219 C 329.109375 189.339844 328.671875 189.066406 328.269531 188.761719 C 327.433594 188.144531 326.691406 187.40625 326.070312 186.574219 C 325.75 186.132812 325.460938 185.667969 325.210938 185.179688 C 324.914062 184.621094 324.671875 184.03125 324.488281 183.417969 C 324.339844 182.9375 324.230469 182.4375 324.148438 181.929688 C 324.074219 181.425781 324.039062 180.902344 324.039062 180.378906 C 324.039062 179.855469 324.074219 179.332031 324.148438 178.832031 C 324.238281 178.277344 324.355469 177.75 324.519531 177.234375 C 324.714844 176.621094 324.960938 176.039062 325.261719 175.476562 C 325.496094 175.027344 325.769531 174.601562 326.070312 174.1875 C 326.691406 173.355469 327.433594 172.617188 328.269531 171.996094 C 328.703125 171.671875 329.167969 171.386719 329.660156 171.136719 C 330.210938 170.839844 330.800781 170.597656 331.414062 170.414062 C 331.898438 170.265625 332.394531 170.15625 332.902344 170.074219 C 333.410156 170 333.925781 169.964844 334.457031 169.964844 C 334.980469 169.964844 335.503906 170 336.003906 170.074219 C 336.546875 170.160156 337.085938 170.28125 337.601562 170.441406 C 338.214844 170.640625 338.796875 170.882812 339.347656 171.1875 C 339.796875 171.421875 340.234375 171.695312 340.636719 171.996094 C 341.476562 172.617188 342.214844 173.355469 342.832031 174.1875 C 343.15625 174.628906 343.445312 175.09375 343.695312 175.582031 C 343.988281 176.140625 344.234375 176.730469 344.417969 177.34375 C 344.566406 177.824219 344.675781 178.324219 344.757812 178.832031 C 344.832031 179.332031 344.867188 179.855469 344.867188 180.378906 " fill-opacity="1" fill-rule="nonzero"/><path fill="#ffa463" d="M 215.875 250.386719 L 190.832031 156.265625 C 192.121094 155.621094 193.035156 154.632812 193.578125 153.300781 C 193.867188 152.601562 194.039062 151.875 194.101562 151.121094 C 194.164062 150.367188 194.109375 149.621094 193.941406 148.886719 C 193.769531 148.148438 193.492188 147.457031 193.109375 146.804688 C 192.722656 146.15625 192.246094 145.578125 191.683594 145.074219 L 188.328125 142.03125 C 187.921875 141.660156 187.621094 141.222656 187.421875 140.710938 C 187.222656 140.199219 187.148438 139.671875 187.199219 139.125 L 188.046875 129.902344 L 192.289062 129.882812 C 192.71875 127.429688 193.011719 124.964844 193.171875 122.480469 C 193.421875 118.464844 191.15625 113.03125 187.121094 113.253906 C 182.945312 113.484375 180.105469 115.882812 180.28125 121.808594 C 180.378906 125.210938 179.929688 134.039062 179.808594 136.355469 C 177 136.585938 175.410156 139.78125 175.527344 143.777344 C 175.6875 149.195312 176.0625 170.832031 176.0625 170.832031 L 169.035156 215.238281 L 148.628906 245.300781 C 148.628906 245.300781 151.875 263.105469 153.5 262.644531 C 155.121094 262.183594 155.121094 252.929688 156.515625 248.769531 C 157.90625 244.605469 169.085938 232.105469 172.117188 228.882812 C 176.179688 224.5625 180.625 218.847656 181.324219 215.378906 C 182.019531 211.910156 185.035156 191.878906 185.035156 191.878906 L 210.078125 255.011719 C 210.078125 255.011719 225.382812 260.5625 225.84375 258.019531 C 226.308594 255.476562 215.875 250.386719 215.875 250.386719 Z M 215.875 250.386719 " fill-opacity="1" fill-rule="nonzero"/><path fill="#f3934f" d="M 193.824219 190.515625 C 193.25 190.816406 192.671875 191.109375 192.089844 191.394531 L 189.054688 192.855469 C 187.539062 193.597656 186.007812 194.332031 186.136719 194.6875 C 186.253906 195.015625 187.964844 194.589844 189.613281 193.976562 C 190.4375 193.675781 191.246094 193.328125 191.847656 193.058594 L 192.570312 192.722656 C 192.746094 192.640625 192.84375 192.59375 192.84375 192.59375 C 193.4375 192.300781 194.027344 192 194.617188 191.691406 C 194.617188 191.691406 194.996094 191.492188 195.558594 191.175781 C 196.121094 190.859375 196.859375 190.417969 197.570312 189.933594 C 199.007812 188.984375 200.324219 187.871094 200.113281 187.566406 C 199.914062 187.273438 198.390625 188.101562 196.867188 188.902344 L 194.777344 190.015625 Z M 193.824219 190.515625 " fill-opacity="1" fill-rule="nonzero"/><path fill="#f3934f" d="M 179.105469 197.492188 L 178.292969 197.824219 L 177.472656 198.136719 L 176.578125 198.453125 C 176.042969 198.632812 175.324219 198.878906 174.597656 199.105469 C 173.871094 199.34375 173.140625 199.558594 172.597656 199.769531 C 172.050781 199.972656 171.691406 200.171875 171.722656 200.355469 C 171.75 200.53125 172.160156 200.597656 172.773438 200.585938 C 173.515625 200.550781 174.25 200.453125 174.976562 200.296875 C 175.703125 200.148438 176.421875 199.960938 177.128906 199.738281 L 177.824219 199.503906 C 177.992188 199.445312 178.085938 199.410156 178.085938 199.410156 L 178.941406 199.082031 L 179.785156 198.730469 L 180.035156 198.621094 C 180.191406 198.546875 180.417969 198.449219 180.6875 198.320312 C 181.339844 198.003906 181.976562 197.652344 182.589844 197.269531 C 183.214844 196.890625 183.796875 196.460938 184.34375 195.984375 C 184.78125 195.574219 185.027344 195.242188 184.921875 195.089844 C 184.820312 194.945312 184.417969 195.058594 183.875 195.292969 C 183.328125 195.523438 182.632812 195.878906 181.929688 196.207031 C 181.230469 196.550781 180.523438 196.867188 179.992188 197.105469 L 179.347656 197.386719 C 179.191406 197.453125 179.105469 197.492188 179.105469 197.492188 Z M 179.105469 197.492188 " fill-opacity="1" fill-rule="nonzero"/><path fill="#be5b34" d="M 179.621094 152.019531 L 181.046875 151.902344 C 181.046875 151.902344 182.28125 151.808594 183.507812 151.625 C 184.730469 151.445312 185.949219 151.183594 185.925781 150.808594 C 185.902344 150.457031 184.625 150.371094 183.355469 150.386719 C 182.085938 150.402344 180.824219 150.507812 180.824219 150.507812 L 179.398438 150.625 C 179.398438 150.625 178.167969 150.71875 176.941406 150.898438 C 175.714844 151.082031 174.496094 151.34375 174.523438 151.71875 C 174.546875 152.070312 175.824219 152.15625 177.09375 152.140625 C 178.363281 152.125 179.621094 152.019531 179.621094 152.019531 Z M 179.621094 152.019531 " fill-opacity="1" fill-rule="nonzero"/><path fill="#f0713e" d="M 185.457031 151.269531 C 185.484375 151.542969 185.609375 151.753906 185.835938 151.914062 C 187.488281 153.4375 189.242188 154.839844 191.089844 156.121094 C 192.246094 155.46875 193.074219 154.527344 193.578125 153.300781 C 193.867188 152.601562 194.039062 151.875 194.101562 151.121094 C 194.164062 150.367188 194.109375 149.621094 193.941406 148.886719 C 193.769531 148.148438 193.492188 147.457031 193.109375 146.804688 C 192.722656 146.15625 192.246094 145.578125 191.683594 145.074219 L 191.417969 144.835938 C 189.535156 146.804688 187.648438 148.773438 185.765625 150.746094 C 185.597656 150.882812 185.496094 151.058594 185.457031 151.269531 Z M 185.457031 151.269531 " fill-opacity="1" fill-rule="nonzero"/><path fill="#ffddda" d="M 249.492188 140.8125 C 243.894531 130.710938 207.839844 141.28125 195.171875 148.183594 C 155.675781 169.695312 135.496094 189.660156 126.097656 197.148438 L 134.65625 212.894531 C 134.65625 212.894531 174.96875 202.480469 214.179688 179.816406 C 233.582031 168.601562 255.085938 150.910156 249.492188 140.8125 Z M 249.492188 140.8125 " fill-opacity="1" fill-rule="nonzero"/><path fill="#f0713e" d="M 152.597656 192.734375 C 152.597656 192.734375 129.644531 175.789062 123.425781 183.664062 C 120.078125 187.898438 129.648438 189.414062 130.632812 191.234375 C 132.433594 194.574219 135.566406 202.191406 135.566406 202.191406 Z M 152.597656 192.734375 " fill-opacity="1" fill-rule="nonzero"/><path fill="#ffc8c3" d="M 232.636719 148.46875 L 227.851562 151.082031 C 227.851562 151.082031 211.285156 160.109375 211.644531 160.761719 C 211.984375 161.378906 228.890625 152.121094 228.890625 152.121094 L 233.675781 149.503906 C 233.675781 149.503906 250.242188 140.480469 249.878906 139.824219 C 249.539062 139.207031 232.636719 148.46875 232.636719 148.46875 Z M 232.636719 148.46875 " fill-opacity="1" fill-rule="nonzero"/><path fill="#ffc8c3" d="M 175.328125 179.800781 L 165.152344 185.363281 C 165.152344 185.363281 129.9375 204.585938 130.296875 205.238281 C 130.636719 205.855469 166.597656 186.179688 166.597656 186.179688 L 176.773438 180.613281 C 176.773438 180.613281 211.988281 161.394531 211.628906 160.738281 C 211.292969 160.121094 175.328125 179.800781 175.328125 179.800781 Z M 175.328125 179.800781 " fill-opacity="1" fill-rule="nonzero"/><path fill="#f3934f" d="M 192.171875 125.320312 C 192.105469 125.269531 192.039062 125.214844 191.976562 125.15625 C 191.976562 125.15625 191.9375 125.121094 191.871094 125.066406 C 191.789062 124.996094 191.699219 124.933594 191.609375 124.875 C 191.347656 124.683594 191.074219 124.660156 190.789062 124.808594 C 190.476562 124.976562 190.492188 125.351562 190.636719 125.664062 C 190.703125 125.804688 190.789062 125.9375 190.890625 126.054688 C 190.9375 126.113281 190.988281 126.164062 191.039062 126.210938 C 191.136719 126.300781 191.242188 126.382812 191.347656 126.464844 C 191.347656 126.464844 191.417969 126.515625 191.53125 126.582031 C 191.679688 126.664062 191.835938 126.71875 192 126.75 C 192.089844 126.769531 192.179688 126.773438 192.273438 126.761719 C 192.359375 126.757812 192.441406 126.738281 192.519531 126.699219 C 192.683594 126.625 192.773438 126.496094 192.789062 126.320312 C 192.808594 126.167969 192.78125 126.023438 192.707031 125.890625 C 192.675781 125.835938 192.640625 125.78125 192.605469 125.734375 C 192.566406 125.6875 192.527344 125.644531 192.492188 125.601562 L 192.375 125.492188 L 192.273438 125.402344 C 192.242188 125.375 192.214844 125.355469 192.195312 125.34375 C 192.1875 125.335938 192.179688 125.328125 192.171875 125.320312 Z M 192.171875 125.320312 " fill-opacity="1" fill-rule="nonzero"/><path fill="#f3f0d7" d="M 199.339844 226.273438 L 198.097656 223.21875 C 198.097656 223.21875 193.839844 212.636719 193.144531 212.917969 C 192.492188 213.183594 196.882812 223.976562 196.882812 223.976562 L 198.125 227.03125 C 198.125 227.03125 202.382812 237.609375 203.078125 237.328125 C 203.734375 237.066406 199.339844 226.273438 199.339844 226.273438 Z M 199.339844 226.273438 " fill-opacity="1" fill-rule="nonzero"/><path fill="#f3f0d7" d="M 160.941406 228.40625 L 162.847656 225.410156 L 166.136719 220.230469 C 166.953125 218.933594 167.773438 217.636719 168.351562 216.640625 C 168.933594 215.640625 169.277344 214.941406 169.125 214.832031 C 168.980469 214.726562 168.410156 215.285156 167.648438 216.191406 C 166.882812 217.101562 165.933594 218.363281 165.023438 219.648438 C 164.109375 220.933594 163.230469 222.242188 162.585938 223.230469 C 161.941406 224.214844 161.515625 224.878906 161.515625 224.878906 L 159.605469 227.878906 C 159.605469 227.878906 157.957031 230.476562 156.375 233.109375 C 154.789062 235.742188 153.257812 238.410156 153.574219 238.617188 C 153.867188 238.808594 155.738281 236.273438 157.5 233.667969 C 159.261719 231.0625 160.941406 228.40625 160.941406 228.40625 Z M 160.941406 228.40625 " fill-opacity="1" fill-rule="nonzero"/><path fill="#f3934f" d="M 151.199219 253.621094 C 151.042969 252.988281 150.890625 252.355469 150.738281 251.722656 C 150.738281 251.722656 150.359375 250.074219 149.9375 248.4375 C 149.507812 246.800781 149.042969 245.164062 148.671875 245.230469 C 148.324219 245.289062 148.449219 247.035156 148.726562 248.761719 C 148.992188 250.488281 149.398438 252.1875 149.398438 252.1875 C 149.550781 252.828125 149.707031 253.464844 149.867188 254.105469 C 149.867188 254.105469 150.277344 255.761719 150.8125 257.382812 C 151.347656 259.003906 151.996094 260.585938 152.355469 260.484375 C 152.695312 260.382812 152.375 258.671875 152 256.984375 C 151.625 255.292969 151.199219 253.621094 151.199219 253.621094 Z M 151.199219 253.621094 " fill-opacity="1" fill-rule="nonzero"/><path fill="#f3934f" d="M 218.246094 256.691406 C 217.644531 256.535156 217.042969 256.367188 216.445312 256.195312 L 213.335938 255.289062 C 211.777344 254.847656 210.207031 254.394531 210.0625 254.742188 C 209.925781 255.066406 211.421875 255.867188 212.992188 256.492188 C 214.558594 257.128906 216.1875 257.589844 216.1875 257.589844 C 216.800781 257.761719 217.414062 257.929688 218.035156 258.089844 C 218.035156 258.089844 218.433594 258.195312 219.039062 258.332031 C 219.644531 258.46875 220.453125 258.632812 221.273438 258.75 C 222.910156 259 224.570312 259.058594 224.625 258.691406 C 224.671875 258.339844 223.054688 257.933594 221.453125 257.515625 Z M 218.246094 256.691406 " fill-opacity="1" fill-rule="nonzero"/><path fill="#a15b19" d="M 193.480469 115.566406 C 193.351562 114.695312 192.957031 113.964844 192.300781 113.375 C 189.730469 110.136719 181.589844 111.378906 179.007812 113.597656 C 175.296875 116.789062 175.875 123.722656 174.839844 127.9375 C 173.0625 135.1875 163.261719 135.03125 163.871094 145.5625 C 164.046875 148.597656 168.511719 151.039062 169.664062 152.921875 C 169.914062 150.496094 170.160156 148.074219 170.40625 145.648438 C 170.617188 147.523438 171.097656 149.328125 171.851562 151.0625 C 172.605469 152.792969 173.597656 154.378906 174.828125 155.8125 C 174.515625 153.257812 174.613281 150.71875 175.117188 148.195312 C 175.621094 145.671875 176.507812 143.285156 177.773438 141.042969 C 180.4375 136.359375 184.539062 132.675781 187.792969 128.378906 C 188.808594 127.035156 189.648438 125.808594 190.34375 124.6875 C 189.058594 129.195312 186.0625 136.371094 186.0625 136.371094 C 194.683594 126.152344 193.691406 117.132812 193.480469 115.566406 Z M 193.480469 115.566406 " fill-opacity="1" fill-rule="nonzero"/><path fill="#ffa463" d="M 176.6875 141.160156 L 171.03125 163.085938 L 172.101562 188.152344 L 173.074219 198.632812 L 177.003906 198.121094 L 177.140625 198.4375 C 177.226562 198.632812 177.347656 198.804688 177.507812 198.953125 C 177.667969 199.097656 177.847656 199.207031 178.054688 199.273438 C 178.257812 199.34375 178.46875 199.371094 178.683594 199.351562 C 178.898438 199.332031 179.101562 199.269531 179.289062 199.164062 C 179.578125 199.003906 179.792969 198.773438 179.933594 198.476562 C 180.074219 198.179688 180.113281 197.867188 180.050781 197.542969 C 179.640625 195.386719 178.613281 190.453125 177.203125 186.765625 L 178.683594 164.9375 L 185.035156 143.164062 C 185.035156 143.164062 186.890625 138.152344 183.257812 136.300781 C 178.5 133.878906 176.6875 141.160156 176.6875 141.160156 Z M 176.6875 141.160156 " fill-opacity="1" fill-rule="nonzero"/><path fill="#f3934f" d="M 178.527344 193.820312 C 178.703125 194.582031 178.871094 195.347656 179.027344 196.109375 L 179.257812 197.261719 L 179.367188 197.835938 C 179.378906 197.902344 179.390625 197.972656 179.394531 198.042969 C 179.398438 198.097656 179.398438 198.152344 179.390625 198.207031 C 179.363281 198.433594 179.257812 198.621094 179.082031 198.773438 C 178.90625 198.921875 178.703125 198.992188 178.476562 198.980469 C 178.363281 198.976562 178.257812 198.953125 178.15625 198.910156 C 178.105469 198.886719 178.054688 198.863281 178.011719 198.832031 L 177.9375 198.777344 L 177.820312 198.6875 L 176.664062 197.765625 L 173.707031 198.121094 L 173.578125 196.6875 C 173.578125 196.6875 173.347656 193.792969 172.597656 193.859375 C 171.898438 193.921875 172.179688 196.875 172.179688 196.875 L 172.433594 199.691406 L 176.246094 199.234375 L 176.945312 199.789062 L 177.0625 199.882812 C 177.113281 199.921875 177.171875 199.96875 177.230469 200.007812 C 177.351562 200.085938 177.476562 200.152344 177.609375 200.210938 C 177.789062 200.289062 177.980469 200.339844 178.175781 200.367188 C 178.371094 200.398438 178.570312 200.402344 178.765625 200.378906 C 178.960938 200.355469 179.152344 200.308594 179.335938 200.238281 C 179.523438 200.167969 179.695312 200.074219 179.855469 199.957031 C 180.015625 199.84375 180.160156 199.707031 180.285156 199.554688 C 180.410156 199.402344 180.515625 199.238281 180.597656 199.058594 C 180.679688 198.878906 180.738281 198.691406 180.773438 198.496094 C 180.804688 198.300781 180.816406 198.105469 180.796875 197.910156 C 180.792969 197.839844 180.78125 197.765625 180.773438 197.695312 L 180.742188 197.542969 L 180.632812 196.957031 L 180.394531 195.78125 C 180.234375 195 180.0625 194.222656 179.882812 193.445312 C 179.773438 192.96875 179.632812 192.5 179.460938 192.039062 C 179.199219 191.351562 178.832031 190.691406 178.472656 190.789062 C 178.132812 190.882812 178.160156 191.640625 178.253906 192.375 C 178.351562 193.109375 178.527344 193.820312 178.527344 193.820312 Z M 178.527344 193.820312 " fill-opacity="1" fill-rule="nonzero"/><path fill="#f3934f" d="M 183.925781 144.4375 L 183.191406 146.960938 C 183.191406 146.960938 180.617188 155.683594 181.335938 155.894531 C 182.011719 156.089844 184.601562 147.167969 184.601562 147.167969 L 185.335938 144.644531 C 185.335938 144.644531 185.492188 144.109375 185.722656 143.304688 C 185.882812 142.804688 185.996094 142.292969 186.066406 141.773438 C 186.152344 141.175781 186.171875 140.574219 186.121094 139.96875 C 186.070312 139.347656 185.917969 138.75 185.664062 138.179688 C 185.433594 137.671875 185.109375 137.234375 184.695312 136.867188 C 184.40625 136.613281 184.082031 136.425781 183.71875 136.300781 C 183.453125 136.226562 183.289062 136.234375 183.25 136.316406 C 183.160156 136.484375 183.644531 136.816406 184.101562 137.453125 C 184.355469 137.8125 184.546875 138.203125 184.671875 138.625 C 184.8125 139.117188 184.878906 139.617188 184.875 140.128906 C 184.871094 140.652344 184.820312 141.171875 184.714844 141.6875 C 184.664062 141.933594 184.609375 142.171875 184.546875 142.394531 C 184.515625 142.507812 184.484375 142.613281 184.449219 142.714844 L 184.402344 142.863281 L 184.371094 142.949219 L 184.34375 143.050781 Z M 183.925781 144.4375 " fill-opacity="1" fill-rule="nonzero"/><path fill="#885523" d="M 193.339844 125.367188 C 193.757812 124.230469 194.105469 123.078125 194.382812 121.898438 C 194.382812 121.898438 194.421875 121.707031 194.492188 121.367188 C 194.53125 121.199219 194.5625 120.988281 194.601562 120.75 C 194.644531 120.515625 194.679688 120.242188 194.710938 119.941406 C 194.792969 119.253906 194.808594 118.5625 194.765625 117.871094 C 194.722656 117.039062 194.53125 116.238281 194.191406 115.476562 L 194.039062 115.1875 C 193.988281 115.09375 193.9375 115 193.878906 114.914062 C 193.773438 114.742188 193.660156 114.578125 193.546875 114.414062 C 193.320312 114.097656 193.074219 113.792969 192.808594 113.507812 C 192.332031 112.980469 191.785156 112.546875 191.164062 112.203125 C 190.722656 111.957031 190.253906 111.804688 189.75 111.75 C 189.609375 111.730469 189.472656 111.734375 189.332031 111.761719 C 189.234375 111.78125 189.179688 111.816406 189.171875 111.863281 C 189.136719 112.054688 189.890625 112.242188 190.742188 112.921875 C 191.226562 113.316406 191.65625 113.765625 192.027344 114.265625 C 192.242188 114.546875 192.4375 114.84375 192.617188 115.148438 C 192.710938 115.304688 192.800781 115.464844 192.890625 115.625 L 192.992188 115.855469 C 193.03125 115.929688 193.0625 116.007812 193.089844 116.085938 C 193.3125 116.742188 193.425781 117.417969 193.425781 118.113281 C 193.433594 118.742188 193.390625 119.371094 193.300781 119.992188 C 193.222656 120.546875 193.128906 121.007812 193.058594 121.332031 C 193.027344 121.492188 193 121.617188 192.976562 121.703125 C 192.953125 121.789062 192.945312 121.835938 192.945312 121.835938 C 192.671875 122.953125 192.332031 124.046875 191.921875 125.121094 C 191.921875 125.121094 191.855469 125.296875 191.738281 125.601562 C 191.679688 125.753906 191.605469 125.941406 191.515625 126.152344 C 191.429688 126.363281 191.335938 126.601562 191.222656 126.859375 C 190.78125 127.894531 190.140625 129.257812 189.433594 130.585938 C 188.734375 131.917969 187.964844 133.214844 187.378906 134.1875 C 186.792969 135.15625 186.398438 135.8125 186.542969 135.941406 C 186.671875 136.050781 187.296875 135.546875 188.078125 134.644531 C 189.015625 133.527344 189.855469 132.339844 190.589844 131.082031 C 191.335938 129.832031 192.003906 128.539062 192.589844 127.207031 C 192.832031 126.660156 193.019531 126.203125 193.144531 125.875 C 193.273438 125.554688 193.339844 125.367188 193.339844 125.367188 Z M 193.339844 125.367188 " fill-opacity="1" fill-rule="nonzero"/><path fill="#f3f0d7" d="M 176.429688 116.964844 C 176 117.992188 175.667969 119.046875 175.441406 120.136719 C 175.441406 120.136719 175.28125 120.828125 175.109375 121.859375 C 175.070312 122.117188 175.023438 122.394531 174.976562 122.6875 C 174.929688 122.996094 174.890625 123.332031 174.867188 123.664062 C 174.816406 124.339844 174.8125 125.035156 174.796875 125.714844 C 174.792969 126.363281 174.75 127.011719 174.671875 127.65625 C 174.597656 128.199219 174.464844 128.730469 174.277344 129.246094 C 174.105469 129.707031 173.925781 130.085938 173.8125 130.367188 C 173.699219 130.648438 173.652344 130.828125 173.726562 130.886719 C 173.796875 130.941406 173.96875 130.851562 174.207031 130.632812 C 174.535156 130.320312 174.8125 129.96875 175.042969 129.582031 C 175.371094 129.019531 175.609375 128.421875 175.753906 127.785156 C 175.90625 127.085938 176.007812 126.375 176.054688 125.660156 C 176.109375 124.949219 176.148438 124.257812 176.226562 123.632812 C 176.246094 123.476562 176.261719 123.320312 176.289062 123.175781 C 176.300781 123.105469 176.3125 123.03125 176.324219 122.960938 L 176.367188 122.734375 C 176.421875 122.4375 176.472656 122.160156 176.519531 121.902344 C 176.617188 121.390625 176.707031 120.96875 176.765625 120.671875 C 176.832031 120.378906 176.871094 120.210938 176.871094 120.210938 C 177.082031 119.21875 177.398438 118.253906 177.816406 117.328125 L 178.011719 116.933594 C 178.070312 116.804688 178.160156 116.660156 178.257812 116.492188 C 178.308594 116.410156 178.359375 116.320312 178.414062 116.226562 L 178.609375 115.949219 C 178.921875 115.507812 179.273438 115.101562 179.667969 114.730469 L 180.015625 114.441406 L 180.191406 114.292969 L 180.382812 114.160156 L 180.769531 113.890625 L 181.1875 113.648438 C 181.75 113.328125 182.335938 113.046875 182.9375 112.804688 C 183.519531 112.566406 184.082031 112.359375 184.5625 112.171875 C 185.523438 111.800781 186.167969 111.507812 186.117188 111.324219 C 186.074219 111.15625 185.359375 111.191406 184.300781 111.378906 C 183.695312 111.488281 183.09375 111.632812 182.503906 111.808594 C 181.808594 112.011719 181.136719 112.277344 180.492188 112.601562 C 180.152344 112.769531 179.828125 112.960938 179.515625 113.171875 C 179.351562 113.265625 179.214844 113.394531 179.066406 113.503906 C 178.917969 113.609375 178.777344 113.726562 178.644531 113.847656 L 178.257812 114.214844 C 178.132812 114.332031 178.03125 114.464844 177.917969 114.589844 C 177.714844 114.820312 177.523438 115.0625 177.347656 115.316406 C 177.085938 115.695312 176.855469 116.089844 176.652344 116.5 C 176.578125 116.648438 176.519531 116.761719 176.484375 116.84375 Z M 176.429688 116.964844 " fill-opacity="1" fill-rule="nonzero"/><path fill="#f3f0d7" d="M 164.570312 139.152344 C 164.179688 139.925781 163.902344 140.734375 163.742188 141.582031 C 163.742188 141.582031 163.714844 141.71875 163.671875 141.957031 C 163.625 142.289062 163.597656 142.621094 163.585938 142.957031 C 163.546875 143.976562 163.679688 144.972656 163.984375 145.949219 C 164.277344 146.917969 164.742188 147.800781 165.382812 148.585938 C 165.589844 148.84375 165.832031 149.066406 166.101562 149.257812 C 166.304688 149.390625 166.445312 149.4375 166.515625 149.375 C 166.65625 149.253906 166.394531 148.792969 166.066406 148.113281 C 165.667969 147.292969 165.367188 146.4375 165.167969 145.546875 C 164.984375 144.667969 164.921875 143.78125 164.988281 142.882812 C 164.992188 142.703125 165.023438 142.535156 165.039062 142.390625 C 165.050781 142.261719 165.070312 142.136719 165.097656 142.011719 L 165.160156 141.6875 C 165.308594 140.972656 165.558594 140.292969 165.902344 139.648438 L 165.941406 139.570312 C 165.972656 139.523438 166.011719 139.453125 166.0625 139.363281 C 166.117188 139.277344 166.175781 139.164062 166.257812 139.042969 L 166.53125 138.640625 C 167.066406 137.917969 167.660156 137.242188 168.308594 136.617188 C 169.019531 135.914062 169.78125 135.226562 170.316406 134.660156 C 170.855469 134.09375 171.164062 133.652344 171.042969 133.511719 C 170.929688 133.378906 170.445312 133.613281 169.769531 134.03125 C 168.941406 134.550781 168.148438 135.125 167.398438 135.757812 C 166.988281 136.101562 166.597656 136.46875 166.226562 136.855469 C 166.050781 137.042969 165.882812 137.230469 165.726562 137.414062 C 165.578125 137.605469 165.429688 137.777344 165.3125 137.949219 C 165.195312 138.125 165.074219 138.277344 164.988281 138.425781 L 164.753906 138.8125 C 164.6875 138.914062 164.652344 139.007812 164.617188 139.066406 Z M 164.570312 139.152344 " fill-opacity="1" fill-rule="nonzero"/><path fill="#885523" d="M 170.253906 147.722656 C 170.324219 147.277344 170.40625 146.835938 170.503906 146.394531 L 171.027344 144.089844 C 171.285156 142.921875 171.503906 141.722656 171.144531 141.605469 C 170.8125 141.496094 170.25 142.609375 169.8125 143.785156 C 169.59375 144.371094 169.414062 144.972656 169.289062 145.429688 C 169.171875 145.890625 169.101562 146.199219 169.101562 146.199219 L 168.960938 146.90625 L 168.84375 147.617188 C 168.84375 147.617188 168.796875 147.929688 168.753906 148.398438 C 168.703125 148.976562 168.703125 149.558594 168.75 150.136719 C 168.789062 150.722656 168.910156 151.292969 169.109375 151.84375 C 169.300781 152.292969 169.503906 152.558594 169.683594 152.511719 C 169.855469 152.46875 169.914062 152.144531 169.929688 151.691406 C 169.964844 151.238281 169.953125 150.652344 170 150.066406 C 170.007812 149.773438 170.046875 149.480469 170.066406 149.207031 L 170.148438 148.457031 C 170.179688 148.234375 170.207031 148.054688 170.226562 147.921875 C 170.242188 147.792969 170.253906 147.722656 170.253906 147.722656 Z M 170.253906 147.722656 " fill-opacity="1" fill-rule="nonzero"/><path fill="#b26c29" d="M 173.308594 137.925781 L 173.527344 137.496094 L 173.761719 137.074219 L 174.035156 136.632812 C 174.203125 136.367188 174.429688 136.015625 174.671875 135.671875 C 174.902344 135.320312 175.15625 134.976562 175.316406 134.679688 C 175.480469 134.390625 175.558594 134.140625 175.4375 133.996094 C 175.324219 133.863281 175.0625 133.914062 174.734375 134.082031 C 174.34375 134.304688 173.996094 134.578125 173.6875 134.898438 C 173.375 135.214844 173.089844 135.554688 172.835938 135.917969 C 172.734375 136.066406 172.652344 136.195312 172.597656 136.285156 C 172.539062 136.375 172.507812 136.425781 172.507812 136.425781 C 172.421875 136.585938 172.328125 136.746094 172.242188 136.90625 C 172.160156 137.070312 172.078125 137.230469 172 137.394531 C 172 137.394531 171.976562 137.449219 171.933594 137.542969 C 171.890625 137.636719 171.828125 137.773438 171.769531 137.941406 C 171.613281 138.347656 171.496094 138.761719 171.417969 139.191406 C 171.332031 139.617188 171.308594 140.050781 171.347656 140.488281 C 171.398438 140.847656 171.511719 141.085938 171.699219 141.105469 C 171.875 141.121094 172.03125 140.914062 172.175781 140.605469 C 172.328125 140.300781 172.46875 139.890625 172.632812 139.492188 C 172.785156 139.089844 172.960938 138.699219 173.085938 138.40625 C 173.152344 138.261719 173.207031 138.140625 173.246094 138.054688 C 173.285156 137.972656 173.308594 137.925781 173.308594 137.925781 Z M 173.308594 137.925781 " fill-opacity="1" fill-rule="nonzero"/><path fill="#b26c29" d="M 180.226562 119.738281 C 180.324219 119.570312 180.414062 119.402344 180.511719 119.238281 C 180.617188 119.078125 180.71875 118.914062 180.828125 118.757812 L 181.199219 118.257812 C 181.429688 117.96875 181.742188 117.578125 182.09375 117.21875 C 182.429688 116.847656 182.804688 116.507812 183.066406 116.207031 C 183.339844 115.925781 183.503906 115.675781 183.414062 115.507812 C 183.332031 115.355469 183.023438 115.371094 182.605469 115.515625 C 182.101562 115.714844 181.640625 115.984375 181.21875 116.324219 C 180.992188 116.503906 180.773438 116.691406 180.570312 116.894531 C 180.375 117.085938 180.207031 117.285156 180.058594 117.445312 C 179.921875 117.617188 179.8125 117.765625 179.734375 117.867188 L 179.644531 117.984375 L 179.613281 118.03125 C 179.496094 118.214844 179.371094 118.398438 179.253906 118.589844 C 179.148438 118.78125 179.035156 118.972656 178.933594 119.167969 C 178.933594 119.167969 178.902344 119.234375 178.847656 119.347656 C 178.789062 119.460938 178.710938 119.621094 178.632812 119.820312 C 178.433594 120.3125 178.289062 120.816406 178.195312 121.335938 C 178.09375 121.855469 178.074219 122.378906 178.136719 122.902344 C 178.214844 123.332031 178.347656 123.605469 178.53125 123.609375 C 178.710938 123.609375 178.847656 123.339844 178.972656 122.960938 C 179.109375 122.582031 179.238281 122.082031 179.417969 121.601562 C 179.492188 121.355469 179.597656 121.121094 179.679688 120.898438 C 179.769531 120.679688 179.867188 120.476562 179.941406 120.300781 L 180.148438 119.890625 C 180.171875 119.839844 180.191406 119.800781 180.203125 119.773438 Z M 180.226562 119.738281 " fill-opacity="1" fill-rule="nonzero"/><path fill="#b26c29" d="M 184.292969 122.546875 C 184.554688 122.105469 184.8125 121.660156 185.0625 121.210938 C 185.0625 121.210938 185.222656 120.921875 185.449219 120.476562 C 185.675781 120.03125 185.957031 119.425781 186.199219 118.804688 C 186.695312 117.566406 187.003906 116.265625 186.65625 116.132812 C 186.324219 116.003906 185.6875 117.175781 185.042969 118.328125 L 183.769531 120.632812 C 183.527344 121.066406 183.28125 121.496094 183.023438 121.917969 L 181.683594 124.121094 C 181.023438 125.230469 180.351562 126.351562 180.644531 126.585938 C 180.917969 126.808594 181.902344 125.859375 182.746094 124.785156 C 183.167969 124.253906 183.554688 123.691406 183.839844 123.265625 L 184.167969 122.746094 C 184.25 122.621094 184.292969 122.546875 184.292969 122.546875 Z M 184.292969 122.546875 " fill-opacity="1" fill-rule="nonzero"/><path fill="#f3f0d7" d="M 123.890625 186.285156 C 123.398438 185.8125 123.070312 185.183594 123.117188 184.679688 L 123.121094 184.621094 C 123.125 184.582031 123.136719 184.535156 123.152344 184.453125 C 123.226562 184.179688 123.320312 183.910156 123.425781 183.648438 C 123.707031 182.863281 124.234375 182.316406 125.011719 182.015625 C 125.847656 181.707031 126.898438 181.695312 127.675781 181.652344 C 128.460938 181.613281 129.007812 181.546875 129.027344 181.355469 C 129.046875 181.183594 128.527344 180.984375 127.710938 180.820312 C 127.238281 180.722656 126.757812 180.667969 126.277344 180.652344 C 125.679688 180.625 125.09375 180.699219 124.523438 180.867188 C 123.898438 181.0625 123.363281 181.398438 122.917969 181.882812 C 122.726562 182.097656 122.558594 182.332031 122.414062 182.582031 C 122.351562 182.699219 122.273438 182.8125 122.226562 182.925781 C 122.175781 183.035156 122.128906 183.144531 122.082031 183.25 C 122 183.4375 121.929688 183.628906 121.875 183.828125 C 121.847656 183.914062 121.820312 183.992188 121.796875 184.070312 C 121.785156 184.109375 121.773438 184.152344 121.765625 184.195312 L 121.742188 184.320312 C 121.71875 184.445312 121.707031 184.570312 121.699219 184.695312 L 121.703125 184.828125 C 121.722656 185.359375 121.871094 185.859375 122.144531 186.316406 C 122.390625 186.738281 122.695312 187.105469 123.054688 187.429688 C 123.054688 187.429688 123.167969 187.535156 123.378906 187.699219 L 123.558594 187.832031 L 123.769531 187.96875 C 123.917969 188.0625 124.082031 188.164062 124.257812 188.261719 C 124.96875 188.671875 125.917969 189.15625 126.890625 189.601562 C 127.785156 190.019531 128.703125 190.375 129.644531 190.667969 C 130.425781 190.894531 130.984375 190.9375 131.042969 190.761719 C 131.101562 190.59375 130.644531 190.300781 129.949219 189.890625 C 129.253906 189.484375 128.3125 188.96875 127.375 188.449219 C 126.441406 187.925781 125.507812 187.398438 124.839844 186.988281 C 124.585938 186.839844 124.347656 186.675781 124.121094 186.492188 C 123.96875 186.363281 123.890625 186.285156 123.890625 186.285156 Z M 123.890625 186.285156 " fill-opacity="1" fill-rule="nonzero"/><path fill="#f3f0d7" d="M 155.917969 171.660156 L 154.320312 172.851562 L 152.734375 174.050781 L 151.03125 175.375 C 150.019531 176.175781 148.679688 177.257812 147.371094 178.375 C 146.054688 179.488281 144.773438 180.640625 143.851562 181.546875 C 142.929688 182.457031 142.371094 183.125 142.492188 183.265625 C 142.609375 183.398438 143.359375 182.925781 144.425781 182.15625 C 145.496094 181.382812 146.882812 180.316406 148.273438 179.25 L 153.828125 174.988281 L 155.40625 173.796875 L 156.996094 172.617188 L 158.722656 171.351562 L 160.5 170.066406 C 161.15625 169.605469 161.84375 169.097656 162.546875 168.609375 L 163.585938 167.871094 L 164.597656 167.160156 C 165.246094 166.691406 165.867188 166.269531 166.382812 165.886719 C 167.425781 165.136719 168.101562 164.59375 168.007812 164.425781 C 167.921875 164.277344 167.089844 164.597656 165.90625 165.203125 C 165.320312 165.511719 164.636719 165.875 163.929688 166.300781 C 163.574219 166.511719 163.203125 166.730469 162.835938 166.957031 L 161.722656 167.660156 C 160.976562 168.128906 160.246094 168.625 159.558594 169.085938 C 158.878906 169.554688 158.242188 169.992188 157.703125 170.371094 L 156.410156 171.304688 Z M 155.917969 171.660156 " fill-opacity="1" fill-rule="nonzero"/><path fill="#9f632b" d="M 178.117188 221.703125 C 178.605469 220.886719 179.074219 220.054688 179.511719 219.207031 C 179.511719 219.207031 179.589844 219.074219 179.710938 218.828125 L 180.199219 217.820312 C 180.398438 217.402344 180.601562 216.898438 180.832031 216.367188 C 180.941406 216.097656 181.046875 215.816406 181.15625 215.53125 C 181.261719 215.246094 181.371094 214.957031 181.464844 214.660156 L 181.746094 213.78125 C 181.835938 213.488281 181.90625 213.195312 181.980469 212.914062 C 182.117188 212.402344 182.222656 211.882812 182.304688 211.359375 C 182.339844 211.152344 182.363281 210.941406 182.378906 210.730469 C 182.390625 210.539062 182.394531 210.371094 182.390625 210.234375 C 182.382812 209.957031 182.339844 209.789062 182.246094 209.773438 C 182.160156 209.753906 182.050781 209.890625 181.921875 210.136719 C 181.859375 210.261719 181.792969 210.414062 181.722656 210.589844 C 181.652344 210.765625 181.578125 210.964844 181.488281 211.179688 C 181.316406 211.609375 181.144531 212.117188 180.925781 212.648438 C 180.820312 212.917969 180.722656 213.195312 180.605469 213.476562 C 180.488281 213.753906 180.375 214.035156 180.257812 214.320312 C 180.148438 214.605469 180.011719 214.882812 179.894531 215.160156 C 179.769531 215.433594 179.660156 215.707031 179.535156 215.964844 C 179.285156 216.484375 179.074219 216.972656 178.859375 217.382812 C 178.652344 217.789062 178.484375 218.136719 178.359375 218.371094 L 178.164062 218.742188 C 177.945312 219.152344 177.734375 219.5625 177.5 219.960938 C 177.261719 220.359375 177.042969 220.765625 176.796875 221.15625 L 176.582031 221.507812 C 176.445312 221.734375 176.25 222.054688 176.003906 222.433594 C 175.757812 222.808594 175.480469 223.257812 175.164062 223.71875 L 174.679688 224.441406 L 174.164062 225.175781 C 173.828125 225.675781 173.460938 226.152344 173.140625 226.621094 C 172.8125 227.078125 172.496094 227.503906 172.242188 227.882812 C 171.714844 228.625 171.410156 229.167969 171.546875 229.296875 C 171.671875 229.414062 172.191406 229.046875 172.894531 228.40625 C 173.234375 228.078125 173.628906 227.691406 174.027344 227.253906 C 174.421875 226.816406 174.839844 226.339844 175.230469 225.84375 C 175.425781 225.597656 175.625 225.351562 175.8125 225.101562 L 176.355469 224.367188 C 176.710938 223.894531 177.007812 223.429688 177.273438 223.039062 C 177.539062 222.644531 177.738281 222.304688 177.886719 222.070312 Z M 178.117188 221.703125 " fill-opacity="1" fill-rule="nonzero"/><path fill="#9f632b" d="M 208.015625 218.488281 L 206.492188 212.699219 C 206.492188 212.699219 205.183594 207.695312 203.785156 202.710938 C 203.089844 200.21875 202.371094 197.734375 201.785156 195.878906 C 201.199219 194.027344 200.757812 192.8125 200.578125 192.851562 C 200.402344 192.890625 200.59375 194.210938 200.996094 196.15625 C 201.398438 198.101562 202.003906 200.675781 202.632812 203.242188 C 203.890625 208.378906 205.242188 213.492188 205.242188 213.492188 L 206.765625 219.277344 C 206.765625 219.277344 208.074219 224.285156 209.472656 229.269531 C 210.167969 231.761719 210.886719 234.246094 211.472656 236.097656 C 212.058594 237.953125 212.5 239.167969 212.679688 239.128906 C 212.855469 239.089844 212.664062 237.769531 212.261719 235.824219 C 211.859375 233.878906 211.253906 231.304688 210.625 228.734375 C 209.363281 223.601562 208.015625 218.488281 208.015625 218.488281 Z M 208.015625 218.488281 " fill-opacity="1" fill-rule="nonzero"/><path fill="#f3f0d7" d="M 171.878906 168.71875 C 171.804688 167.292969 171.738281 165.867188 171.710938 164.460938 C 171.710938 164.460938 171.710938 164.234375 171.707031 163.839844 C 171.703125 163.734375 171.710938 163.636719 171.714844 163.527344 C 171.71875 163.417969 171.722656 163.300781 171.730469 163.171875 C 171.761719 162.914062 171.796875 162.621094 171.859375 162.285156 C 172.089844 160.945312 172.488281 159.136719 172.878906 157.332031 C 173.277344 155.523438 173.671875 153.714844 173.9375 152.351562 C 174.199219 150.984375 174.335938 150.070312 174.164062 150.007812 C 173.992188 149.949219 173.578125 150.832031 173.117188 152.183594 C 172.652344 153.53125 172.117188 155.355469 171.625 157.191406 C 171.140625 159.035156 170.691406 160.875 170.4375 162.320312 C 170.332031 162.921875 170.285156 163.53125 170.300781 164.140625 C 170.300781 164.355469 170.300781 164.519531 170.300781 164.632812 L 170.304688 164.808594 C 170.335938 166.253906 170.414062 167.679688 170.484375 169.113281 C 170.484375 169.113281 170.53125 170.042969 170.625 171.433594 C 170.714844 172.820312 170.851562 174.671875 171.015625 176.523438 C 171.351562 180.21875 171.804688 183.90625 172.179688 183.878906 C 172.53125 183.851562 172.421875 180.0625 172.253906 176.277344 C 172.171875 174.386719 172.074219 172.496094 172 171.078125 C 171.925781 169.660156 171.878906 168.71875 171.878906 168.71875 Z M 171.878906 168.71875 " fill-opacity="1" fill-rule="nonzero"/><path fill="#9f632b" d="M 218.664062 251.777344 C 218.019531 251.449219 217.371094 251.136719 216.710938 250.839844 L 216.351562 250.683594 L 216.34375 250.683594 L 216.332031 250.640625 C 216.292969 250.511719 216.253906 250.371094 216.210938 250.222656 C 216.121094 249.925781 216.023438 249.601562 215.921875 249.261719 C 215.714844 248.582031 215.476562 247.847656 215.242188 247.171875 C 214.765625 245.816406 214.277344 244.707031 213.988281 244.789062 C 213.71875 244.859375 213.867188 246.03125 214.144531 247.421875 C 214.285156 248.117188 214.457031 248.867188 214.625 249.5625 C 214.710938 249.910156 214.792969 250.242188 214.871094 250.550781 C 214.910156 250.703125 214.945312 250.851562 214.980469 250.988281 L 215.171875 251.695312 L 216.0625 252.09375 L 216.273438 252.191406 C 216.910156 252.480469 217.542969 252.785156 218.164062 253.105469 L 219.167969 253.628906 C 219.769531 253.949219 220.566406 254.382812 221.359375 254.832031 C 222.152344 255.277344 222.945312 255.730469 223.5625 256.042969 C 224.179688 256.359375 224.628906 256.527344 224.742188 256.375 C 224.847656 256.238281 224.550781 255.84375 224.027344 255.351562 C 223.375 254.761719 222.683594 254.222656 221.957031 253.730469 C 221.167969 253.1875 220.347656 252.695312 219.71875 252.34375 C 219.09375 251.992188 218.664062 251.777344 218.664062 251.777344 Z M 218.664062 251.777344 " fill-opacity="1" fill-rule="nonzero"/><path fill="#9f632b" d="M 154.714844 254.050781 L 154.445312 255.742188 C 154.445312 255.742188 153.480469 261.585938 154.21875 261.703125 C 154.917969 261.8125 155.859375 255.835938 155.859375 255.835938 L 156.128906 254.144531 C 156.128906 254.144531 157.09375 248.296875 156.351562 248.179688 C 155.65625 248.070312 154.714844 254.050781 154.714844 254.050781 Z M 154.714844 254.050781 " fill-opacity="1" fill-rule="nonzero"/><path fill="#f3f0d7" d="M 130.578125 203.847656 L 129.367188 201.214844 L 128.679688 199.738281 C 128.472656 199.296875 128.226562 198.785156 127.96875 198.238281 L 127.558594 197.402344 C 127.492188 197.269531 127.425781 197.136719 127.359375 197.003906 C 127.347656 196.988281 127.332031 196.976562 127.320312 196.960938 C 127.328125 196.945312 127.339844 196.929688 127.351562 196.910156 C 127.351562 196.90625 127.355469 196.90625 127.355469 196.902344 L 127.398438 196.863281 L 127.476562 196.78125 L 127.636719 196.621094 L 128.257812 195.992188 C 128.652344 195.585938 129.015625 195.195312 129.316406 194.851562 C 129.917969 194.167969 130.269531 193.664062 130.148438 193.527344 C 130.035156 193.402344 129.507812 193.707031 128.773438 194.246094 C 128.40625 194.515625 127.988281 194.84375 127.542969 195.203125 L 126.859375 195.765625 L 126.6875 195.910156 L 126.597656 195.984375 L 126.476562 196.085938 L 125.824219 196.65625 L 126.199219 197.515625 L 126.398438 197.984375 L 126.78125 198.875 C 127.035156 199.449219 127.273438 199.992188 127.480469 200.457031 L 128.179688 202.011719 L 129.390625 204.644531 C 129.390625 204.644531 133.542969 213.769531 134.222656 213.453125 C 134.863281 213.152344 130.578125 203.847656 130.578125 203.847656 Z M 130.578125 203.847656 " fill-opacity="1" fill-rule="nonzero"/><path fill="#f3f0d7" d="M 205.992188 143.71875 L 203.578125 144.636719 L 201.179688 145.585938 L 200.46875 145.878906 C 200.019531 146.066406 199.371094 146.324219 198.601562 146.65625 C 197.0625 147.320312 195.019531 148.21875 193.011719 149.195312 C 191 150.160156 189.023438 151.203125 187.574219 152.035156 C 186.125 152.878906 185.199219 153.511719 185.285156 153.675781 C 185.367188 153.832031 186.4375 153.429688 188 152.75 C 189.566406 152.085938 191.632812 151.148438 193.710938 150.25 C 195.785156 149.335938 197.875 148.464844 199.441406 147.8125 L 201.34375 147.039062 C 201.800781 146.851562 202.0625 146.746094 202.0625 146.746094 L 204.449219 145.808594 L 206.84375 144.902344 L 209.449219 143.957031 C 211.015625 143.398438 213.101562 142.65625 215.207031 141.953125 C 217.304688 141.234375 219.414062 140.550781 220.988281 139.996094 C 222.5625 139.453125 223.601562 139.03125 223.550781 138.847656 C 223.507812 138.679688 222.375 138.847656 220.703125 139.210938 C 219.03125 139.589844 216.824219 140.164062 214.640625 140.824219 C 212.453125 141.46875 210.289062 142.195312 208.671875 142.753906 L 206.726562 143.453125 C 206.257812 143.617188 205.992188 143.71875 205.992188 143.71875 Z M 205.992188 143.71875 " fill-opacity="1" fill-rule="nonzero"/><path fill="#de8b82" d="M 229.191406 170.980469 L 232.722656 168.65625 L 234.480469 167.445312 C 235.054688 167.03125 235.625 166.601562 236.199219 166.179688 C 236.199219 166.179688 236.289062 166.109375 236.460938 165.976562 L 237.195312 165.390625 L 237.71875 164.976562 C 237.910156 164.820312 238.105469 164.644531 238.320312 164.464844 C 238.746094 164.097656 239.238281 163.691406 239.742188 163.214844 L 240.535156 162.476562 L 241.359375 161.660156 L 241.785156 161.234375 L 242.207031 160.777344 C 242.492188 160.46875 242.789062 160.164062 243.070312 159.832031 C 244.28125 158.472656 245.378906 157.027344 246.367188 155.496094 C 248.40625 152.386719 249.777344 148.855469 250.238281 146.105469 C 250.449219 144.996094 250.535156 143.878906 250.488281 142.753906 C 250.445312 141.941406 250.304688 141.484375 250.214844 141.496094 C 250.125 141.507812 250.105469 141.96875 250.011719 142.765625 C 249.882812 143.867188 249.679688 144.953125 249.402344 146.023438 C 249.007812 147.535156 248.480469 149.003906 247.820312 150.421875 C 247.066406 152.046875 246.175781 153.597656 245.148438 155.066406 C 244.121094 156.542969 243 157.9375 241.777344 159.257812 C 241.484375 159.570312 241.191406 159.875 240.90625 160.175781 C 240.617188 160.46875 240.324219 160.75 240.042969 161.027344 L 239.625 161.433594 L 239.207031 161.816406 L 238.410156 162.539062 C 237.890625 162.996094 237.402344 163.398438 236.980469 163.761719 C 236.542969 164.117188 236.15625 164.414062 235.84375 164.667969 L 235.421875 165 L 235.101562 165.238281 L 234.835938 165.433594 C 234.273438 165.847656 233.722656 166.269531 233.140625 166.65625 C 232.566406 167.046875 232 167.445312 231.410156 167.832031 C 230.234375 168.601562 229.066406 169.382812 227.886719 170.148438 L 224.0625 172.628906 C 221.769531 174.117188 218.691406 176.074219 215.601562 178.007812 C 212.511719 179.945312 209.402344 181.84375 207.066406 183.269531 C 204.734375 184.695312 203.179688 185.648438 203.261719 185.8125 C 203.34375 185.976562 205.070312 185.238281 207.5625 183.945312 C 210.054688 182.65625 213.3125 180.820312 216.523438 178.910156 C 219.734375 176.996094 222.90625 175.019531 225.269531 173.511719 C 226.453125 172.761719 227.429688 172.121094 228.117188 171.679688 Z M 229.191406 170.980469 " fill-opacity="1" fill-rule="nonzero"/><path fill="#de8b82" d="M 155.703125 205.414062 C 154.125 205.953125 152.546875 206.488281 150.960938 207.011719 L 142.746094 209.742188 C 138.644531 211.132812 134.550781 212.550781 134.660156 212.90625 C 134.761719 213.246094 139.054688 212.132812 143.304688 210.878906 C 145.429688 210.25 147.546875 209.589844 149.128906 209.085938 C 149.921875 208.832031 150.578125 208.621094 151.039062 208.464844 L 151.761719 208.226562 C 153.351562 207.703125 154.933594 207.160156 156.519531 206.625 L 159.078125 205.722656 C 159.847656 205.453125 160.734375 205.117188 161.6875 204.761719 C 162.640625 204.40625 163.652344 204.007812 164.660156 203.601562 C 166.679688 202.796875 168.671875 201.910156 170.125 201.15625 C 170.308594 201.0625 170.480469 200.976562 170.644531 200.886719 L 171.105469 200.617188 C 171.394531 200.449219 171.640625 200.292969 171.839844 200.160156 C 172.238281 199.890625 172.445312 199.699219 172.402344 199.617188 C 172.363281 199.539062 172.074219 199.589844 171.613281 199.738281 C 171.382812 199.8125 171.105469 199.910156 170.789062 200.027344 L 170.292969 200.21875 L 169.734375 200.417969 C 168.183594 200.996094 166.121094 201.769531 164.039062 202.503906 L 162.492188 203.058594 L 160.984375 203.585938 C 160.007812 203.925781 159.097656 204.25 158.3125 204.515625 Z M 155.703125 205.414062 " fill-opacity="1" fill-rule="nonzero"/><path fill="#be5b34" d="M 143.375 185.59375 C 142.441406 185.136719 141.496094 184.703125 140.539062 184.304688 C 140.539062 184.304688 139.917969 184.039062 138.976562 183.679688 C 138.03125 183.320312 136.761719 182.875 135.472656 182.496094 C 134.292969 182.136719 133.09375 181.851562 131.878906 181.632812 C 130.882812 181.46875 130.195312 181.457031 130.152344 181.636719 C 130.113281 181.808594 130.742188 182.085938 131.695312 182.445312 C 132.648438 182.808594 133.925781 183.25 135.191406 183.714844 C 136.457031 184.183594 137.714844 184.664062 138.648438 185.046875 L 139.773438 185.507812 L 140.199219 185.691406 C 141.132812 186.089844 142.054688 186.507812 142.960938 186.957031 C 142.960938 186.957031 145.328125 188.101562 147.550781 189.480469 C 148.664062 190.164062 149.738281 190.910156 150.546875 191.472656 C 150.75 191.613281 150.9375 191.742188 151.109375 191.851562 C 151.273438 191.964844 151.421875 192.0625 151.550781 192.136719 C 151.808594 192.285156 151.984375 192.339844 152.050781 192.273438 C 152.121094 192.207031 152.046875 192.039062 151.875 191.785156 C 151.789062 191.65625 151.679688 191.507812 151.542969 191.34375 C 151.40625 191.183594 151.246094 191.007812 151.066406 190.820312 C 150.167969 189.914062 149.191406 189.101562 148.144531 188.378906 C 147.105469 187.652344 146.027344 186.988281 144.910156 186.382812 C 143.996094 185.890625 143.375 185.59375 143.375 185.59375 Z M 143.375 185.59375 " fill-opacity="1" fill-rule="nonzero"/><path fill="#be5b34" d="M 194.054688 146.867188 C 193.988281 146.738281 193.929688 146.609375 193.863281 146.480469 C 193.796875 146.355469 193.726562 146.230469 193.652344 146.109375 L 193.585938 146 C 193.539062 145.933594 193.480469 145.832031 193.398438 145.722656 C 193.199219 145.445312 192.972656 145.195312 192.71875 144.964844 C 192.464844 144.730469 192.179688 144.546875 191.859375 144.414062 C 191.585938 144.320312 191.363281 144.324219 191.253906 144.472656 C 191.144531 144.613281 191.199219 144.820312 191.320312 145.050781 C 191.46875 145.3125 191.625 145.566406 191.800781 145.8125 C 191.980469 146.074219 192.144531 146.339844 192.269531 146.539062 C 192.386719 146.738281 192.46875 146.875 192.46875 146.875 L 192.640625 147.183594 L 192.792969 147.5 C 192.792969 147.5 192.851562 147.640625 192.945312 147.847656 C 193.03125 148.0625 193.152344 148.34375 193.257812 148.632812 C 193.359375 148.910156 193.476562 149.179688 193.609375 149.445312 C 193.730469 149.667969 193.878906 149.828125 194.066406 149.824219 C 194.242188 149.820312 194.367188 149.636719 194.441406 149.351562 C 194.511719 149.007812 194.523438 148.664062 194.46875 148.3125 C 194.425781 147.96875 194.34375 147.632812 194.230469 147.304688 C 194.179688 147.171875 194.136719 147.0625 194.105469 146.984375 C 194.074219 146.910156 194.054688 146.867188 194.054688 146.867188 Z M 194.054688 146.867188 " fill-opacity="1" fill-rule="nonzero"/></svg>