<svg xmlns="http://www.w3.org/2000/svg" xmlns:xlink="http://www.w3.org/1999/xlink" width="500" zoomAndPan="magnify" viewBox="0 0 375 374.999991" height="500" preserveAspectRatio="xMidYMid meet" version="1.0"><defs><clipPath id="3725b1fc58"><path d="M 84 41.636719 L 289 41.636719 L 289 98 L 84 98 Z M 84 41.636719 " clip-rule="nonzero"/></clipPath><clipPath id="0ccf1705d5"><path d="M 64.179688 166 L 309 166 L 309 224 L 64.179688 224 Z M 64.179688 166 " clip-rule="nonzero"/></clipPath><clipPath id="55f8e3f4a7"><path d="M 64.179688 103 L 309 103 L 309 161 L 64.179688 161 Z M 64.179688 103 " clip-rule="nonzero"/></clipPath><clipPath id="21f0408261"><path d="M 181 216 L 214 216 L 214 333.386719 L 181 333.386719 Z M 181 216 " clip-rule="nonzero"/></clipPath><clipPath id="cd9d5706e2"><path d="M 138 132 L 310.929688 132 L 310.929688 219 L 138 219 Z M 138 132 " clip-rule="nonzero"/></clipPath></defs><g clip-path="url(#3725b1fc58)"><path fill="#ff0070" d="M 288.53125 97.140625 L 279.167969 96.550781 L 269.910156 96.867188 L 260.65625 96.570312 L 251.398438 96.605469 L 242.140625 97.078125 L 232.882812 96.378906 L 223.625 96.8125 L 214.367188 96.875 L 205.105469 96.542969 L 195.847656 96.289062 L 186.589844 97.171875 L 177.328125 96.816406 L 168.066406 97.363281 L 158.808594 96.921875 L 149.550781 97.339844 L 140.289062 96.890625 L 131.03125 97.179688 L 121.769531 96.972656 L 112.503906 96.988281 L 103.238281 97.378906 L 93.972656 96.773438 L 84.535156 97.304688 L 90.285156 89.417969 L 95.832031 81.960938 L 102.1875 75.167969 L 109.109375 68.933594 L 116.929688 63.867188 L 124.753906 58.914062 L 132.859375 54.425781 L 141.441406 50.945312 L 150.117188 47.753906 L 159.082031 45.492188 L 168.082031 43.285156 L 177.25 41.636719 L 186.5625 42.15625 L 195.839844 42.066406 L 205.066406 43.125 L 214.269531 44.515625 L 222.960938 47.894531 L 231.761719 50.757812 L 240.546875 53.851562 L 248.808594 58.171875 L 256.339844 63.664062 L 263.449219 69.625 L 270.417969 75.710938 L 277.171875 82.070312 L 282.796875 89.449219 Z M 288.53125 97.140625 " fill-opacity="1" fill-rule="nonzero"/></g><path fill="#ff0070" d="M 84.761719 230.3125 L 93.957031 229.785156 L 103.210938 230.605469 L 112.46875 229.980469 L 121.726562 230.328125 L 130.980469 230.734375 L 140.238281 229.605469 L 149.496094 230.75 L 158.753906 230.40625 L 168.015625 230.597656 L 177.277344 230.140625 L 186.535156 230.441406 L 195.796875 230.214844 L 205.058594 230.148438 L 214.3125 230.480469 L 223.574219 230.21875 L 232.832031 230.46875 L 242.09375 230.140625 L 251.355469 230.4375 L 260.621094 230.171875 L 269.882812 230.71875 L 279.152344 230.609375 L 288.5 229.902344 L 283.027344 237.6875 L 277.066406 244.796875 L 270.496094 251.335938 L 263.867188 257.847656 L 256.320312 263.273438 L 248.566406 268.386719 L 240.460938 272.9375 L 231.71875 276.105469 L 223.0625 279.382812 L 214.039062 281.460938 L 205.148438 284.363281 L 195.878906 285.398438 L 186.5625 285.734375 L 177.25 285.335938 L 168.050781 283.875 L 158.878906 282.339844 L 150.113281 279.222656 L 141.230469 276.53125 L 132.796875 272.660156 L 124.835938 267.90625 L 117.039062 262.933594 L 109.765625 257.226562 L 102.828125 251.121094 L 96.386719 244.496094 L 90.015625 237.75 Z M 84.761719 230.3125 " fill-opacity="1" fill-rule="nonzero"/><g clip-path="url(#0ccf1705d5)"><path fill="#ff0070" d="M 308.164062 167.253906 L 307.589844 176.773438 L 306.273438 186.480469 L 303.847656 195.972656 L 301.007812 205.347656 L 297.792969 214.648438 L 292.714844 223.058594 L 283.492188 222.609375 L 274.269531 223.480469 L 265.039062 223.753906 L 255.8125 222.800781 L 246.585938 223.59375 L 237.355469 223.378906 L 228.125 222.945312 L 218.898438 223.371094 L 209.667969 222.359375 L 200.433594 222.789062 L 191.203125 222.824219 L 181.972656 223.574219 L 172.742188 223.070312 L 163.507812 222.65625 L 154.28125 223.773438 L 145.050781 223.609375 L 135.816406 222.644531 L 126.585938 222.707031 L 117.351562 222.953125 L 108.117188 223.683594 L 98.882812 223.503906 L 89.640625 222.84375 L 80.464844 222.835938 L 75.824219 214.417969 L 72.035156 205.378906 L 68.550781 196.175781 L 66.824219 186.488281 L 66.0625 176.714844 L 64.832031 166.894531 L 74.226562 166.785156 L 83.578125 166.910156 L 92.933594 167.585938 L 102.292969 166.527344 L 111.648438 167.0625 L 121.007812 167.65625 L 130.367188 166.640625 L 139.722656 167.28125 L 149.082031 167.484375 L 158.441406 166.714844 L 167.800781 167.65625 L 177.164062 167.679688 L 186.523438 167.6875 L 195.886719 167.242188 L 205.246094 167.019531 L 214.609375 166.507812 L 223.972656 166.757812 L 233.332031 166.667969 L 242.691406 167.058594 L 252.054688 166.589844 L 261.417969 167.441406 L 270.78125 166.324219 L 280.148438 166.839844 L 289.511719 166.480469 L 298.875 167.628906 Z M 308.164062 167.253906 " fill-opacity="1" fill-rule="nonzero"/></g><g clip-path="url(#55f8e3f4a7)"><path fill="#ff0070" d="M 308.167969 159.699219 L 298.894531 160.082031 L 289.542969 160.609375 L 280.1875 160.230469 L 270.828125 160.507812 L 261.472656 160.285156 L 252.113281 160.527344 L 242.757812 160.011719 L 233.398438 159.976562 L 224.039062 159.96875 L 214.679688 160.601562 L 205.320312 159.535156 L 195.960938 160.355469 L 186.597656 159.851562 L 177.238281 160.203125 L 167.875 160.519531 L 158.511719 159.839844 L 149.148438 160.226562 L 139.792969 159.78125 L 130.429688 159.410156 L 121.070312 160.292969 L 111.707031 159.792969 L 102.34375 159.230469 L 92.976562 159.820312 L 83.609375 159.6875 L 74.238281 160.261719 L 64.726562 160.34375 L 65.472656 150.171875 L 66.75 140.449219 L 69.839844 131.136719 L 72.617188 121.792969 L 76.1875 112.707031 L 80.582031 104.574219 L 89.628906 103.5625 L 98.855469 103.199219 L 108.082031 104.414062 L 117.308594 103.519531 L 126.539062 104.332031 L 135.765625 103.703125 L 144.996094 103.292969 L 154.226562 103.167969 L 163.457031 103.894531 L 172.6875 103.910156 L 181.917969 103.179688 L 191.148438 103.96875 L 200.382812 103.679688 L 209.613281 103.917969 L 218.84375 103.953125 L 228.074219 104.21875 L 237.304688 103.433594 L 246.535156 103.5625 L 255.769531 103.875 L 265.007812 104.46875 L 274.242188 104.40625 L 283.480469 104.308594 L 292.617188 104.269531 L 297.558594 112.417969 L 301.34375 121.484375 L 304.066406 130.921875 L 306.179688 140.488281 L 307.128906 150.226562 Z M 308.167969 159.699219 " fill-opacity="1" fill-rule="nonzero"/></g><g clip-path="url(#21f0408261)"><path fill="#a55832" d="M 213.367188 216.261719 L 213.367188 216.792969 C 213.367188 216.792969 208.492188 234.796875 206.265625 240.410156 C 204.042969 246.023438 202.875 263.390625 203.195312 267.203125 C 203.511719 271.015625 198.53125 291.878906 196.414062 298.550781 C 194.296875 305.222656 192.8125 310.835938 193.128906 315.601562 C 193.449219 320.367188 195.957031 326.4375 197.15625 328.417969 C 198.355469 330.394531 200.226562 330.570312 200.511719 331.523438 C 200.792969 332.476562 195.640625 333.679688 193.90625 333.320312 C 193.90625 333.320312 189.667969 329.792969 188.183594 327.25 C 186.703125 324.710938 182.886719 324.003906 181.898438 321.179688 C 181.265625 319.355469 182.332031 316.710938 183.285156 314.585938 C 183.285156 314.585938 183.285156 314.585938 183.285156 314.582031 C 183.808594 313.421875 184.292969 312.414062 184.441406 311.789062 C 184.867188 310.023438 183.453125 288.351562 183.734375 280.9375 C 184.019531 273.523438 187.832031 263.003906 187.480469 259.402344 C 187.125 255.800781 186.136719 241.332031 186.5625 236.386719 C 186.984375 231.441406 186.457031 218.914062 186.457031 218.914062 L 186.40625 218.238281 C 186.40625 218.238281 186.640625 218.230469 187.0625 218.210938 C 189.488281 218.105469 198.011719 217.714844 201.546875 217.445312 C 205.691406 217.132812 213.367188 216.261719 213.367188 216.261719 Z M 213.367188 216.261719 " fill-opacity="1" fill-rule="nonzero"/></g><g clip-path="url(#cd9d5706e2)"><path fill="#ffd100" d="M 138.886719 179.996094 C 138.886719 179.996094 138.601562 173.691406 143.125 168.75 C 147.644531 163.808594 165.300781 151.242188 173.496094 147.285156 C 181.6875 143.332031 200.191406 138.109375 200.191406 138.109375 C 200.191406 138.109375 217.851562 132.035156 246.242188 133.023438 C 274.636719 134.011719 310.078125 142.101562 310.375 152.511719 C 310.671875 162.917969 290.644531 182.871094 271.695312 194.871094 C 252.742188 206.875 220.816406 215.699219 209.515625 216.792969 C 198.214844 217.890625 176.320312 219.019531 167.984375 218.03125 C 159.652344 217.042969 147.503906 211.253906 145.667969 208.429688 C 143.832031 205.605469 137.191406 196.042969 138.886719 179.996094 Z M 138.886719 179.996094 " fill-opacity="1" fill-rule="nonzero"/></g><path fill="#a55832" d="M 184.441406 311.789062 C 184.292969 312.414062 183.808594 313.421875 183.285156 314.582031 C 183.160156 314.226562 177.144531 297.453125 175.191406 290.75 C 173.210938 283.972656 171.09375 268.441406 172.648438 262.789062 C 174.199219 257.144531 169.683594 237.234375 169.113281 234.691406 C 168.550781 232.152344 162.195312 216.792969 162.195312 216.792969 C 162.195312 216.792969 166.648438 217.957031 168.722656 218.109375 C 170.804688 218.261719 180.914062 218.390625 182.890625 218.339844 C 184.871094 218.285156 187.058594 218.171875 187.058594 218.171875 L 187.0625 218.210938 C 186.640625 218.230469 186.40625 218.238281 186.40625 218.238281 L 186.457031 218.914062 C 186.457031 218.914062 186.984375 231.441406 186.5625 236.386719 C 186.136719 241.332031 187.125 255.800781 187.480469 259.402344 C 187.832031 263.003906 184.019531 273.523438 183.734375 280.9375 C 183.453125 288.351562 184.867188 310.023438 184.441406 311.789062 Z M 184.441406 311.789062 " fill-opacity="1" fill-rule="nonzero"/><path fill="#ffd100" d="M 201.933594 137.527344 C 201.933594 137.527344 202.101562 150.578125 202.394531 151.492188 C 202.683594 152.402344 204.429688 164.617188 206.324219 168.253906 C 208.214844 171.890625 213.449219 184.6875 214.46875 189.484375 C 215.488281 194.285156 216.507812 198.5 216.507812 199.664062 C 216.507812 200.828125 212.578125 216.261719 212.578125 216.261719 L 220.433594 214.644531 C 220.433594 214.644531 224.644531 202.960938 224.503906 202.765625 C 224.363281 202.574219 218.398438 178.152344 218.398438 177.128906 C 218.398438 176.105469 205.160156 136.988281 205.160156 136.988281 C 205.160156 136.988281 203.242188 136.507812 201.933594 137.527344 Z M 201.933594 137.527344 " fill-opacity="1" fill-rule="nonzero"/><path fill="#a55832" d="M 198.855469 88.441406 C 198.53125 89.019531 196.648438 89.105469 196.648438 89.105469 C 196.648438 89.105469 197.203125 90.136719 197.203125 90.765625 C 197.203125 91.40625 196.726562 91.617188 196.621094 91.929688 C 196.515625 92.253906 196.949219 92.628906 196.949219 93.105469 C 196.949219 93.582031 195.386719 93.953125 195.355469 94.84375 C 195.320312 95.734375 195.84375 96.839844 195.421875 97.652344 C 195 98.464844 194.132812 99.351562 192.59375 99.351562 C 191.304688 99.351562 187.8125 99.015625 186.125 98.933594 C 185.738281 98.921875 185.449219 99.246094 185.507812 99.632812 C 185.773438 101.445312 186.484375 106.078125 186.613281 106.078125 C 186.613281 106.078125 184.761719 106.191406 182.273438 106.34375 C 177.058594 106.660156 169.027344 107.136719 169.027344 107.136719 C 169.027344 107.136719 171.414062 97.863281 171.25 97.652344 C 171.097656 97.445312 167.28125 84.683594 167.699219 81.074219 C 168.132812 77.480469 172.738281 68.742188 180.734375 67.417969 C 188.730469 66.089844 192.175781 69.746094 193.652344 70.652344 C 195.144531 71.546875 196.308594 76.691406 196.785156 77.957031 C 197.261719 79.226562 196.097656 80.925781 196.203125 81.820312 C 196.308594 82.714844 199.171875 87.859375 198.855469 88.441406 Z M 198.855469 88.441406 " fill-opacity="1" fill-rule="nonzero"/><path fill="#a55832" d="M 186.613281 106.078125 C 186.613281 106.078125 184.761719 106.191406 182.273438 106.34375 C 181.550781 105.984375 180.875 105.554688 180.351562 105.0625 C 178.035156 102.878906 180.539062 98.957031 182.644531 98.527344 C 184.75 98.085938 186.125 98.933594 186.125 98.933594 C 185.738281 98.921875 185.449219 99.246094 185.507812 99.632812 C 185.773438 101.445312 186.484375 106.078125 186.613281 106.078125 Z M 186.613281 106.078125 " fill-opacity="1" fill-rule="nonzero"/><path fill="#a55832" d="M 147.242188 164.992188 C 147.242188 164.992188 145.242188 158.300781 146.089844 152.085938 C 146.9375 145.875 148.492188 139.519531 148.492188 136.695312 C 148.492188 133.871094 148.914062 119.046875 150.75 116.644531 C 152.589844 114.246094 170.667969 103.65625 178.578125 103.230469 C 186.492188 102.808594 194.082031 106.972656 197.578125 107.714844 C 201.074219 108.457031 206.480469 109.832031 208.386719 111.949219 C 210.292969 114.070312 211.351562 134.71875 214.636719 140.015625 C 217.921875 145.308594 224.914062 174.539062 225.867188 180.789062 C 226.820312 187.035156 228.199219 198.367188 228.621094 200.589844 C 229.046875 202.816406 229.152344 206.523438 228.621094 209.0625 C 228.089844 211.605469 225.867188 215.628906 225.230469 215.949219 C 224.59375 216.265625 223.269531 216.054688 221.789062 216.792969 C 220.304688 217.535156 218.980469 217.746094 217.921875 217.746094 C 216.863281 217.746094 214.515625 217.046875 214.636719 216.53125 C 214.757812 216.011719 217.550781 210.441406 218.558594 207.792969 C 219.5625 205.144531 218.664062 203.34375 218.875 201.386719 C 219.085938 199.425781 220.039062 197.785156 219.511719 193.441406 C 218.980469 189.101562 209.65625 165.21875 209.445312 161.300781 C 209.234375 157.382812 203.9375 142.449219 203.511719 140.757812 C 203.089844 139.0625 202.527344 137.410156 202.527344 137.410156 C 202.527344 137.410156 183.667969 142.761719 177.699219 145.476562 C 171.730469 148.191406 165.824219 151.679688 165.824219 151.679688 C 165.824219 151.679688 163.253906 143.472656 161.980469 141.214844 C 160.710938 138.957031 161.417969 138.460938 160.003906 138.957031 C 158.59375 139.449219 157.746094 150.464844 157.746094 151.027344 C 157.746094 151.59375 165.441406 151.152344 165.441406 151.152344 C 165.441406 151.152344 165.863281 151.472656 165.609375 151.816406 C 165.355469 152.160156 159.96875 155.53125 159.316406 155.980469 C 158.664062 156.433594 151.890625 161.332031 151.890625 161.332031 Z M 147.242188 164.992188 " fill-opacity="1" fill-rule="nonzero"/><path fill="#a55832" d="M 184.023438 103.582031 C 181.710938 103.808594 183.59375 107.613281 183.273438 108.96875 C 182.957031 110.328125 183.386719 112.847656 183.773438 115.753906 C 184.160156 118.664062 183.347656 124.382812 182.25 125.644531 C 181.15625 126.90625 178.054688 137.671875 173.128906 134.636719 C 168.199219 131.597656 175.140625 109.164062 175.140625 109.164062 L 178.535156 100.632812 C 178.535156 100.632812 186.335938 103.359375 184.023438 103.582031 Z M 184.023438 103.582031 " fill-opacity="1" fill-rule="nonzero"/><path fill="#ffd100" d="M 166.996094 130.695312 C 166.996094 130.695312 162.335938 123.492188 161.488281 121.871094 C 160.640625 120.246094 160.640625 117.351562 160.429688 116.574219 C 160.214844 115.796875 157.957031 114.457031 156.898438 113.1875 C 155.835938 111.914062 155.898438 111.117188 155.839844 107.804688 C 155.78125 104.496094 157.039062 102.171875 158.097656 99.914062 C 159.15625 97.652344 159.367188 95.746094 160.5 91.511719 C 161.628906 87.273438 164.523438 70.1875 169.964844 66.519531 C 175.402344 62.847656 183.046875 63.488281 186.875 64.269531 C 190.707031 65.050781 193.402344 66.085938 194.1875 67.4375 C 194.976562 68.785156 194.125 71.066406 194.1875 71.15625 C 194.253906 71.242188 191.152344 73.507812 189.386719 76.542969 C 187.621094 79.578125 186.066406 81.980469 186.703125 85.722656 C 187.339844 89.464844 188.257812 93.207031 188.328125 94.40625 C 188.398438 95.605469 184.007812 98.007812 183.273438 100.6875 C 182.539062 103.371094 182.675781 111.492188 182.324219 115.585938 C 181.96875 119.679688 178.085938 123 177.945312 126.953125 C 177.804688 130.90625 176.886719 134.789062 174.90625 135.074219 C 172.929688 135.355469 166.996094 130.695312 166.996094 130.695312 Z M 166.996094 130.695312 " fill-opacity="1" fill-rule="nonzero"/><path fill="#a55832" d="M 199.679688 138.246094 C 199.679688 138.246094 200.164062 134.757812 200.164062 133.789062 C 200.164062 132.820312 200.164062 125.257812 200.164062 125.257812 L 202.527344 137.410156 Z M 199.679688 138.246094 " fill-opacity="1" fill-rule="nonzero"/><path fill="#ffd100" d="M 200.988281 131.269531 C 200.988281 131.269531 194.636719 132.964844 193.664062 133.207031 C 192.695312 133.449219 185.808594 136.066406 184.792969 136.355469 C 183.773438 136.648438 179.167969 138.636719 177.46875 139.410156 C 175.773438 140.1875 163.898438 145.917969 163.898438 145.917969 L 163.515625 144.855469 C 163.515625 144.855469 169.128906 141.496094 170.390625 141.011719 C 171.648438 140.527344 177.566406 137.519531 178.632812 136.988281 C 179.699219 136.453125 186.488281 133.980469 186.488281 133.980469 C 186.488281 133.980469 194.828125 131.511719 195.460938 131.269531 C 196.089844 131.023438 200.988281 130.25 200.988281 130.25 Z M 200.988281 131.269531 " fill-opacity="1" fill-rule="nonzero"/></svg>